# 3ds Max Wavefront OBJ Exporter v0.97b - (c)2007 guruware
# File Created: 29.10.2015 13:07:06

mtllib hartmonitorwithtexture.mtl

#
# object Box003
#

v  -29.5564 17.2204 12.6448
v  -29.5564 17.2204 8.8705
v  -9.8521 17.2204 8.8705
v  9.8521 17.2204 8.8705
v  29.5564 17.2204 8.8705
v  29.5564 17.2204 12.6448
v  35.9946 17.2204 8.8705
v  35.9946 17.2204 12.6448
v  -35.9946 17.2204 8.8705
v  -26.2030 19.7481 5.0963
v  -21.5162 19.7481 5.0963
v  21.5162 19.7481 5.0963
v  26.2030 19.7481 5.0963
v  -35.9946 67.2204 12.6448
v  -29.5564 67.2204 12.6448
v  -29.5564 67.2204 8.8705
v  -35.9946 67.2204 8.8705
v  29.5564 67.2204 12.6448
v  29.5564 67.2204 8.8705
v  35.9946 67.2204 12.6448
v  35.9946 67.2204 8.8705
v  -21.5162 56.1467 5.0962
v  -26.2030 56.1467 5.0962
v  21.5162 56.1467 5.0962
v  26.2030 56.1467 5.0962
v  -35.9946 17.2204 12.6448
v  -29.5564 28.9244 12.6448
v  -35.9946 28.9244 12.6448
v  29.5564 28.9244 12.6448
v  35.9946 28.9244 12.6448
v  -29.5564 62.9526 12.6448
v  -35.9946 62.9526 12.6448
v  -29.5564 28.9244 11.5880
v  29.5564 28.9244 11.5880
v  29.5564 62.9526 11.5880
v  -29.5564 62.9526 11.5880
v  35.9946 62.9526 12.6448
v  29.5564 62.9526 12.6448
v  35.9946 28.9244 8.8705
v  26.2030 24.8286 5.0962
v  35.9946 62.9526 8.8705
v  26.2030 49.6002 5.0963
v  21.5162 24.8286 5.0962
v  -7.1721 19.7481 5.0963
v  -21.5162 24.8286 5.0962
v  7.1721 19.7481 5.0963
v  -26.2030 24.8286 5.0962
v  21.5162 49.6002 5.0963
v  -26.2030 49.6002 5.0963
v  -21.5162 49.6002 5.0963
v  -35.9946 28.9244 8.8705
v  -35.9946 62.9526 8.8705
v  -9.2606 33.3408 5.0963
v  9.2606 33.3408 5.0962
v  -9.2606 41.0881 5.0963
v  9.2606 41.0881 5.0963
v  -5.2355 34.8164 2.7817
v  -1.7452 34.8164 2.7817
v  1.7452 34.8164 2.7817
v  5.2355 34.8164 2.7817
v  -5.2355 39.6124 2.7817
v  5.2355 39.6124 2.7817
v  1.7452 39.6124 2.7817
v  -1.7452 39.6124 2.7817
v  -3.5779 -86.2328 -2.8631
v  -3.5779 -79.8654 -2.8631
v  -1.7889 -79.8654 -5.9617
v  -1.7889 -86.2328 -5.9617
v  -24.6237 -85.7328 12.8418
v  -24.6237 -80.3654 12.8418
v  -25.9127 -80.3654 10.6092
v  -25.9127 -85.7328 10.6092
v  1.7890 -86.2328 0.2355
v  1.7890 -79.8654 0.2355
v  -1.7889 -79.8654 0.2355
v  -1.7889 -86.2328 0.2355
v  25.9127 -85.7328 10.6093
v  25.9127 -80.3654 10.6093
v  24.6238 -80.3654 12.8418
v  24.6238 -85.7328 12.8418
v  1.7890 -86.2328 -5.9617
v  1.7890 -79.8654 -5.9617
v  3.5780 -79.8654 -2.8631
v  3.5780 -86.2328 -2.8631
v  -1.2889 -85.7328 -32.0403
v  -1.2889 -80.3654 -32.0403
v  1.2890 -80.3654 -32.0403
v  1.2890 -85.7328 -32.0403
v  -3.5780 105.9921 -2.8631
v  -1.7890 105.9921 0.2355
v  1.7889 105.9921 0.2355
v  1.7889 105.9921 -5.9617
v  3.5779 105.9921 -2.8631
v  -1.7890 105.9921 -5.9617
v  -3.5779 35.5297 -2.8631
v  -1.7890 35.5297 -5.9617
v  -1.7890 35.5297 0.2355
v  1.7890 35.5297 0.2355
v  3.5779 35.5297 -2.8631
v  1.7890 35.5297 -5.9617
v  -22.1862 -86.2328 7.8804
v  -22.1862 -79.8654 7.8804
v  -20.3972 -86.2328 10.9790
v  -20.3972 -79.8654 10.9790
v  20.4380 -86.2328 11.0025
v  20.4380 -79.8654 11.0025
v  22.2270 -86.2328 7.9039
v  22.2270 -79.8654 7.9039
v  1.7890 -86.2328 -27.1011
v  1.7890 -79.8654 -27.1011
v  -1.7889 -86.2328 -27.1011
v  -1.7889 -79.8654 -27.1011
v  -25.2966 -79.8654 9.6762
v  -25.2966 -86.2328 9.6762
v  -23.5077 -86.2328 12.7748
v  -23.5077 -79.8654 12.7748
v  23.5077 -79.8654 12.7748
v  23.5077 -86.2328 12.7748
v  25.2967 -86.2328 9.6762
v  25.2967 -79.8654 9.6762
v  1.7890 -79.8654 -31.0403
v  1.7890 -86.2328 -31.0403
v  -1.7889 -86.2328 -31.0403
v  -1.7889 -79.8654 -31.0403
v  -23.4711 -91.6742 12.6382
v  -25.1600 -91.6742 9.7128
v  -22.2227 -91.6742 8.0170
v  -20.5338 -91.6742 10.9424
v  25.1601 -91.6742 9.7128
v  23.4711 -91.6742 12.6382
v  20.5746 -91.6742 10.9659
v  22.2636 -91.6742 8.0405
v  -1.6889 -91.6742 -30.9403
v  1.6890 -91.6742 -30.9403
v  1.6890 -91.6742 -27.2011
v  -1.6889 -91.6742 -27.2011
v  -6.0779 39.1738 -2.8631
v  -3.0391 39.1738 -8.1266
v  -3.0388 35.5297 -8.1268
v  -6.0779 35.5297 -2.8631
v  -5.4381 39.1738 1.4855
v  -5.4380 35.5297 1.4855
v  6.0779 39.1738 -2.8631
v  5.4380 39.1738 1.4855
v  5.4380 35.5297 1.4855
v  6.0779 35.5297 -2.8632
v  3.0390 39.1738 -8.1267
v  3.0390 35.5297 -8.1267
v  1.7890 39.1738 -5.9617
v  -1.7890 39.1738 -5.9617
v  -3.5779 39.1738 -2.8631
v  -1.7890 39.1738 0.2355
v  1.7890 39.1738 0.2355
v  3.5779 39.1738 -2.8631
# 154 vertices

vn 0.0000 -1.0000 -0.0000
vn 0.0000 -0.9993 -0.0366
vn 0.0000 -0.9990 -0.0457
vn 0.0000 -0.9949 -0.1006
vn 0.0000 1.0000 -0.0000
vn 0.0000 0.9783 -0.2070
vn 0.0000 0.9819 -0.1895
vn 0.0000 0.9143 -0.4050
vn 0.0000 0.0000 1.0000
vn 0.0000 -0.0000 1.0000
vn -0.0000 -0.0000 1.0000
vn -0.0000 0.0000 1.0000
vn 1.0000 -0.0000 -0.0000
vn 0.9918 -0.0000 -0.1282
vn 0.9912 -0.0000 -0.1324
vn 0.9649 -0.0000 -0.2625
vn 0.9912 0.0000 -0.1324
vn 1.0000 0.0000 -0.0000
vn 0.9649 0.0000 -0.2625
vn 0.9936 0.0000 -0.1129
vn 0.0000 -0.0000 -1.0000
vn -0.0000 -0.0000 -1.0000
vn -0.9649 -0.0000 -0.2625
vn -0.9918 0.0000 -0.1282
vn -0.9912 -0.0000 -0.1324
vn -1.0000 0.0000 -0.0000
vn -0.9912 0.0000 -0.1324
vn -0.9936 -0.0000 -0.1129
vn -0.0000 1.0000 0.0000
vn -0.0000 -0.9949 -0.1006
vn -0.0000 0.0000 -1.0000
vn 0.0000 0.0000 -1.0000
vn -0.0000 -0.9954 -0.0958
vn 0.0000 -0.9954 -0.0958
vn -0.9838 0.0000 -0.1794
vn -0.0000 0.9954 -0.0958
vn 0.0000 0.9954 -0.0958
vn 0.9838 0.0000 -0.1794
vn -0.9982 -0.0000 -0.0604
vn -0.9998 -0.0000 -0.0202
vn -0.8720 0.0000 -0.4896
vn -0.9982 -0.0000 0.0604
vn 0.4360 0.0000 0.9000
vn -0.4360 0.0000 0.9000
vn 0.9982 0.0000 0.0604
vn 0.9982 0.0000 -0.0604
vn 0.8720 0.0000 -0.4896
vn 0.9998 0.0000 -0.0202
vn -1.0000 -0.0000 -0.0000
vn -0.6854 0.0000 -0.7282
vn -0.6854 0.0000 0.7282
vn 0.6854 0.0000 0.7282
vn 1.0000 0.0000 0.0000
vn 0.6854 0.0000 -0.7282
vn -0.9839 -0.0000 -0.1787
vn 0.0000 -1.0000 0.0000
vn 0.9839 0.0000 0.1787
vn -0.9839 -0.0000 0.1787
vn 0.9839 0.0000 -0.1787
vn -0.0000 1.0000 -0.0000
vn -0.9976 -0.0000 -0.0691
vn -0.5288 -0.8482 0.0320
vn 0.4968 0.0000 0.8679
vn -0.5288 0.8482 0.0320
vn -0.4968 -0.0000 0.8679
vn 0.5288 -0.8482 0.0320
vn 0.9976 0.0000 -0.0691
vn 0.5288 0.8482 0.0320
vn 0.9986 0.0000 -0.0524
vn 0.0000 -0.9972 -0.0753
vn -0.9986 0.0000 -0.0524
vn -0.0000 0.9972 -0.0753
vn -0.9981 -0.0147 0.0604
vn -0.9836 -0.0251 -0.1786
vn 0.9981 -0.0147 -0.0604
vn 0.9836 -0.0251 0.1786
vn 0.9981 -0.0147 0.0604
vn -0.9836 -0.0251 0.1786
vn -0.9981 -0.0147 -0.0604
vn 0.9836 -0.0251 -0.1786
vn 0.0000 -0.1208 -0.9927
vn 0.9999 -0.0128 0.0000
vn 0.0000 -0.1208 0.9927
vn -0.9999 -0.0128 -0.0000
vn -0.9997 -0.0000 -0.0225
vn -0.9999 -0.0000 0.0154
vn 0.9997 0.0000 -0.0225
vn 0.9999 0.0000 0.0154
vn -1.0000 -0.0000 0.0000
vn -0.6854 -0.0000 0.7282
vn -0.6854 -0.0000 0.7281
vn 0.6854 -0.0000 0.7282
vn -0.0000 0.0001 -1.0000
vn 0.0001 -0.0000 -1.0000
vn -0.0000 0.0002 -1.0000
vn -0.0002 0.0003 -1.0000
vn -0.9999 -0.0000 0.0164
vn -0.9999 0.0000 0.0164
vn -0.0157 0.9995 -0.0282
vn 0.0000 0.9997 -0.0260
vn -0.0824 0.9959 -0.0376
vn -0.1563 0.9865 -0.0478
vn 0.0155 0.9988 -0.0464
vn 0.0000 0.9987 -0.0510
vn 0.0760 0.9967 -0.0282
vn 0.0841 0.9961 -0.0258
vn 0.9999 0.0000 0.0164
vn 0.0254 -0.9986 -0.0458
vn 0.0000 -0.9991 -0.0423
vn 0.1331 -0.9892 -0.0607
vn 0.2487 -0.9656 -0.0761
vn -0.0252 -0.9968 -0.0753
vn 0.0000 -0.9966 -0.0828
vn -0.1229 -0.9914 -0.0456
vn -0.1360 -0.9898 -0.0416
# 115 vertex normals

vt 0.2719 0.8590 0.0000
vt 0.2719 0.8374 0.0000
vt 0.2837 0.8374 0.0000
vt 0.2955 0.8374 0.0000
vt 0.3073 0.8374 0.0000
vt 0.3073 0.8590 0.0000
vt 0.3112 0.8374 0.0000
vt 0.3112 0.8590 0.0000
vt 0.2681 0.8374 0.0000
vt 0.2739 0.8159 0.0000
vt 0.2767 0.8159 0.0000
vt 0.3025 0.8159 0.0000
vt 0.3053 0.8159 0.0000
vt 0.0702 0.9695 0.0000
vt 0.0664 0.9695 0.0000
vt 0.0664 0.9479 0.0000
vt 0.0702 0.9479 0.0000
vt 0.0310 0.9695 0.0000
vt 0.0310 0.9479 0.0000
vt 0.0271 0.9695 0.0000
vt 0.0271 0.9479 0.0000
vt 0.0616 0.9263 0.0000
vt 0.0644 0.9263 0.0000
vt 0.0358 0.9263 0.0000
vt 0.0330 0.9263 0.0000
vt 0.3010 0.7905 0.0000
vt 0.3010 0.7866 0.0000
vt 0.3111 0.7866 0.0000
vt 0.3111 0.7905 0.0000
vt 0.3010 0.7512 0.0000
vt 0.3111 0.7512 0.0000
vt 0.3010 0.7474 0.0000
vt 0.3111 0.7474 0.0000
vt 0.3404 0.7866 0.0000
vt 0.3404 0.7905 0.0000
vt 0.9921 0.9744 0.0000
vt 0.4608 0.9744 0.0000
vt 0.4608 0.5340 0.0000
vt 0.9921 0.5340 0.0000
vt 0.3404 0.7474 0.0000
vt 0.3404 0.7512 0.0000
vt 0.3441 0.7866 0.0000
vt 0.3441 0.7905 0.0000
vt 0.3441 0.7512 0.0000
vt 0.3441 0.7474 0.0000
vt 0.3010 0.6633 0.0000
vt 0.3010 0.6418 0.0000
vt 0.3111 0.6418 0.0000
vt 0.3111 0.6633 0.0000
vt 0.3031 0.6202 0.0000
vt 0.3075 0.6202 0.0000
vt 0.3404 0.6418 0.0000
vt 0.3404 0.6633 0.0000
vt 0.3289 0.6202 0.0000
vt 0.3441 0.6418 0.0000
vt 0.3441 0.6633 0.0000
vt 0.3345 0.6202 0.0000
vt 0.3819 0.7201 0.0000
vt 0.3819 0.7173 0.0000
vt 0.3863 0.7173 0.0000
vt 0.3863 0.7201 0.0000
vt 0.3819 0.7001 0.0000
vt 0.3819 0.6915 0.0000
vt 0.3863 0.6915 0.0000
vt 0.3819 0.7087 0.0000
vt 0.3819 0.6887 0.0000
vt 0.3863 0.6887 0.0000
vt 0.4076 0.7173 0.0000
vt 0.4076 0.7201 0.0000
vt 0.4076 0.6887 0.0000
vt 0.4076 0.6915 0.0000
vt 0.4133 0.7173 0.0000
vt 0.4133 0.7201 0.0000
vt 0.4133 0.6915 0.0000
vt 0.4133 0.6887 0.0000
vt 0.0702 0.9067 0.0000
vt 0.0487 0.9089 0.0000
vt 0.0487 0.8988 0.0000
vt 0.0702 0.9023 0.0000
vt 0.0271 0.9089 0.0000
vt 0.0271 0.8988 0.0000
vt 0.0487 0.8694 0.0000
vt 0.0702 0.8809 0.0000
vt 0.0271 0.8694 0.0000
vt 0.0487 0.8657 0.0000
vt 0.0702 0.8753 0.0000
vt 0.0271 0.8657 0.0000
vt 0.2219 0.9745 0.0000
vt 0.1865 0.9745 0.0000
vt 0.1865 0.9684 0.0000
vt 0.2219 0.9684 0.0000
vt 0.0877 0.9497 0.0000
vt 0.1171 0.9497 0.0000
vt 0.1171 0.9557 0.0000
vt 0.0877 0.9557 0.0000
vt 0.3588 0.8657 0.0000
vt 0.3942 0.8657 0.0000
vt 0.3942 0.8718 0.0000
vt 0.3588 0.8718 0.0000
vt 0.3387 0.9490 0.0000
vt 0.3093 0.9490 0.0000
vt 0.3093 0.9430 0.0000
vt 0.3387 0.9430 0.0000
vt 0.3936 0.6988 0.0000
vt 0.3936 0.7099 0.0000
vt 0.4003 0.6988 0.0000
vt 0.4003 0.7099 0.0000
vt 0.1632 0.8657 0.0000
vt 0.1632 0.8768 0.0000
vt 0.1500 0.8744 0.0000
vt 0.1500 0.8723 0.0000
vt 0.1500 0.8702 0.0000
vt 0.1500 0.8682 0.0000
vt 0.0877 0.9068 0.0000
vt 0.0877 0.9001 0.0000
vt 0.1009 0.9014 0.0000
vt 0.1009 0.9055 0.0000
vt 0.3170 0.8270 0.0000
vt 0.3170 0.8159 0.0000
vt 0.3302 0.8183 0.0000
vt 0.3302 0.8204 0.0000
vt 0.3302 0.8225 0.0000
vt 0.3302 0.8245 0.0000
vt 0.4429 0.6479 0.0000
vt 0.4429 0.6546 0.0000
vt 0.4297 0.6533 0.0000
vt 0.4297 0.6491 0.0000
vt 0.1168 0.7937 0.0000
vt 0.1168 0.7882 0.0000
vt 0.1345 0.7882 0.0000
vt 0.1345 0.7937 0.0000
vt 0.0271 0.7933 0.0000
vt 0.0271 0.7886 0.0000
vt 0.0399 0.7886 0.0000
vt 0.0399 0.7933 0.0000
vt 0.2999 0.8912 0.0000
vt 0.3054 0.8912 0.0000
vt 0.3054 0.8933 0.0000
vt 0.2999 0.8933 0.0000
vt 0.2707 0.6661 0.0000
vt 0.2707 0.6615 0.0000
vt 0.2835 0.6615 0.0000
vt 0.2835 0.6661 0.0000
vt 0.1761 0.6665 0.0000
vt 0.1761 0.6610 0.0000
vt 0.1938 0.6610 0.0000
vt 0.1938 0.6665 0.0000
vt 0.4158 0.8358 0.0000
vt 0.4205 0.8358 0.0000
vt 0.4205 0.8374 0.0000
vt 0.4158 0.8374 0.0000
vt 0.1656 0.8270 0.0000
vt 0.1833 0.8281 0.0000
vt 0.1833 0.8302 0.0000
vt 0.1479 0.8302 0.0000
vt 0.1656 0.8313 0.0000
vt 0.1479 0.8281 0.0000
vt 0.3797 0.9473 0.0000
vt 0.3620 0.9462 0.0000
vt 0.3620 0.9441 0.0000
vt 0.3974 0.9441 0.0000
vt 0.3797 0.9430 0.0000
vt 0.3974 0.9462 0.0000
vt 0.1168 0.6887 0.0000
vt 0.1345 0.6887 0.0000
vt 0.0991 0.6887 0.0000
vt 0.0991 0.7882 0.0000
vt 0.4049 0.8912 0.0000
vt 0.4049 0.8933 0.0000
vt 0.1938 0.5615 0.0000
vt 0.2115 0.5615 0.0000
vt 0.2115 0.6610 0.0000
vt 0.1761 0.5615 0.0000
vt 0.2860 0.9430 0.0000
vt 0.2860 0.9451 0.0000
vt 0.1865 0.9451 0.0000
vt 0.1865 0.9430 0.0000
vt 0.0555 0.7937 0.0000
vt 0.0555 0.7882 0.0000
vt 0.2446 0.8414 0.0000
vt 0.2269 0.8425 0.0000
vt 0.3674 0.7474 0.0000
vt 0.4287 0.7474 0.0000
vt 0.4287 0.7529 0.0000
vt 0.3674 0.7529 0.0000
vt 0.2765 0.9255 0.0000
vt 0.2141 0.9247 0.0000
vt 0.1970 0.9203 0.0000
vt 0.2593 0.9211 0.0000
vt 0.4390 0.6257 0.0000
vt 0.3775 0.6257 0.0000
vt 0.3775 0.6202 0.0000
vt 0.4390 0.6202 0.0000
vt 0.2271 0.8159 0.0000
vt 0.2448 0.8169 0.0000
vt 0.2553 0.6610 0.0000
vt 0.2553 0.6665 0.0000
vt 0.2039 0.8912 0.0000
vt 0.2663 0.8928 0.0000
vt 0.2490 0.8966 0.0000
vt 0.1865 0.8949 0.0000
vt 0.0553 0.6665 0.0000
vt 0.0553 0.6610 0.0000
vt 0.0271 0.8302 0.0000
vt 0.0271 0.8281 0.0000
vt 0.2553 0.7882 0.0000
vt 0.2553 0.7937 0.0000
vt 0.1865 0.8657 0.0000
vt 0.3073 0.8657 0.0000
vt 0.3073 0.8679 0.0000
vt 0.1865 0.8679 0.0000
vt 0.0452 0.7882 0.0000
vt 0.0452 0.7937 0.0000
vt 0.0275 0.7937 0.0000
vt 0.3907 0.9706 0.0000
vt 0.3962 0.9706 0.0000
vt 0.3958 0.9712 0.0000
vt 0.3912 0.9712 0.0000
vt 0.0275 0.7882 0.0000
vt 0.3675 0.9712 0.0000
vt 0.3620 0.9712 0.0000
vt 0.3624 0.9706 0.0000
vt 0.3670 0.9706 0.0000
vt 0.2831 0.6665 0.0000
vt 0.2654 0.6665 0.0000
vt 0.2654 0.6610 0.0000
vt 0.2831 0.6610 0.0000
vt 0.0328 0.6610 0.0000
vt 0.0328 0.6665 0.0000
vt 0.0271 0.6661 0.0000
vt 0.0271 0.6615 0.0000
vt 0.4339 0.8912 0.0000
vt 0.4339 0.8933 0.0000
vt 0.4282 0.8930 0.0000
vt 0.4282 0.8915 0.0000
vt 0.2778 0.7937 0.0000
vt 0.2778 0.7882 0.0000
vt 0.2835 0.7886 0.0000
vt 0.2835 0.7933 0.0000
vt 0.3298 0.8679 0.0000
vt 0.3298 0.8657 0.0000
vt 0.3355 0.8660 0.0000
vt 0.3355 0.8676 0.0000
vt 0.4158 0.8162 0.0000
vt 0.4326 0.8159 0.0000
vt 0.4422 0.8180 0.0000
vt 0.4254 0.8184 0.0000
vt 0.4390 0.7474 0.0000
vt 0.4390 0.7529 0.0000
vt 0.2037 0.9246 0.0000
vt 0.1865 0.9202 0.0000
vt 0.3674 0.6257 0.0000
vt 0.3674 0.6202 0.0000
vt 0.2489 0.9684 0.0000
vt 0.2656 0.9688 0.0000
vt 0.2561 0.9709 0.0000
vt 0.2394 0.9705 0.0000
vt 0.2766 0.8931 0.0000
vt 0.2593 0.8969 0.0000
vt 0.4117 0.8678 0.0000
vt 0.4117 0.8657 0.0000
vt 0.4330 0.8657 0.0000
vt 0.4330 0.8678 0.0000
vt 0.0450 0.7984 0.0000
vt 0.0283 0.7984 0.0000
vt 0.0547 0.7984 0.0000
vt 0.4110 0.7529 0.0000
vt 0.4285 0.7576 0.0000
vt 0.4118 0.7576 0.0000
vt 0.4382 0.7576 0.0000
vt 0.2823 0.6712 0.0000
vt 0.2656 0.6712 0.0000
vt 0.3777 0.6304 0.0000
vt 0.3682 0.6304 0.0000
vt 0.3952 0.6257 0.0000
vt 0.3944 0.6304 0.0000
vt 0.2561 0.6712 0.0000
vt 0.4253 0.9430 0.0000
vt 0.4253 0.9451 0.0000
vt 0.4207 0.9451 0.0000
vt 0.4207 0.9430 0.0000
vt 0.0548 0.6712 0.0000
vt 0.0334 0.6712 0.0000
vt 0.1450 0.9497 0.0000
vt 0.1450 0.9519 0.0000
vt 0.1403 0.9518 0.0000
vt 0.1403 0.9498 0.0000
vt 0.2772 0.7984 0.0000
vt 0.2559 0.7984 0.0000
vt 0.1332 0.9018 0.0000
vt 0.1632 0.9018 0.0000
vt 0.1632 0.9049 0.0000
vt 0.1332 0.9049 0.0000
vt 0.1083 0.9018 0.0000
vt 0.1083 0.9049 0.0000
vt 0.3974 0.6495 0.0000
vt 0.4223 0.6495 0.0000
vt 0.4223 0.6527 0.0000
vt 0.3974 0.6527 0.0000
vt 0.3674 0.6495 0.0000
vt 0.3674 0.6527 0.0000
vt 0.3674 0.7772 0.0000
vt 0.3674 0.7750 0.0000
vt 0.4250 0.7750 0.0000
vt 0.4250 0.7772 0.0000
vt 0.3586 0.5792 0.0000
vt 0.3586 0.5969 0.0000
vt 0.3010 0.5969 0.0000
vt 0.3010 0.5792 0.0000
vt 0.3586 0.5615 0.0000
vt 0.3010 0.5615 0.0000
vt 0.1453 0.9243 0.0000
vt 0.1453 0.9264 0.0000
vt 0.0877 0.9264 0.0000
vt 0.0877 0.9243 0.0000
vt 0.3586 0.7064 0.0000
vt 0.3586 0.7241 0.0000
vt 0.3010 0.7241 0.0000
vt 0.3010 0.7064 0.0000
vt 0.3586 0.6887 0.0000
vt 0.3010 0.6887 0.0000
vt 0.4384 0.5615 0.0000
vt 0.4384 0.5647 0.0000
vt 0.4347 0.5647 0.0000
vt 0.4347 0.5615 0.0000
vt 0.3448 0.8225 0.0000
vt 0.3625 0.8235 0.0000
vt 0.3625 0.8250 0.0000
vt 0.3376 0.8247 0.0000
vt 0.3802 0.8225 0.0000
vt 0.3925 0.8232 0.0000
vt 0.3802 0.8203 0.0000
vt 0.3925 0.8196 0.0000
vt 0.3625 0.8193 0.0000
vt 0.3625 0.8178 0.0000
vt 0.3448 0.8203 0.0000
vt 0.3376 0.8181 0.0000
vt 0.1355 0.8702 0.0000
vt 0.1178 0.8692 0.0000
vt 0.1178 0.8677 0.0000
vt 0.1426 0.8680 0.0000
vt 0.1001 0.8702 0.0000
vt 0.0877 0.8695 0.0000
vt 0.1001 0.8724 0.0000
vt 0.0877 0.8731 0.0000
vt 0.1178 0.8734 0.0000
vt 0.1178 0.8749 0.0000
vt 0.1355 0.8724 0.0000
vt 0.1426 0.8746 0.0000
vt 0.2681 0.8590 0.0000
# 350 texture coords

g Box003
usemtl 01___Default
s 2
f 1/1/1 2/2/1 3/3/1 4/4/1 
f 1/1/1 4/4/1 5/5/2 6/6/1 
f 6/6/1 5/5/2 7/7/3 8/8/1 
f 9/9/4 10/10/4 11/11/4 2/2/4 
f 5/5/2 12/12/4 13/13/4 7/7/3 
s 4
f 14/14/5 15/15/5 16/16/6 17/17/7 
f 15/15/5 18/18/5 19/19/6 16/16/6 
f 18/18/5 20/20/5 21/21/7 19/19/6 
f 17/17/7 16/16/6 22/22/8 23/23/8 
f 16/16/6 19/19/6 24/24/8 22/22/8 
f 19/19/6 21/21/7 25/25/8 24/24/8 
s 8
f 26/26/9 1/27/9 27/28/9 28/29/9 
f 1/27/9 6/30/9 29/31/10 27/28/9 
f 6/30/9 8/32/9 30/33/10 29/31/10 
f 28/29/9 27/28/9 31/34/9 32/35/9 
f 33/36/11 34/37/12 35/38/11 36/39/10 
f 29/31/10 30/33/10 37/40/10 38/41/9 
f 32/35/9 31/34/9 15/42/9 14/43/9 
f 31/34/9 38/41/9 18/44/12 15/42/9 
f 38/41/9 37/40/10 20/45/9 18/44/12 
s 16
f 8/46/13 7/47/14 39/48/15 30/49/13 
f 7/47/14 13/50/16 40/51/16 39/48/15 
f 30/49/13 39/48/15 41/52/17 37/53/18 
f 39/48/15 40/51/16 42/54/19 41/52/17 
f 37/53/18 41/52/17 21/55/20 20/56/18 
f 41/52/17 42/54/19 25/57/19 21/55/20 
s 32
f 13/58/21 12/59/21 43/60/21 40/61/21 
f 44/62/22 11/63/21 45/64/22 46/65/21 
f 12/59/21 46/65/21 45/64/22 43/60/21 
f 11/63/21 10/66/21 47/67/21 45/64/22 
f 40/61/21 43/60/21 48/68/21 42/69/21 
f 45/64/22 47/67/21 49/70/21 50/71/21 
f 42/69/21 48/68/21 24/72/21 25/73/21 
f 48/68/21 50/71/21 22/74/21 24/72/21 
f 50/71/21 49/70/21 23/75/21 22/74/21 
s 64
f 10/76/23 9/77/24 51/78/25 47/79/23 
f 9/77/24 26/80/26 28/81/26 51/78/25 
f 47/79/23 51/78/25 52/82/27 49/83/23 
f 51/78/25 28/81/26 32/84/26 52/82/27 
f 49/83/23 52/82/27 17/85/28 23/86/23 
f 52/82/27 32/84/26 14/87/26 17/85/28 
s off
f 27/88/29 29/89/29 34/90/29 33/91/29 
f 29/92/26 38/93/26 35/94/26 34/95/26 
f 38/96/1 31/97/1 36/98/1 35/99/1 
f 31/100/18 27/101/18 33/102/18 36/103/18 
s 1
f 5/5/30 2/2/4 11/11/30 12/12/30 
s off
f 43/60/31 45/64/31 53/104/31 54/105/31 
f 45/64/32 50/71/32 55/106/32 53/104/32 
f 50/71/22 48/68/22 56/107/22 55/106/22 
f 48/68/31 43/60/31 54/105/31 56/107/31 
f 54/108/33 53/109/33 57/110/33 58/111/33 
f 54/108/34 58/111/34 59/112/34 60/113/34 
f 53/114/35 55/115/35 61/116/35 57/117/35 
f 55/118/36 56/119/36 62/120/36 63/121/36 
f 55/118/37 63/121/37 64/122/37 61/123/37 
f 56/124/38 54/125/38 60/126/38 62/127/38 
s 8
f 65/128/39 66/129/40 67/130/41 68/131/39 
f 69/132/42 70/133/42 71/134/42 72/135/42 
f 73/136/11 74/137/43 75/138/44 76/139/11 
f 77/140/45 78/141/45 79/142/45 80/143/45 
f 81/144/46 82/145/47 83/146/48 84/147/46 
f 85/148/32 86/149/32 87/150/32 88/151/32 
s 1
f 84/152/1 73/153/1 76/154/1 68/155/1 
f 76/154/1 65/156/1 68/155/1 
f 81/157/1 84/152/1 68/155/1 
f 89/158/5 90/159/5 91/160/5 92/161/5 
f 91/160/5 93/162/5 92/161/5 
f 94/163/5 89/158/5 92/161/5 
s 8
f 95/164/49 96/165/50 67/130/41 66/129/40 
f 97/166/51 95/164/49 66/129/40 75/167/44 
f 98/168/52 97/169/51 75/138/44 74/137/43 
f 99/170/53 98/171/52 74/172/43 83/146/48 
f 100/173/54 99/170/53 83/146/48 82/145/47 
f 96/174/50 100/175/54 82/176/47 67/177/41 
s off
f 65/128/55 101/178/55 102/179/55 66/129/55 
f 76/154/56 103/180/56 101/181/56 65/156/56 
f 75/182/57 104/183/57 103/184/57 76/185/57 
f 66/186/29 102/187/29 104/188/29 75/189/29 
f 73/190/58 105/191/58 106/192/58 74/193/58 
f 84/152/56 107/194/56 105/195/56 73/153/56 
f 83/146/59 108/196/59 107/197/59 84/147/59 
f 74/198/29 106/199/29 108/200/29 83/201/29 
f 81/144/53 109/202/53 110/203/53 82/145/53 
f 68/155/1 111/204/1 109/205/1 81/157/1 
f 67/130/49 112/206/49 111/207/49 68/131/49 
f 82/208/60 110/209/60 112/210/60 67/211/60 
f 113/212/61 114/213/61 72/135/61 71/134/61 
f 114/213/62 115/214/62 69/132/62 72/135/62 
f 115/215/63 116/216/63 70/217/63 69/218/63 
f 116/219/64 113/212/64 71/134/64 70/133/64 
f 117/220/65 118/221/65 80/222/65 79/223/65 
f 118/224/66 119/225/66 77/140/66 80/143/66 
f 119/225/67 120/226/67 78/141/67 77/140/67 
f 120/226/68 117/227/68 79/142/68 78/141/68 
f 121/228/69 122/229/69 88/230/69 87/231/69 
f 122/232/70 123/233/70 85/234/70 88/235/70 
f 123/236/71 124/237/71 86/238/71 85/239/71 
f 124/240/72 121/241/72 87/242/72 86/243/72 
f 114/213/55 113/212/55 102/179/55 101/178/55 
f 125/244/1 126/245/1 127/246/1 128/247/1 
f 116/248/57 115/249/57 103/184/57 104/183/57 
f 113/250/5 116/251/5 104/188/5 102/187/5 
f 118/252/58 117/253/58 106/192/58 105/191/58 
f 129/254/1 130/255/1 131/256/1 132/257/1 
f 120/226/59 119/225/59 107/197/59 108/196/59 
f 117/258/29 120/259/29 108/200/29 106/199/29 
f 122/229/53 121/228/53 110/203/53 109/202/53 
f 133/260/1 134/261/1 135/262/1 136/263/1 
f 124/237/49 123/236/49 111/207/49 112/206/49 
f 121/241/29 124/240/29 112/210/29 110/209/29 
f 115/214/73 114/213/73 126/264/73 125/265/73 
f 114/213/74 101/178/74 127/266/74 126/264/74 
f 101/267/75 103/184/75 128/268/75 127/269/75 
f 103/184/76 115/249/76 125/270/76 128/268/76 
f 119/225/77 118/224/77 130/271/77 129/272/77 
f 118/252/78 105/191/78 131/273/78 130/274/78 
f 105/191/79 107/275/79 132/276/79 131/273/79 
f 107/197/80 119/225/80 129/272/80 132/277/80 
f 123/278/81 122/279/81 134/280/81 133/281/81 
f 122/229/82 109/202/82 135/282/82 134/283/82 
f 109/284/83 111/285/83 136/286/83 135/287/83 
f 111/207/84 123/236/84 133/288/84 136/289/84 
s 8
f 137/290/85 138/291/39 139/292/39 140/293/85 
f 141/294/86 137/290/85 140/293/85 142/295/86 
f 143/296/87 144/297/88 145/298/88 146/299/87 
f 147/300/46 143/296/87 146/299/87 148/301/46 
s 2
f 149/302/22 150/303/22 94/304/21 92/305/32 
s 8
f 89/306/89 94/307/39 150/308/39 151/309/89 
f 90/310/90 89/306/89 151/309/89 152/311/91 
f 91/312/92 90/313/90 152/314/91 153/315/52 
f 93/316/53 91/317/92 153/318/52 154/319/53 
f 92/320/46 93/316/53 154/319/53 149/321/46 
s 1
f 147/322/93 148/323/94 139/324/95 138/325/96 
s off
f 152/326/29 151/327/29 137/328/29 141/329/29 
f 151/327/5 150/330/5 138/331/5 137/328/5 
f 150/330/29 149/332/29 147/333/29 138/331/29 
f 149/332/29 154/334/29 143/335/29 147/333/29 
f 154/334/29 153/336/29 144/337/29 143/335/29 
f 98/338/1 99/339/1 146/340/1 145/341/1 
f 99/339/56 100/342/56 148/343/56 146/340/56 
f 100/342/1 96/344/1 139/345/1 148/343/1 
f 96/344/56 95/346/56 140/347/56 139/345/56 
f 95/346/1 97/348/1 142/349/1 140/347/1 
s 1
f 57/117/97 61/116/98 141/294/97 142/295/97 
s 2
f 61/123/99 64/122/100 152/326/101 141/329/102 
s 1
f 64/122/100 63/121/100 153/336/100 152/326/100 
s 2
f 63/121/103 62/120/104 144/337/105 153/336/106 
s 1
f 62/127/107 60/126/107 145/298/107 144/297/107 
s 2
f 60/113/108 59/112/109 98/338/110 145/341/111 
s 1
f 59/112/109 58/111/109 97/348/109 98/338/109 
s 2
f 58/111/112 57/110/113 142/349/114 97/348/115 
s 1
f 1/1/1 26/350/1 9/9/1 2/2/1 
# 148 polygons - 4 triangles

