# 3ds Max Wavefront OBJ Exporter v0.97b - (c)2007 guruware
# File Created: 29.10.2015 13:06:07

mtllib tablewithtexture.mtl

#
# object Box001
#

v  -49.6435 -6.2597 24.5257
v  -49.6435 -6.2597 20.8608
v  -46.5284 -6.2597 20.8608
v  -46.5284 -6.2597 24.5257
v  -46.0284 39.2617 25.0257
v  -46.0284 39.2617 20.3608
v  46.0284 39.2617 20.3608
v  46.0284 39.2617 25.0257
v  46.5284 -6.2597 24.5257
v  46.5284 -6.2597 20.8608
v  49.6435 -6.2597 20.8608
v  49.6435 -6.2597 24.5257
v  -50.1435 39.2617 20.3608
v  -50.1435 39.2617 -20.3608
v  -46.0284 39.2617 -20.3608
v  46.0284 39.2617 -20.3608
v  50.1435 39.2617 -20.3608
v  50.1435 39.2617 20.3608
v  -49.6435 -6.2597 -20.8608
v  -49.6435 -6.2597 -24.5257
v  -46.5284 -6.2597 -24.5257
v  -46.5284 -6.2597 -20.8608
v  -46.0284 39.2617 -25.0257
v  46.0284 39.2617 -25.0257
v  46.5284 -6.2597 -20.8608
v  46.5284 -6.2597 -24.5257
v  49.6435 -6.2597 -24.5257
v  49.6435 -6.2597 -20.8608
v  -50.1435 41.7937 25.0257
v  -46.0284 41.7937 25.0257
v  -46.0284 41.7937 20.3608
v  -50.1435 41.7937 20.3608
v  46.0284 41.7937 25.0257
v  46.0284 41.7937 20.3608
v  50.1435 41.7937 25.0257
v  50.1435 41.7937 20.3608
v  -46.0284 41.7937 -20.3608
v  -50.1435 41.7937 -20.3608
v  46.0284 41.7937 -20.3608
v  50.1435 41.7937 -20.3608
v  -46.0284 41.7937 -25.0257
v  -50.1435 41.7937 -25.0257
v  46.0284 41.7937 -25.0257
v  50.1435 41.7937 -25.0257
v  -50.1435 39.2617 25.0257
v  50.1435 39.2617 25.0257
v  50.1435 39.2617 -25.0257
v  -50.1435 39.2617 -25.0257
v  -50.1435 -4.2885 20.3608
v  -50.1435 -4.2885 25.0257
v  -46.0284 -4.2885 20.3608
v  -46.0284 -4.2885 25.0257
v  46.0284 -4.2885 20.3608
v  46.0284 -4.2885 25.0257
v  50.1435 -4.2885 20.3608
v  50.1435 -4.2885 25.0257
v  -50.1435 -4.2885 -20.3608
v  -46.0284 -4.2885 -20.3608
v  -50.1435 -4.2885 -25.0257
v  -46.0284 -4.2885 -25.0257
v  46.0284 -4.2885 -20.3608
v  50.1435 -4.2885 -20.3608
v  46.0284 -4.2885 -25.0257
v  50.1435 -4.2885 -25.0257
# 64 vertices

vn 0.0000 -1.0000 -0.0000
vn -0.0000 1.0000 0.0000
vn -0.0000 1.0000 -0.0000
vn 0.0000 1.0000 0.0000
vn 0.0000 1.0000 -0.0000
vn 0.0000 0.0000 1.0000
vn 1.0000 0.0000 -0.0000
vn 0.0000 0.0000 -1.0000
vn -1.0000 0.0000 -0.0000
vn -0.9693 -0.2459 -0.0000
vn 0.0000 -0.2459 -0.9693
vn 0.9693 -0.2459 -0.0000
vn 0.0000 -0.2459 0.9693
# 13 vertex normals

vt 0.7933 0.4549 0.0000
vt 0.7770 0.4549 0.0000
vt 0.7770 0.4410 0.0000
vt 0.7933 0.4410 0.0000
vt 0.4489 0.2865 0.0000
vt 0.4489 0.3073 0.0000
vt 0.0384 0.3073 0.0000
vt 0.0384 0.2865 0.0000
vt 0.0363 0.9789 0.0000
vt 0.0200 0.9789 0.0000
vt 0.0200 0.9650 0.0000
vt 0.0363 0.9650 0.0000
vt 0.4673 0.3073 0.0000
vt 0.4673 0.4889 0.0000
vt 0.4489 0.4889 0.0000
vt 0.0384 0.4889 0.0000
vt 0.0200 0.4889 0.0000
vt 0.0200 0.3073 0.0000
vt 0.2970 0.9029 0.0000
vt 0.2807 0.9029 0.0000
vt 0.2807 0.8890 0.0000
vt 0.2970 0.8890 0.0000
vt 0.4489 0.5097 0.0000
vt 0.0384 0.5097 0.0000
vt 0.2970 0.8244 0.0000
vt 0.2807 0.8244 0.0000
vt 0.2807 0.8105 0.0000
vt 0.2970 0.8105 0.0000
vt 0.4673 0.2432 0.0000
vt 0.4489 0.2432 0.0000
vt 0.4489 0.2224 0.0000
vt 0.4673 0.2224 0.0000
vt 0.0384 0.2432 0.0000
vt 0.0384 0.2224 0.0000
vt 0.0200 0.2432 0.0000
vt 0.0200 0.2224 0.0000
vt 0.4489 0.0408 0.0000
vt 0.4673 0.0408 0.0000
vt 0.0384 0.0408 0.0000
vt 0.0200 0.0408 0.0000
vt 0.4489 0.0200 0.0000
vt 0.4673 0.0200 0.0000
vt 0.0384 0.0200 0.0000
vt 0.0200 0.0200 0.0000
vt 0.9578 0.0313 0.0000
vt 0.9394 0.0313 0.0000
vt 0.9394 0.0200 0.0000
vt 0.9578 0.0200 0.0000
vt 0.5289 0.0313 0.0000
vt 0.5289 0.0200 0.0000
vt 0.5105 0.0313 0.0000
vt 0.5105 0.0200 0.0000
vt 0.7337 0.5642 0.0000
vt 0.7129 0.5642 0.0000
vt 0.7129 0.5529 0.0000
vt 0.7337 0.5529 0.0000
vt 0.5313 0.5642 0.0000
vt 0.5313 0.5529 0.0000
vt 0.5105 0.5642 0.0000
vt 0.5105 0.5529 0.0000
vt 0.4673 0.5642 0.0000
vt 0.4489 0.5642 0.0000
vt 0.4489 0.5529 0.0000
vt 0.4673 0.5529 0.0000
vt 0.0384 0.5642 0.0000
vt 0.0384 0.5529 0.0000
vt 0.0200 0.5642 0.0000
vt 0.0200 0.5529 0.0000
vt 0.7337 0.2978 0.0000
vt 0.7129 0.2978 0.0000
vt 0.7129 0.2865 0.0000
vt 0.7337 0.2865 0.0000
vt 0.5313 0.2978 0.0000
vt 0.5313 0.2865 0.0000
vt 0.5105 0.2978 0.0000
vt 0.5105 0.2865 0.0000
vt 0.5313 0.4920 0.0000
vt 0.5105 0.4920 0.0000
vt 0.9800 0.6314 0.0000
vt 0.9800 0.6498 0.0000
vt 0.7858 0.6498 0.0000
vt 0.7858 0.6314 0.0000
vt 0.9800 0.5529 0.0000
vt 0.9800 0.5738 0.0000
vt 0.7858 0.5738 0.0000
vt 0.7858 0.5529 0.0000
vt 0.9578 0.2255 0.0000
vt 0.9394 0.2255 0.0000
vt 0.7135 0.8105 0.0000
vt 0.7135 0.8313 0.0000
vt 0.5193 0.8313 0.0000
vt 0.5193 0.8105 0.0000
vt 0.9800 0.3650 0.0000
vt 0.9800 0.3833 0.0000
vt 0.7858 0.3833 0.0000
vt 0.7858 0.3650 0.0000
vt 0.7337 0.7585 0.0000
vt 0.7129 0.7585 0.0000
vt 0.5289 0.2255 0.0000
vt 0.5105 0.2255 0.0000
vt 0.7135 0.8890 0.0000
vt 0.7135 0.9073 0.0000
vt 0.5193 0.9073 0.0000
vt 0.5193 0.8890 0.0000
vt 0.7337 0.4920 0.0000
vt 0.7129 0.4920 0.0000
vt 0.0384 0.7585 0.0000
vt 0.0200 0.7585 0.0000
vt 0.2230 0.8105 0.0000
vt 0.2230 0.8313 0.0000
vt 0.0288 0.8313 0.0000
vt 0.0288 0.8105 0.0000
vt 0.2230 0.8890 0.0000
vt 0.2230 0.9073 0.0000
vt 0.0288 0.9073 0.0000
vt 0.0288 0.8890 0.0000
vt 0.9800 0.2865 0.0000
vt 0.9800 0.3073 0.0000
vt 0.7858 0.3073 0.0000
vt 0.7858 0.2865 0.0000
vt 0.4673 0.7585 0.0000
vt 0.4489 0.7585 0.0000
vt 0.5313 0.7585 0.0000
vt 0.5105 0.7585 0.0000
vt 0.5291 0.5008 0.0000
vt 0.5127 0.5008 0.0000
vt 0.7770 0.6475 0.0000
vt 0.7770 0.6337 0.0000
vt 0.7770 0.5715 0.0000
vt 0.7770 0.5552 0.0000
vt 0.9555 0.2343 0.0000
vt 0.9416 0.2343 0.0000
vt 0.5105 0.8291 0.0000
vt 0.5105 0.8127 0.0000
vt 0.7770 0.3811 0.0000
vt 0.7770 0.3672 0.0000
vt 0.7315 0.7673 0.0000
vt 0.7152 0.7673 0.0000
vt 0.5266 0.2343 0.0000
vt 0.5127 0.2343 0.0000
vt 0.5105 0.9051 0.0000
vt 0.5105 0.8912 0.0000
vt 0.7315 0.5008 0.0000
vt 0.7152 0.5008 0.0000
vt 0.0361 0.7673 0.0000
vt 0.0222 0.7673 0.0000
vt 0.0200 0.8291 0.0000
vt 0.0200 0.8127 0.0000
vt 0.0200 0.9051 0.0000
vt 0.0200 0.8912 0.0000
vt 0.7770 0.3050 0.0000
vt 0.7770 0.2887 0.0000
vt 0.4650 0.7673 0.0000
vt 0.4511 0.7673 0.0000
vt 0.5291 0.7673 0.0000
vt 0.5127 0.7673 0.0000
# 156 texture coords

g Box001
usemtl 01___Default
s 2
f 1/1/1 2/2/1 3/3/1 4/4/1 
f 5/5/1 6/6/1 7/7/1 8/8/1 
f 9/9/1 10/10/1 11/11/1 12/12/1 
f 13/13/1 14/14/1 15/15/1 6/6/1 
f 6/6/1 15/15/1 16/16/1 7/7/1 
f 7/7/1 16/16/1 17/17/1 18/18/1 
f 19/19/1 20/20/1 21/21/1 22/22/1 
f 15/15/1 23/23/1 24/24/1 16/16/1 
f 25/25/1 26/26/1 27/27/1 28/28/1 
s 4
f 29/29/2 30/30/3 31/31/2 32/32/4 
f 30/30/3 33/33/4 34/34/5 31/31/2 
f 33/33/4 35/35/4 36/36/4 34/34/5 
f 32/32/4 31/31/2 37/37/5 38/38/3 
f 31/31/2 34/34/5 39/39/5 37/37/5 
f 34/34/5 36/36/4 40/40/5 39/39/5 
f 38/38/3 37/37/5 41/41/3 42/42/3 
f 37/37/5 39/39/5 43/43/5 41/41/3 
f 39/39/5 40/40/5 44/44/5 43/43/5 
s 8
f 45/45/6 5/46/6 30/47/6 29/48/6 
f 5/46/6 8/49/6 33/50/6 30/47/6 
f 8/49/6 46/51/6 35/52/6 33/50/6 
s 16
f 46/53/7 18/54/7 36/55/7 35/56/7 
f 18/54/7 17/57/7 40/58/7 36/55/7 
f 17/57/7 47/59/7 44/60/7 40/58/7 
s 32
f 47/61/8 24/62/8 43/63/8 44/64/8 
f 24/62/8 23/65/8 41/66/8 43/63/8 
f 23/65/8 48/67/8 42/68/8 41/66/8 
s 64
f 48/69/9 14/70/9 38/71/9 42/72/9 
f 14/70/9 13/73/9 32/74/9 38/71/9 
f 13/73/9 45/75/9 29/76/9 32/74/9 
s off
f 45/75/9 13/73/9 49/77/9 50/78/9 
f 13/79/8 6/80/8 51/81/8 49/82/8 
f 6/83/7 5/84/7 52/85/7 51/86/7 
f 5/46/6 45/45/6 50/87/6 52/88/6 
f 8/89/9 7/90/9 53/91/9 54/92/9 
f 7/93/8 18/94/8 55/95/8 53/96/8 
f 18/54/7 46/53/7 56/97/7 55/98/7 
f 46/51/6 8/49/6 54/99/6 56/100/6 
f 15/101/6 14/102/6 57/103/6 58/104/6 
f 14/70/9 48/69/9 59/105/9 57/106/9 
f 48/67/8 23/65/8 60/107/8 59/108/8 
f 23/109/7 15/110/7 58/111/7 60/112/7 
f 17/113/6 16/114/6 61/115/6 62/116/6 
f 16/117/9 24/118/9 63/119/9 61/120/9 
f 24/62/8 47/61/8 64/121/8 63/122/8 
f 47/59/7 17/57/7 62/123/7 64/124/7 
f 50/78/10 49/77/10 2/125/10 1/126/10 
f 49/82/11 51/81/11 3/127/11 2/128/11 
f 51/86/12 52/85/12 4/129/12 3/130/12 
f 52/88/13 50/87/13 1/131/13 4/132/13 
f 54/92/10 53/91/10 10/133/10 9/134/10 
f 53/96/11 55/95/11 11/135/11 10/136/11 
f 55/98/12 56/97/12 12/137/12 11/138/12 
f 56/100/13 54/99/13 9/139/13 12/140/13 
f 58/104/13 57/103/13 19/141/13 22/142/13 
f 57/106/10 59/105/10 20/143/10 19/144/10 
f 59/108/11 60/107/11 21/145/11 20/146/11 
f 60/112/12 58/111/12 22/147/12 21/148/12 
f 62/116/13 61/115/13 25/149/13 28/150/13 
f 61/120/10 63/119/10 26/151/10 25/152/10 
f 63/122/11 64/121/11 27/153/11 26/154/11 
f 64/124/12 62/123/12 28/155/12 27/156/12 
# 62 polygons

