# 3ds Max Wavefront OBJ Exporter v0.97b - (c)2007 guruware
# File Created: 29.10.2015 09:53:47

mtllib GoodPad.mtl

#
# object Object003
#

v  3.3739 11.1522 75.1874
v  -0.7120 11.1522 75.1874
v  0.6332 11.1522 79.0672
v  3.3739 11.1522 80.9714
v  7.4598 11.1522 80.9714
v  7.4598 11.1522 75.1874
v  7.4598 11.1522 69.4034
v  3.3739 11.1522 69.4034
v  -0.7120 11.1522 69.4034
v  11.5457 11.1522 75.1874
v  11.5457 11.1522 80.9714
v  14.2865 11.1522 79.0672
v  15.6316 11.1522 75.1874
v  15.6316 11.1522 69.4034
v  11.5457 11.1522 69.4034
v  11.5457 11.1522 63.6193
v  15.6316 11.1522 63.6193
v  14.2865 11.1522 59.7395
v  11.5457 11.1522 57.8353
v  7.4598 11.1522 57.8353
v  7.4598 11.1522 63.6193
v  3.3739 11.1522 63.6193
v  3.3739 11.1522 57.8353
v  0.6332 11.1522 59.7395
v  -0.7120 11.1522 63.6193
v  5.1546 11.1522 83.0030
v  7.4598 11.1522 83.0030
v  9.7650 11.1522 83.0030
v  0.6332 12.8606 79.0672
v  3.3739 12.8606 80.9714
v  -0.7120 12.8606 75.1874
v  -0.7120 12.8606 69.4034
v  14.2865 12.8606 79.0672
v  15.6316 12.8606 75.1874
v  11.5457 12.8606 80.9714
v  15.6316 12.8606 69.4034
v  14.2865 12.8606 59.7395
v  11.5457 12.8606 57.8353
v  15.6316 12.8606 63.6193
v  7.4598 12.8606 57.8353
v  0.6332 12.8606 59.7395
v  -0.7120 12.8606 63.6193
v  3.3739 12.8606 57.8353
v  5.1546 12.8606 83.0030
v  7.4598 12.8606 83.0030
v  9.7650 12.8606 83.0030
v  3.3739 12.8606 75.1874
v  7.4598 12.8606 80.9714
v  7.4598 12.8606 75.1874
v  7.4598 12.8606 69.4034
v  3.3739 12.8606 69.4034
v  11.5457 12.8606 75.1874
v  11.5457 12.8606 69.4034
v  11.5457 12.8606 63.6193
v  7.4598 12.8606 63.6193
v  3.3739 12.8606 63.6193
# 56 vertices

vn 0.0000 1.0000 -0.0000
vn 0.5706 0.0000 -0.8212
vn 0.9448 0.0000 -0.3276
vn 1.0000 0.0000 -0.0000
vn -0.9448 -0.0000 -0.3276
vn -0.5706 -0.0000 -0.8212
vn -1.0000 -0.0000 0.0000
vn -0.5706 -0.0000 0.8212
vn -0.9448 -0.0000 0.3276
vn 0.0000 0.0000 1.0000
vn -1.0000 -0.0000 -0.0000
vn 0.9448 0.0000 0.3276
vn 0.5706 0.0000 0.8212
vn 1.0000 0.0000 0.0000
vn 0.7520 0.0000 -0.6591
vn 0.0000 0.0000 -1.0000
vn -0.7520 -0.0000 -0.6591
# 17 vertex normals

vt 0.2500 0.7500 0.0000
vt 0.2500 1.0000 0.0000
vt 0.0000 1.0000 0.0000
vt 0.0000 0.7500 0.0000
vt 0.0000 0.5000 0.0000
vt 0.2500 0.5000 0.0000
vt 0.5000 0.5000 0.0000
vt 0.5000 0.7500 0.0000
vt 0.5000 1.0000 0.0000
vt 0.2500 0.2500 0.0000
vt 0.0000 0.2500 0.0000
vt 0.0000 0.0000 0.0000
vt 0.2500 0.0000 0.0000
vt 0.5000 0.0000 0.0000
vt 0.5000 0.2500 0.0000
vt 0.7500 0.2500 0.0000
vt 0.7500 0.0000 0.0000
vt 1.0000 0.0000 0.0000
vt 1.0000 0.2500 0.0000
vt 1.0000 0.5000 0.0000
vt 0.7500 0.5000 0.0000
vt 0.7500 0.7500 0.0000
vt 1.0000 0.7500 0.0000
vt 1.0000 1.0000 0.0000
vt 0.7500 1.0000 0.0000
# 25 texture coords

g Object003
usemtl wire_153228184
s 1
f 1/1/1 2/2/1 3/3/1 4/4/1 
f 4/4/1 5/5/1 6/6/1 1/1/1 
f 6/6/1 7/7/1 8/8/1 1/1/1 
f 8/8/1 9/9/1 2/2/1 1/1/1 
f 10/10/1 11/11/1 12/12/1 13/13/1 
f 13/13/1 14/14/1 15/15/1 10/10/1 
f 15/15/1 7/7/1 6/6/1 10/10/1 
f 6/6/1 5/5/1 11/11/1 10/10/1 
f 16/16/1 17/17/1 18/18/1 19/19/1 
f 19/19/1 20/20/1 21/21/1 16/16/1 
f 21/21/1 7/7/1 15/15/1 16/16/1 
f 15/15/1 14/14/1 17/17/1 16/16/1 
f 22/22/1 23/23/1 24/24/1 25/25/1 
f 25/25/1 9/9/1 8/8/1 22/22/1 
f 8/8/1 7/7/1 21/21/1 22/22/1 
f 21/21/1 20/20/1 23/23/1 22/22/1 
s off
f 26/4/1 27/5/1 5/5/1 4/4/1 
f 28/11/1 11/11/1 5/5/1 27/5/1 
f 4/4/2 3/3/2 29/3/2 30/4/2 
f 3/3/3 2/2/3 31/2/3 29/3/3 
f 2/2/4 9/9/4 32/9/4 31/2/4 
f 13/13/5 12/12/5 33/12/5 34/13/5 
f 12/12/6 11/11/6 35/11/6 33/12/6 
f 14/14/7 13/13/7 34/13/7 36/14/7 
f 19/19/8 18/18/8 37/18/8 38/19/8 
f 18/18/9 17/17/9 39/17/9 37/18/9 
f 20/20/10 19/19/10 38/19/10 40/20/10 
f 17/17/11 14/14/11 36/14/11 39/17/11 
f 25/25/12 24/24/12 41/24/12 42/25/12 
f 24/24/13 23/23/13 43/23/13 41/24/13 
f 9/9/14 25/25/14 42/25/14 32/9/14 
f 23/23/10 20/20/10 40/20/10 43/23/10 
f 26/4/15 4/4/15 30/4/15 44/4/15 
f 27/5/16 26/4/16 44/4/16 45/5/16 
f 28/11/16 27/5/16 45/5/16 46/11/16 
f 11/11/17 28/11/17 46/11/17 35/11/17 
s 1
f 47/1/1 31/2/1 29/3/1 30/4/1 
f 30/4/1 48/5/1 49/6/1 47/1/1 
f 49/6/1 50/7/1 51/8/1 47/1/1 
f 51/8/1 32/9/1 31/2/1 47/1/1 
f 52/10/1 35/11/1 33/12/1 34/13/1 
f 34/13/1 36/14/1 53/15/1 52/10/1 
f 53/15/1 50/7/1 49/6/1 52/10/1 
f 49/6/1 48/5/1 35/11/1 52/10/1 
f 54/16/1 39/17/1 37/18/1 38/19/1 
f 38/19/1 40/20/1 55/21/1 54/16/1 
f 55/21/1 50/7/1 53/15/1 54/16/1 
f 53/15/1 36/14/1 39/17/1 54/16/1 
f 56/22/1 43/23/1 41/24/1 42/25/1 
f 42/25/1 32/9/1 51/8/1 56/22/1 
f 51/8/1 50/7/1 55/21/1 56/22/1 
f 55/21/1 40/20/1 43/23/1 56/22/1 
s off
f 44/4/1 45/5/1 48/5/1 30/4/1 
f 46/11/1 35/11/1 48/5/1 45/5/1 
# 54 polygons

