# 3ds Max Wavefront OBJ Exporter v0.97b - (c)2007 guruware
# File Created: 14.10.2015 11:22:58

mtllib ContainerBack.mtl

#
# object Object001
#

v  -9.3328 -93.2821 4.1370
v  -9.3328 140.7179 4.1368
v  -20.2558 140.7179 4.1368
v  -20.2558 -93.2821 4.1368
v  212.2056 -93.2821 4.1370
v  212.2056 140.7179 4.1368
v  201.2825 140.7179 4.1368
v  201.2825 -93.2821 4.1370
v  175.2827 -93.2821 4.1370
v  175.2827 140.7179 4.1368
v  164.3596 140.7179 4.1368
v  164.3596 -93.2821 4.1370
v  138.3596 -93.2821 4.1370
v  138.3596 140.7179 4.1368
v  127.4364 140.7179 4.1368
v  127.4364 -93.2821 4.1370
v  101.4364 -93.2821 4.1370
v  101.4364 140.7179 4.1368
v  90.5135 140.7179 4.1368
v  90.5135 -93.2821 4.1370
v  64.5135 -93.2821 4.1370
v  64.5135 140.7179 4.1368
v  53.5903 140.7179 4.1368
v  53.5903 -93.2821 4.1370
v  27.5903 -93.2821 4.1370
v  27.5903 140.7179 4.1368
v  16.6672 140.7179 4.1368
v  16.6672 -93.2821 4.1370
v  -241.7942 140.7179 4.1368
v  -241.7942 -93.2821 4.1368
v  -230.8711 -93.2821 4.1368
v  -230.8711 140.7179 4.1368
v  -94.1019 140.7179 4.1368
v  -94.1019 -93.2821 4.1368
v  -83.1789 -93.2821 4.1368
v  -83.1788 140.7179 4.1368
v  -57.1789 140.7179 4.1368
v  -57.1789 -93.2821 4.1368
v  -46.2558 -93.2821 4.1368
v  -46.2558 140.7179 4.1368
v  -193.9481 140.7179 4.1368
v  -204.8711 140.7179 4.1368
v  -204.8711 80.0512 4.1368
v  -193.9481 80.0512 4.1368
v  -204.8711 -93.2821 4.1368
v  -193.9481 -93.2821 4.1368
v  -193.9481 -32.6154 4.1368
v  -204.8711 -32.6154 4.1368
v  -157.0250 140.7179 4.1368
v  -167.9481 140.7179 4.1368
v  -167.9481 80.0512 4.1368
v  -157.0250 80.0512 4.1368
v  -167.9481 -93.2821 4.1368
v  -157.0250 -93.2821 4.1368
v  -157.0250 -32.6154 4.1368
v  -167.9481 -32.6154 4.1368
v  -120.1019 140.7179 4.1368
v  -131.0250 140.7179 4.1368
v  -131.0250 80.0512 4.1368
v  -120.1019 80.0512 4.1368
v  -131.0250 -93.2821 4.1368
v  -120.1019 -93.2821 4.1368
v  -120.1019 -32.6154 4.1368
v  -131.0250 -32.6154 4.1368
v  3.6672 153.7179 8.1369
v  -33.2558 153.7179 8.1369
v  -25.2558 145.7179 8.1369
v  -4.3328 145.7179 8.1369
v  3.6672 -106.2821 8.1370
v  -4.3328 -98.2821 8.1370
v  -33.2558 -106.2821 8.1370
v  -25.2558 -98.2821 8.1370
v  225.2056 153.7179 8.1369
v  188.2827 153.7179 8.1369
v  196.2825 145.7179 8.1369
v  217.2056 145.7179 8.1369
v  225.2056 -106.2821 8.1370
v  217.2056 -98.2821 8.1370
v  188.2827 -106.2821 8.1370
v  196.2825 -98.2821 8.1370
v  151.3596 153.7179 8.1369
v  159.3596 145.7179 8.1369
v  180.2827 145.7179 8.1369
v  180.2827 -98.2821 8.1370
v  151.3596 -106.2821 8.1370
v  159.3596 -98.2821 8.1370
v  114.4364 153.7179 8.1369
v  122.4364 145.7179 8.1369
v  143.3596 145.7179 8.1369
v  143.3596 -98.2821 8.1370
v  114.4364 -106.2821 8.1370
v  122.4364 -98.2821 8.1370
v  77.5135 153.7179 8.1369
v  85.5135 145.7179 8.1369
v  106.4364 145.7179 8.1369
v  106.4364 -98.2821 8.1370
v  77.5135 -106.2821 8.1370
v  85.5135 -98.2821 8.1370
v  40.5903 153.7179 8.1369
v  48.5903 145.7179 8.1369
v  69.5135 145.7179 8.1369
v  69.5135 -98.2821 8.1370
v  40.5903 -106.2821 8.1370
v  48.5903 -98.2821 8.1370
v  11.6672 145.7179 8.1369
v  32.5903 145.7179 8.1369
v  32.5903 -98.2821 8.1370
v  11.6672 -98.2821 8.1370
v  -254.7942 -106.2821 8.1369
v  -217.8711 -106.2821 8.1369
v  -225.8711 -98.2821 8.1369
v  -246.7942 -98.2821 8.1369
v  -254.7942 153.7179 8.1367
v  -246.7942 145.7179 8.1369
v  -217.8711 153.7179 8.1369
v  -225.8711 145.7179 8.1369
v  -217.8711 -19.6154 8.1369
v  -217.8711 67.0512 8.1369
v  -107.1019 -106.2821 8.1370
v  -70.1789 -106.2821 8.1370
v  -78.1789 -98.2821 8.1370
v  -99.1019 -98.2821 8.1370
v  -99.1019 145.7179 8.1369
v  -107.1019 153.7179 8.1369
v  -107.1019 67.0512 8.1369
v  -107.1019 -19.6154 8.1369
v  -70.1788 153.7179 8.1369
v  -78.1788 145.7179 8.1369
v  -41.2558 -98.2821 8.1370
v  -62.1789 -98.2821 8.1370
v  -62.1789 145.7179 8.1369
v  -41.2558 145.7179 8.1369
v  -209.8711 75.0512 8.1369
v  -209.8711 145.7179 8.1369
v  -180.9481 153.7179 8.1369
v  -188.9481 145.7179 8.1369
v  -180.9481 67.0512 8.1369
v  -188.9481 75.0512 8.1369
v  -180.9481 -106.2821 8.1369
v  -180.9481 -19.6154 8.1369
v  -188.9481 -27.6154 8.1369
v  -188.9481 -98.2821 8.1369
v  -209.8711 -98.2821 8.1369
v  -209.8711 -27.6154 8.1369
v  -172.9481 75.0512 8.1369
v  -172.9481 145.7179 8.1369
v  -144.0250 153.7179 8.1369
v  -152.0250 145.7179 8.1369
v  -144.0250 67.0512 8.1369
v  -152.0250 75.0512 8.1369
v  -144.0250 -106.2821 8.1369
v  -144.0250 -19.6154 8.1369
v  -152.0250 -27.6154 8.1369
v  -152.0250 -98.2821 8.1369
v  -172.9481 -98.2821 8.1369
v  -172.9481 -27.6154 8.1369
v  -136.0250 75.0512 8.1369
v  -136.0250 145.7179 8.1369
v  -115.1019 145.7179 8.1369
v  -115.1019 75.0512 8.1369
v  -115.1019 -27.6154 8.1369
v  -115.1019 -98.2821 8.1369
v  -136.0250 -98.2821 8.1369
v  -136.0250 -27.6154 8.1369
v  -212.8711 -14.6154 8.1369
v  -212.8711 62.0512 8.1369
v  -112.1019 62.0512 8.1369
v  -112.1019 -14.6154 8.1369
v  -112.1019 -14.6154 6.1368
v  -212.8711 -14.6154 6.1368
v  -212.8711 62.0512 6.1368
v  -112.1019 62.0512 6.1368
v  3.6672 153.7179 2.0000
v  -33.2558 153.7179 2.0000
v  -33.2558 -106.2821 2.0001
v  3.6672 -106.2821 2.0001
v  225.2056 153.7179 2.0000
v  188.2827 153.7179 2.0000
v  225.2056 -106.2821 2.0001
v  188.2827 -106.2821 2.0001
v  151.3596 153.7179 2.0000
v  151.3596 -106.2821 2.0001
v  114.4364 153.7179 2.0000
v  114.4364 -106.2821 2.0001
v  77.5135 153.7179 2.0000
v  77.5135 -106.2821 2.0001
v  40.5903 153.7179 2.0000
v  40.5903 -106.2821 2.0001
v  -254.7942 -106.2821 2.0000
v  -217.8711 -106.2821 2.0000
v  -254.7942 153.7179 1.9998
v  -217.8711 153.7179 2.0000
v  -107.1019 -106.2821 2.0001
v  -70.1789 -106.2821 2.0001
v  -70.1788 153.7179 2.0000
v  -107.1019 153.7179 2.0000
v  -180.9481 153.7179 2.0000
v  -180.9481 -106.2821 2.0000
v  -144.0250 153.7179 2.0000
v  -144.0250 -106.2821 2.0000
v  -112.1019 -14.6154 -0.0001
v  -212.8711 -14.6154 -0.0001
v  -212.8711 62.0512 -0.0001
v  -112.1019 62.0512 -0.0001
# 204 vertices

vn -0.0000 0.0000 1.0000
vn -0.0000 -0.6247 0.7809
vn -0.6247 0.0000 0.7809
vn -0.0000 0.6247 0.7809
vn 0.6247 0.0000 0.7809
vn 0.0000 1.0000 -0.0000
vn 1.0000 0.0000 0.0000
vn -0.0000 -1.0000 0.0000
vn -1.0000 0.0000 -0.0000
# 9 vertex normals

vt 0.5385 1.0000 0.0000
vt 0.5385 0.0000 0.0000
vt 0.4615 0.0000 0.0000
vt 0.4615 1.0000 0.0000
vt 1.0000 1.0000 0.0000
vt 1.0000 0.0000 0.0000
vt 0.9231 0.0000 0.0000
vt 0.9231 1.0000 0.0000
vt 0.8462 0.0000 0.0000
vt 0.8462 1.0000 0.0000
vt 0.7692 0.0000 0.0000
vt 0.7692 1.0000 0.0000
vt 0.6923 0.0000 0.0000
vt 0.6923 1.0000 0.0000
vt 0.6154 0.0000 0.0000
vt 0.6154 1.0000 0.0000
vt 0.0000 0.0000 0.0000
vt 0.0000 1.0000 0.0000
vt 0.0769 1.0000 0.0000
vt 0.0769 0.0000 0.0000
vt 0.3077 0.0000 0.0000
vt 0.3077 1.0000 0.0000
vt 0.3846 1.0000 0.0000
vt 0.3846 0.0000 0.0000
vt 0.1538 0.0000 0.0000
vt 0.0769 0.3333 0.0000
vt 0.1538 0.3333 0.0000
vt 0.1538 1.0000 0.0000
vt 0.1538 0.6667 0.0000
vt 0.0769 0.6667 0.0000
vt 0.2308 0.0000 0.0000
vt 0.2308 0.3333 0.0000
vt 0.2308 1.0000 0.0000
vt 0.2308 0.6667 0.0000
vt 0.3077 0.3333 0.0000
vt 0.3077 0.6667 0.0000
# 36 texture coords

g Object001
usemtl _ContainerBack_ContainerBackwire_008061138
s 1
f 1/1/1 2/2/1 3/3/1 4/4/1 
f 5/5/1 6/6/1 7/7/1 8/8/1 
f 9/8/1 10/7/1 11/9/1 12/10/1 
f 13/10/1 14/9/1 15/11/1 16/12/1 
f 17/12/1 18/11/1 19/13/1 20/14/1 
f 21/14/1 22/13/1 23/15/1 24/16/1 
f 25/16/1 26/15/1 27/2/1 28/1/1 
f 29/17/1 30/18/1 31/19/1 32/20/1 
f 33/21/1 34/22/1 35/23/1 36/24/1 
f 37/24/1 38/23/1 39/4/1 40/3/1 
f 41/25/1 42/20/1 43/26/1 44/27/1 
f 45/19/1 46/28/1 47/29/1 48/30/1 
f 49/31/1 50/25/1 51/27/1 52/32/1 
f 53/28/1 54/33/1 55/34/1 56/29/1 
f 57/21/1 58/31/1 59/32/1 60/35/1 
f 61/33/1 62/22/1 63/36/1 64/34/1 
s off
f 65/2/1 66/3/1 67/3/1 68/2/1 
f 69/1/1 65/2/1 68/2/1 70/1/1 
f 71/4/1 69/1/1 70/1/1 72/4/1 
f 66/3/1 71/4/1 72/4/1 67/3/1 
f 73/6/1 74/7/1 75/7/1 76/6/1 
f 77/5/1 73/6/1 76/6/1 78/5/1 
f 79/8/1 77/5/1 78/5/1 80/8/1 
f 74/7/1 79/8/1 80/8/1 75/7/1 
f 74/7/1 81/9/1 82/9/1 83/7/1 
f 79/8/1 74/7/1 83/7/1 84/8/1 
f 85/10/1 79/8/1 84/8/1 86/10/1 
f 81/9/1 85/10/1 86/10/1 82/9/1 
f 81/9/1 87/11/1 88/11/1 89/9/1 
f 85/10/1 81/9/1 89/9/1 90/10/1 
f 91/12/1 85/10/1 90/10/1 92/12/1 
f 87/11/1 91/12/1 92/12/1 88/11/1 
f 87/11/1 93/13/1 94/13/1 95/11/1 
f 91/12/1 87/11/1 95/11/1 96/12/1 
f 97/14/1 91/12/1 96/12/1 98/14/1 
f 93/13/1 97/14/1 98/14/1 94/13/1 
f 93/13/1 99/15/1 100/15/1 101/13/1 
f 97/14/1 93/13/1 101/13/1 102/14/1 
f 103/16/1 97/14/1 102/14/1 104/16/1 
f 99/15/1 103/16/1 104/16/1 100/15/1 
f 99/15/1 65/2/1 105/2/1 106/15/1 
f 103/16/1 99/15/1 106/15/1 107/16/1 
f 69/1/1 103/16/1 107/16/1 108/1/1 
f 65/2/1 69/1/1 108/1/1 105/2/1 
f 109/18/1 110/19/1 111/19/1 112/18/1 
f 113/17/1 109/18/1 112/18/1 114/17/1 
f 115/20/1 113/17/1 114/17/1 116/20/1 
f 111/19/1 110/19/1 117/30/1 118/26/1 
f 116/20/1 111/19/1 118/26/1 115/20/1 
f 119/22/1 120/23/1 121/23/1 122/22/1 
f 123/21/1 124/21/1 125/35/1 126/36/1 
f 122/22/1 123/21/1 126/36/1 119/22/1 
f 127/24/1 124/21/1 123/21/1 128/24/1 
f 120/23/1 127/24/1 128/24/1 121/23/1 
f 120/23/1 71/4/1 129/4/1 130/23/1 
f 127/24/1 120/23/1 130/23/1 131/24/1 
f 66/3/1 127/24/1 131/24/1 132/3/1 
f 71/4/1 66/3/1 132/3/1 129/4/1 
f 115/20/1 118/26/1 133/26/1 134/20/1 
f 135/25/1 115/20/1 134/20/1 136/25/1 
f 137/27/1 135/25/1 136/25/1 138/27/1 
f 118/26/1 137/27/1 138/27/1 133/26/1 
f 139/28/1 140/29/1 141/29/1 142/28/1 
f 110/19/1 139/28/1 142/28/1 143/19/1 
f 117/30/1 110/19/1 143/19/1 144/30/1 
f 140/29/1 117/30/1 144/30/1 141/29/1 
f 135/25/1 137/27/1 145/27/1 146/25/1 
f 147/31/1 135/25/1 146/25/1 148/31/1 
f 149/32/1 147/31/1 148/31/1 150/32/1 
f 137/27/1 149/32/1 150/32/1 145/27/1 
f 151/33/1 152/34/1 153/34/1 154/33/1 
f 139/28/1 151/33/1 154/33/1 155/28/1 
f 140/29/1 139/28/1 155/28/1 156/29/1 
f 152/34/1 140/29/1 156/29/1 153/34/1 
f 147/31/1 149/32/1 157/32/1 158/31/1 
f 124/21/1 147/31/1 158/31/1 159/21/1 
f 125/35/1 124/21/1 159/21/1 160/35/1 
f 149/32/1 125/35/1 160/35/1 157/32/1 
f 119/22/1 126/36/1 161/36/1 162/22/1 
f 151/33/1 119/22/1 162/22/1 163/33/1 
f 152/34/1 151/33/1 163/33/1 164/34/1 
f 126/36/1 152/34/1 164/34/1 161/36/1 
f 68/2/2 67/3/2 3/3/2 2/2/2 
f 70/1/3 68/2/3 2/2/3 1/1/3 
f 72/4/4 70/1/4 1/1/4 4/4/4 
f 67/3/5 72/4/5 4/4/5 3/3/5 
f 76/6/2 75/7/2 7/7/2 6/6/2 
f 78/5/3 76/6/3 6/6/3 5/5/3 
f 80/8/4 78/5/4 5/5/4 8/8/4 
f 75/7/5 80/8/5 8/8/5 7/7/5 
f 83/7/2 82/9/2 11/9/2 10/7/2 
f 84/8/3 83/7/3 10/7/3 9/8/3 
f 86/10/4 84/8/4 9/8/4 12/10/4 
f 82/9/5 86/10/5 12/10/5 11/9/5 
f 89/9/2 88/11/2 15/11/2 14/9/2 
f 90/10/3 89/9/3 14/9/3 13/10/3 
f 92/12/4 90/10/4 13/10/4 16/12/4 
f 88/11/5 92/12/5 16/12/5 15/11/5 
f 95/11/2 94/13/2 19/13/2 18/11/2 
f 96/12/3 95/11/3 18/11/3 17/12/3 
f 98/14/4 96/12/4 17/12/4 20/14/4 
f 94/13/5 98/14/5 20/14/5 19/13/5 
f 101/13/2 100/15/2 23/15/2 22/13/2 
f 102/14/3 101/13/3 22/13/3 21/14/3 
f 104/16/4 102/14/4 21/14/4 24/16/4 
f 100/15/5 104/16/5 24/16/5 23/15/5 
f 106/15/2 105/2/2 27/2/2 26/15/2 
f 107/16/3 106/15/3 26/15/3 25/16/3 
f 108/1/4 107/16/4 25/16/4 28/1/4 
f 105/2/5 108/1/5 28/1/5 27/2/5 
f 112/18/4 111/19/4 31/19/4 30/18/4 
f 114/17/5 112/18/5 30/18/5 29/17/5 
f 116/20/2 114/17/2 29/17/2 32/20/2 
f 111/19/3 116/20/3 32/20/3 31/19/3 
f 122/22/4 121/23/4 35/23/4 34/22/4 
f 123/21/5 122/22/5 34/22/5 33/21/5 
f 128/24/2 123/21/2 33/21/2 36/24/2 
f 121/23/3 128/24/3 36/24/3 35/23/3 
f 130/23/4 129/4/4 39/4/4 38/23/4 
f 131/24/5 130/23/5 38/23/5 37/24/5 
f 132/3/2 131/24/2 37/24/2 40/3/2 
f 129/4/3 132/3/3 40/3/3 39/4/3 
f 134/20/5 133/26/5 43/26/5 42/20/5 
f 136/25/2 134/20/2 42/20/2 41/25/2 
f 138/27/3 136/25/3 41/25/3 44/27/3 
f 133/26/4 138/27/4 44/27/4 43/26/4 
f 142/28/3 141/29/3 47/29/3 46/28/3 
f 143/19/4 142/28/4 46/28/4 45/19/4 
f 144/30/5 143/19/5 45/19/5 48/30/5 
f 141/29/2 144/30/2 48/30/2 47/29/2 
f 146/25/5 145/27/5 51/27/5 50/25/5 
f 148/31/2 146/25/2 50/25/2 49/31/2 
f 150/32/3 148/31/3 49/31/3 52/32/3 
f 145/27/4 150/32/4 52/32/4 51/27/4 
f 154/33/3 153/34/3 55/34/3 54/33/3 
f 155/28/4 154/33/4 54/33/4 53/28/4 
f 156/29/5 155/28/5 53/28/5 56/29/5 
f 153/34/2 156/29/2 56/29/2 55/34/2 
f 158/31/5 157/32/5 59/32/5 58/31/5 
f 159/21/2 158/31/2 58/31/2 57/21/2 
f 160/35/3 159/21/3 57/21/3 60/35/3 
f 157/32/4 160/35/4 60/35/4 59/32/4 
f 162/22/3 161/36/3 63/36/3 62/22/3 
f 163/33/4 162/22/4 62/22/4 61/33/4 
f 164/34/5 163/33/5 61/33/5 64/34/5 
f 161/36/2 164/34/2 64/34/2 63/36/2 
f 118/26/1 117/30/1 165/30/1 166/26/1 
f 167/35/1 125/35/1 149/32/1 137/27/1 
f 166/26/1 167/35/1 137/27/1 118/26/1 
f 126/36/1 125/35/1 167/35/1 168/36/1 
f 165/30/1 117/30/1 140/29/1 152/34/1 
f 168/36/1 165/30/1 152/34/1 126/36/1 
f 165/30/6 168/36/6 169/36/6 170/30/6 
f 166/26/7 165/30/7 170/30/7 171/26/7 
f 167/35/8 166/26/8 171/26/8 172/35/8 
f 168/36/9 167/35/9 172/35/9 169/36/9 
f 173/2/6 174/3/6 66/3/6 65/2/6 
f 175/4/8 176/1/8 69/1/8 71/4/8 
f 177/6/6 178/7/6 74/7/6 73/6/6 
f 179/5/7 177/6/7 73/6/7 77/5/7 
f 180/8/8 179/5/8 77/5/8 79/8/8 
f 178/7/6 181/9/6 81/9/6 74/7/6 
f 182/10/8 180/8/8 79/8/8 85/10/8 
f 181/9/6 183/11/6 87/11/6 81/9/6 
f 184/12/8 182/10/8 85/10/8 91/12/8 
f 183/11/6 185/13/6 93/13/6 87/11/6 
f 186/14/8 184/12/8 91/12/8 97/14/8 
f 185/13/6 187/15/6 99/15/6 93/13/6 
f 188/16/8 186/14/8 97/14/8 103/16/8 
f 187/15/6 173/2/6 65/2/6 99/15/6 
f 176/1/8 188/16/8 103/16/8 69/1/8 
f 189/18/8 190/19/8 110/19/8 109/18/8 
f 191/17/9 189/18/9 109/18/9 113/17/9 
f 192/20/6 191/17/6 113/17/6 115/20/6 
f 193/22/8 194/23/8 120/23/8 119/22/8 
f 195/24/6 196/21/6 124/21/6 127/24/6 
f 194/23/8 175/4/8 71/4/8 120/23/8 
f 174/3/6 195/24/6 127/24/6 66/3/6 
f 197/25/6 192/20/6 115/20/6 135/25/6 
f 190/19/8 198/28/8 139/28/8 110/19/8 
f 199/31/6 197/25/6 135/25/6 147/31/6 
f 198/28/8 200/33/8 151/33/8 139/28/8 
f 196/21/6 199/31/6 147/31/6 124/21/6 
f 200/33/8 193/22/8 119/22/8 151/33/8 
f 201/36/6 202/30/6 170/30/6 169/36/6 
f 202/30/7 203/26/7 171/26/7 170/30/7 
f 203/26/8 204/35/8 172/35/8 171/26/8 
f 204/35/9 201/36/9 169/36/9 172/35/9 
# 188 polygons

