# 3ds Max Wavefront OBJ Exporter v0.97b - (c)2007 guruware
# File Created: 08.10.2015 12:51:24

mtllib ContainerFloor.mtl

#
# object Plane003
#

v  -300.0000 -131.3668 69.6769
v  -300.0000 -131.3668 549.6769
v  300.0000 -131.3668 549.6769
v  300.0000 -131.3668 69.6769
# 4 vertices

vn 0.0000 1.0000 -0.0000
# 1 vertex normals

vt 0.0000 1.0000 0.0000
vt 0.0000 0.0000 0.0000
vt 1.0000 0.0000 0.0000
vt 1.0000 1.0000 0.0000
# 4 texture coords

g Plane003
usemtl wire_153228153
s 1
f 1/1/1 2/2/1 3/3/1 4/4/1 
# 1 polygons

