# 3ds Max Wavefront OBJ Exporter v0.97b - (c)2007 guruware
# File Created: 08.10.2015 12:23:17

mtllib ContainerFront.mtl

#
# object Plane001
#

v  549.0472 -117.0000 307.4623
v  549.0472 117.0000 307.4623
v  549.0472 117.0000 296.5392
v  549.0472 -117.0000 296.5392
v  549.0472 -117.0000 529.0008
v  549.0472 117.0000 529.0008
v  549.0472 117.0000 518.0777
v  549.0472 -117.0000 518.0777
v  549.0472 -117.0000 344.3854
v  549.0472 117.0000 344.3854
v  549.0472 117.0000 333.4623
v  549.0472 -117.0000 333.4623
v  549.0472 117.0000 75.0008
v  549.0472 -117.0000 75.0008
v  549.0472 -117.0000 85.9239
v  549.0472 117.0000 85.9239
v  549.0472 117.0000 222.6931
v  549.0472 -117.0000 222.6931
v  549.0472 -117.0000 233.6162
v  549.0472 117.0000 233.6161
v  549.0472 117.0000 259.6161
v  549.0472 -117.0000 259.6162
v  549.0472 -117.0000 270.5392
v  549.0472 117.0000 270.5392
v  549.0472 -117.0000 111.9239
v  549.0472 -117.0000 122.8470
v  549.0472 -56.3333 122.8469
v  549.0472 -56.3333 111.9239
v  549.0472 117.0000 122.8469
v  549.0472 117.0000 111.9239
v  549.0472 56.3333 111.9239
v  549.0472 56.3333 122.8469
v  549.0472 -117.0000 148.8470
v  549.0472 -117.0000 159.7700
v  549.0472 -56.3333 159.7700
v  549.0472 -56.3333 148.8469
v  549.0472 117.0000 159.7700
v  549.0472 117.0000 148.8469
v  549.0472 56.3333 148.8469
v  549.0472 56.3333 159.7700
v  549.0472 -117.0000 185.7700
v  549.0472 -117.0000 196.6931
v  549.0472 -56.3333 196.6931
v  549.0472 -56.3333 185.7700
v  549.0472 117.0000 196.6931
v  549.0472 117.0000 185.7700
v  549.0472 56.3333 185.7700
v  549.0472 56.3333 196.6931
v  545.0472 -130.0000 283.5392
v  545.0472 -130.0000 320.4623
v  545.0472 -122.0000 312.4623
v  545.0472 -122.0000 291.5392
v  545.0472 130.0000 320.4623
v  545.0472 122.0000 312.4623
v  545.0472 130.0000 283.5392
v  545.0472 122.0000 291.5392
v  545.0472 -130.0000 505.0777
v  545.0472 -130.0000 542.0008
v  545.0472 -122.0000 534.0008
v  545.0472 -122.0000 513.0777
v  545.0471 130.0000 542.0008
v  545.0472 122.0000 534.0008
v  545.0472 130.0000 505.0777
v  545.0472 122.0000 513.0777
v  545.0472 122.0000 497.0777
v  545.0472 89.6257 497.0777
v  545.0472 8.2923 497.0777
v  545.0472 -122.0000 497.0777
v  545.0472 -130.0000 357.3854
v  545.0472 -122.0000 365.3854
v  545.0472 122.0000 365.3854
v  545.0472 130.0000 357.3854
v  545.0472 8.2923 365.3854
v  545.0472 89.6256 365.3854
v  545.0472 -122.0000 349.3854
v  545.0472 -122.0000 328.4623
v  545.0472 122.0000 349.3854
v  545.0472 122.0000 328.4623
v  545.0472 130.0000 98.9239
v  545.0472 130.0000 62.0008
v  545.0472 122.0000 70.0008
v  545.0472 122.0000 90.9239
v  545.0472 -130.0000 62.0008
v  545.0472 -122.0000 70.0008
v  545.0472 -130.0000 98.9239
v  545.0472 -122.0000 90.9239
v  545.0472 43.3333 98.9239
v  545.0472 -43.3333 98.9239
v  545.0472 130.0000 246.6161
v  545.0472 130.0000 209.6931
v  545.0472 122.0000 217.6931
v  545.0472 122.0000 238.6161
v  545.0472 -43.3333 209.6931
v  545.0472 -130.0000 209.6931
v  545.0472 -122.0000 217.6931
v  545.0472 43.3333 209.6931
v  545.0472 -130.0000 246.6162
v  545.0472 -122.0000 238.6162
v  545.0472 122.0000 254.6161
v  545.0472 122.0000 275.5392
v  545.0472 -122.0000 254.6162
v  545.0472 -122.0000 275.5392
v  545.0472 -122.0000 106.9239
v  545.0472 -51.3333 106.9239
v  545.0472 -130.0000 135.8470
v  545.0472 -122.0000 127.8470
v  545.0472 -43.3333 135.8469
v  545.0472 -51.3333 127.8469
v  545.0472 43.3333 135.8469
v  545.0472 130.0000 135.8469
v  545.0472 122.0000 127.8469
v  545.0472 51.3333 127.8469
v  545.0472 122.0000 106.9239
v  545.0472 51.3333 106.9239
v  545.0472 -122.0000 143.8470
v  545.0472 -51.3333 143.8469
v  545.0472 -130.0000 172.7700
v  545.0472 -122.0000 164.7700
v  545.0472 -43.3333 172.7700
v  545.0472 -51.3333 164.7700
v  545.0472 43.3333 172.7700
v  545.0472 130.0000 172.7700
v  545.0472 122.0000 164.7700
v  545.0472 51.3333 164.7700
v  545.0472 122.0000 143.8469
v  545.0472 51.3333 143.8469
v  545.0472 -122.0000 180.7700
v  545.0472 -51.3333 180.7700
v  545.0472 -122.0000 201.6931
v  545.0472 -51.3333 201.6931
v  545.0472 122.0000 201.6931
v  545.0472 51.3333 201.6931
v  545.0472 122.0000 180.7700
v  545.0472 51.3333 180.7700
v  545.0472 -38.3333 103.9239
v  545.0472 38.3333 103.9239
v  545.0472 -38.3333 204.6931
v  545.0472 38.3333 204.6931
v  547.0472 38.3333 103.9239
v  547.0472 38.3333 204.6931
v  547.0472 -38.3333 103.9239
v  547.0472 -38.3333 204.6931
v  545.0472 8.2923 467.2076
v  545.0472 8.2923 395.2556
v  545.0472 89.6256 395.2556
v  545.0472 89.6256 467.2076
v  545.0472 13.5805 461.5110
v  545.0472 13.5805 400.9522
v  545.0472 84.3375 461.5110
v  545.0472 84.3375 400.9522
# 150 vertices

vn -1.0000 -0.0000 -0.0000
vn -1.0000 -0.0000 0.0000
vn -0.7809 0.6247 -0.0000
vn -0.7809 -0.0000 -0.6247
vn -0.7809 -0.6247 -0.0000
vn -0.7809 -0.0000 0.6247
vn -0.7809 0.0000 0.6247
vn 0.0000 -1.0000 0.0000
vn -0.0000 -0.0000 1.0000
vn -0.0000 1.0000 -0.0000
vn 0.0000 0.0000 -1.0000
# 11 vertex normals

vt 0.5385 0.0000 0.0000
vt 0.5385 1.0000 0.0000
vt 0.4615 1.0000 0.0000
vt 0.4615 0.0000 0.0000
vt 1.0000 0.0000 0.0000
vt 1.0000 1.0000 0.0000
vt 0.9231 1.0000 0.0000
vt 0.9231 0.0000 0.0000
vt 0.6154 0.0000 0.0000
vt 0.6154 1.0000 0.0000
vt 0.0000 1.0000 0.0000
vt 0.0000 0.0000 0.0000
vt 0.0769 0.0000 0.0000
vt 0.0769 1.0000 0.0000
vt 0.3077 1.0000 0.0000
vt 0.3077 0.0000 0.0000
vt 0.3846 0.0000 0.0000
vt 0.3846 1.0000 0.0000
vt 0.1538 0.0000 0.0000
vt 0.1538 0.3333 0.0000
vt 0.0769 0.3333 0.0000
vt 0.1538 1.0000 0.0000
vt 0.0769 0.6667 0.0000
vt 0.1538 0.6667 0.0000
vt 0.2308 0.0000 0.0000
vt 0.2308 0.3333 0.0000
vt 0.2308 1.0000 0.0000
vt 0.2308 0.6667 0.0000
vt 0.3077 0.3333 0.0000
vt 0.3077 0.6667 0.0000
vt 0.9231 0.6667 0.0000
vt 0.9231 0.3333 0.0000
vt 0.6154 0.3333 0.0000
vt 0.6154 0.6667 0.0000
vt 0.8462 1.0000 0.0000
vt 0.8462 0.0000 0.0000
vt 0.8718 0.0000 0.0000
vt 0.8547 0.2222 0.0000
vt 0.8376 0.4444 0.0000
vt 0.8205 0.6667 0.0000
vt 0.7692 0.0000 0.0000
vt 0.7949 0.3333 0.0000
vt 0.8291 0.2222 0.0000
vt 0.8632 0.1111 0.0000
vt 0.8974 0.0000 0.0000
# 45 texture coords

g Plane001
usemtl wire_008061138
s 1
f 1/1/1 2/2/1 3/3/1 4/4/1 
f 5/5/1 6/6/1 7/7/1 8/8/1 
f 9/9/1 10/10/1 11/2/1 12/1/1 
f 13/11/1 14/12/1 15/13/1 16/14/1 
f 17/15/1 18/16/1 19/17/1 20/18/1 
f 21/18/1 22/17/1 23/4/1 24/3/1 
f 25/13/1 26/19/1 27/20/1 28/21/1 
f 29/22/1 30/14/1 31/23/1 32/24/1 
f 33/19/1 34/25/1 35/26/1 36/20/1 
f 37/27/1 38/22/1 39/24/1 40/28/1 
f 41/25/1 42/16/1 43/29/1 44/26/1 
f 45/15/1 46/27/1 47/28/1 48/30/1 
s off
f 49/4/1 50/1/1 51/1/1 52/4/1 
f 50/1/1 53/2/1 54/2/1 51/1/1 
f 53/2/1 55/3/1 56/3/1 54/2/1 
f 55/3/1 49/4/1 52/4/1 56/3/1 
f 57/8/1 58/5/1 59/5/1 60/8/1 
f 58/5/1 61/6/1 62/6/1 59/5/1 
f 61/6/1 63/7/1 64/7/1 62/6/1 
f 63/7/1 57/8/1 60/8/1 64/7/1 
f 57/8/1 63/7/1 65/7/1 66/31/1 
f 57/8/1 66/31/1 67/32/1 68/8/1 
f 69/9/1 57/8/1 68/8/1 70/9/1 
f 71/10/1 65/7/1 63/7/1 72/10/1 
f 72/10/2 69/9/2 70/9/2 73/33/2 
f 72/10/2 73/33/2 74/34/2 71/10/2 
f 50/1/1 69/9/1 75/9/1 76/1/1 
f 69/9/1 72/10/1 77/10/1 75/9/1 
f 72/10/1 53/2/1 78/2/1 77/10/1 
f 53/2/1 50/1/1 76/1/1 78/2/1 
f 79/14/1 80/11/1 81/11/1 82/14/1 
f 80/11/1 83/12/1 84/12/1 81/11/1 
f 83/12/1 85/13/1 86/13/1 84/12/1 
f 87/23/1 79/14/1 82/14/1 88/21/1 
f 85/13/1 88/21/1 82/14/1 86/13/1 
f 89/18/1 90/15/1 91/15/1 92/18/1 
f 93/29/1 94/16/1 95/16/1 96/30/1 
f 90/15/1 96/30/1 95/16/1 91/15/1 
f 94/16/1 97/17/1 98/17/1 95/16/1 
f 97/17/1 89/18/1 92/18/1 98/17/1 
f 55/3/1 89/18/1 99/18/1 100/3/1 
f 89/18/1 97/17/1 101/17/1 99/18/1 
f 97/17/1 49/4/1 102/4/1 101/17/1 
f 49/4/1 55/3/1 100/3/1 102/4/1 
f 88/21/1 85/13/1 103/13/1 104/21/1 
f 85/13/1 105/19/1 106/19/1 103/13/1 
f 105/19/1 107/20/1 108/20/1 106/19/1 
f 107/20/1 88/21/1 104/21/1 108/20/1 
f 109/24/1 110/22/1 111/22/1 112/24/1 
f 110/22/1 79/14/1 113/14/1 111/22/1 
f 79/14/1 87/23/1 114/23/1 113/14/1 
f 87/23/1 109/24/1 112/24/1 114/23/1 
f 107/20/1 105/19/1 115/19/1 116/20/1 
f 105/19/1 117/25/1 118/25/1 115/19/1 
f 117/25/1 119/26/1 120/26/1 118/25/1 
f 119/26/1 107/20/1 116/20/1 120/26/1 
f 121/28/1 122/27/1 123/27/1 124/28/1 
f 122/27/1 110/22/1 125/22/1 123/27/1 
f 110/22/1 109/24/1 126/24/1 125/22/1 
f 109/24/1 121/28/1 124/28/1 126/24/1 
f 119/26/1 117/25/1 127/25/1 128/26/1 
f 117/25/1 94/16/1 129/16/1 127/25/1 
f 94/16/1 93/29/1 130/29/1 129/16/1 
f 93/29/1 119/26/1 128/26/1 130/29/1 
f 96/30/1 90/15/1 131/15/1 132/30/1 
f 90/15/1 122/27/1 133/27/1 131/15/1 
f 122/27/1 121/28/1 134/28/1 133/27/1 
f 121/28/1 96/30/1 132/30/1 134/28/1 
f 52/4/3 51/1/3 1/1/3 4/4/3 
f 51/1/4 54/2/4 2/2/4 1/1/4 
f 54/2/5 56/3/5 3/3/5 2/2/5 
f 56/3/6 52/4/6 4/4/6 3/3/6 
f 60/8/3 59/5/3 5/5/3 8/8/3 
f 59/5/4 62/6/4 6/6/4 5/5/4 
f 62/6/5 64/7/5 7/7/5 6/6/5 
f 64/7/6 60/8/6 8/8/6 7/7/6 
f 76/1/3 75/9/3 9/9/3 12/1/3 
f 75/9/4 77/10/4 10/10/4 9/9/4 
f 77/10/5 78/2/5 11/2/5 10/10/5 
f 78/2/6 76/1/6 12/1/6 11/2/6 
f 82/14/5 81/11/5 13/11/5 16/14/5 
f 81/11/6 84/12/6 14/12/6 13/11/6 
f 84/12/3 86/13/3 15/13/3 14/12/3 
f 86/13/4 82/14/4 16/14/4 15/13/4 
f 92/18/5 91/15/5 17/15/5 20/18/5 
f 91/15/6 95/16/6 18/16/6 17/15/6 
f 95/16/3 98/17/3 19/17/3 18/16/3 
f 98/17/4 92/18/4 20/18/4 19/17/4 
f 100/3/5 99/18/5 21/18/5 24/3/5 
f 99/18/6 101/17/6 22/17/6 21/18/6 
f 101/17/3 102/4/3 23/4/3 22/17/3 
f 102/4/4 100/3/4 24/3/4 23/4/4 
f 104/21/6 103/13/6 25/13/6 28/21/6 
f 103/13/3 106/19/3 26/19/3 25/13/3 
f 106/19/4 108/20/4 27/20/4 26/19/4 
f 108/20/5 104/21/5 28/21/5 27/20/5 
f 112/24/4 111/22/4 29/22/4 32/24/4 
f 111/22/5 113/14/5 30/14/5 29/22/5 
f 113/14/6 114/23/6 31/23/6 30/14/6 
f 114/23/3 112/24/3 32/24/3 31/23/3 
f 116/20/7 115/19/7 33/19/7 36/20/7 
f 115/19/3 118/25/3 34/25/3 33/19/3 
f 118/25/4 120/26/4 35/26/4 34/25/4 
f 120/26/5 116/20/5 36/20/5 35/26/5 
f 124/28/4 123/27/4 37/27/4 40/28/4 
f 123/27/5 125/22/5 38/22/5 37/27/5 
f 125/22/7 126/24/7 39/24/7 38/22/7 
f 126/24/3 124/28/3 40/28/3 39/24/3 
f 128/26/6 127/25/6 41/25/6 44/26/6 
f 127/25/3 129/16/3 42/16/3 41/25/3 
f 129/16/4 130/29/4 43/29/4 42/16/4 
f 130/29/5 128/26/5 44/26/5 43/29/5 
f 132/30/4 131/15/4 45/15/4 48/30/4 
f 131/15/5 133/27/5 46/27/5 45/15/5 
f 133/27/6 134/28/6 47/28/6 46/27/6 
f 134/28/3 132/30/3 48/30/3 47/28/3 
f 87/23/1 88/21/1 135/21/1 136/23/1 
f 119/26/1 93/29/1 137/29/1 107/20/1 
f 88/21/1 107/20/1 137/29/1 135/21/1 
f 93/29/1 96/30/1 138/30/1 137/29/1 
f 109/24/1 87/23/1 136/23/1 121/28/1 
f 121/28/1 136/23/1 138/30/1 96/30/1 
f 138/30/8 136/23/8 139/23/8 140/30/8 
f 136/23/9 135/21/9 141/21/9 139/23/9 
f 135/21/10 137/29/10 142/29/10 141/21/10 
f 137/29/11 138/30/11 140/30/11 142/29/11 
s 3
f 70/35/1 68/36/1 67/37/1 143/38/1 
f 70/35/1 143/38/1 144/39/1 73/40/1 
f 65/8/1 71/41/1 74/42/1 145/43/1 
f 65/8/1 145/43/1 146/44/1 66/45/1 
f 67/37/1 66/45/1 146/44/1 143/38/1 
f 74/42/1 73/40/1 144/39/1 145/43/1 
s off
f 144/39/1 143/38/1 147/38/1 148/39/1 
f 143/38/2 146/44/2 149/44/2 147/38/2 
f 146/44/1 145/43/1 150/43/1 149/44/1 
f 145/43/1 144/39/1 148/39/1 150/43/1 
# 136 polygons

