# 3ds Max Wavefront OBJ Exporter v0.97b - (c)2007 guruware
# File Created: 08.10.2015 12:18:28

mtllib ContainerWall1.mtl

#
# object Object001
#

v  -514.0850 -117.0000 312.2295
v  -514.0849 117.0000 312.2295
v  -514.0850 117.0000 301.3064
v  -514.0850 -117.0000 301.3064
v  -514.0850 -117.0000 533.7679
v  -514.0849 117.0000 533.7679
v  -514.0849 117.0000 522.8448
v  -514.0850 -117.0000 522.8448
v  -514.0850 -117.0000 496.8449
v  -514.0849 117.0000 496.8449
v  -514.0849 117.0000 485.9218
v  -514.0850 -117.0000 485.9218
v  -514.0850 -117.0000 459.9218
v  -514.0849 117.0000 459.9218
v  -514.0849 117.0000 448.9987
v  -514.0850 -117.0000 448.9987
v  -514.0850 -117.0000 422.9987
v  -514.0849 117.0000 422.9987
v  -514.0849 117.0000 412.0757
v  -514.0850 -117.0000 412.0757
v  -514.0850 -117.0000 386.0757
v  -514.0849 117.0000 386.0757
v  -514.0849 117.0000 375.1526
v  -514.0850 -117.0000 375.1526
v  -514.0850 -117.0000 349.1526
v  -514.0849 117.0000 349.1526
v  -514.0849 117.0000 338.2295
v  -514.0850 -117.0000 338.2295
v  -514.0850 117.0000 79.7680
v  -514.0850 -117.0000 79.7680
v  -514.0850 -117.0000 90.6911
v  -514.0850 117.0000 90.6911
v  -514.0850 117.0000 227.4603
v  -514.0850 -117.0000 227.4603
v  -514.0850 -117.0000 238.3834
v  -514.0850 117.0000 238.3833
v  -514.0850 117.0000 264.3833
v  -514.0850 -117.0000 264.3834
v  -514.0850 -117.0000 275.3064
v  -514.0850 117.0000 275.3064
v  -514.0850 -117.0000 116.6911
v  -514.0850 -117.0000 127.6141
v  -514.0850 -56.3333 127.6141
v  -514.0850 -56.3333 116.6911
v  -514.0850 117.0000 127.6141
v  -514.0850 117.0000 116.6911
v  -514.0850 56.3333 116.6911
v  -514.0850 56.3333 127.6141
v  -514.0850 -117.0000 153.6141
v  -514.0850 -117.0000 164.5372
v  -514.0850 -56.3333 164.5372
v  -514.0850 -56.3333 153.6141
v  -514.0850 117.0000 164.5372
v  -514.0850 117.0000 153.6141
v  -514.0850 56.3333 153.6141
v  -514.0850 56.3333 164.5372
v  -514.0850 -117.0000 190.5372
v  -514.0850 -117.0000 201.4603
v  -514.0850 -56.3333 201.4603
v  -514.0850 -56.3333 190.5372
v  -514.0850 117.0000 201.4603
v  -514.0850 117.0000 190.5372
v  -514.0850 56.3333 190.5372
v  -514.0850 56.3333 201.4603
v  -510.0850 -130.0000 288.3064
v  -510.0850 -130.0000 325.2295
v  -510.0850 -122.0000 317.2295
v  -510.0850 -122.0000 296.3064
v  -510.0849 130.0000 325.2295
v  -510.0849 122.0000 317.2295
v  -510.0849 130.0000 288.3064
v  -510.0849 122.0000 296.3064
v  -510.0850 -130.0000 509.8449
v  -510.0850 -130.0000 546.7679
v  -510.0850 -122.0000 538.7679
v  -510.0850 -122.0000 517.8448
v  -510.0849 130.0000 546.7679
v  -510.0849 122.0000 538.7679
v  -510.0849 130.0000 509.8449
v  -510.0849 122.0000 517.8448
v  -510.0850 -130.0000 472.9218
v  -510.0850 -122.0000 501.8449
v  -510.0850 -122.0000 480.9218
v  -510.0849 122.0000 501.8449
v  -510.0849 130.0000 472.9218
v  -510.0849 122.0000 480.9218
v  -510.0850 -130.0000 435.9987
v  -510.0850 -122.0000 464.9218
v  -510.0850 -122.0000 443.9987
v  -510.0849 122.0000 464.9218
v  -510.0849 130.0000 435.9987
v  -510.0849 122.0000 443.9987
v  -510.0850 -130.0000 399.0757
v  -510.0850 -122.0000 427.9987
v  -510.0850 -122.0000 407.0757
v  -510.0849 122.0000 427.9987
v  -510.0849 130.0000 399.0757
v  -510.0849 122.0000 407.0757
v  -510.0850 -130.0000 362.1526
v  -510.0850 -122.0000 391.0757
v  -510.0850 -122.0000 370.1526
v  -510.0849 122.0000 391.0757
v  -510.0849 130.0000 362.1526
v  -510.0849 122.0000 370.1526
v  -510.0850 -122.0000 354.1526
v  -510.0850 -122.0000 333.2295
v  -510.0849 122.0000 354.1526
v  -510.0849 122.0000 333.2295
v  -510.0850 130.0000 103.6911
v  -510.0850 130.0000 66.7680
v  -510.0850 122.0000 74.7680
v  -510.0850 122.0000 95.6911
v  -510.0851 -130.0000 66.7680
v  -510.0850 -122.0000 74.7680
v  -510.0850 -130.0000 103.6911
v  -510.0850 -122.0000 95.6911
v  -510.0850 43.3333 103.6911
v  -510.0850 -43.3333 103.6911
v  -510.0849 130.0000 251.3833
v  -510.0849 130.0000 214.4603
v  -510.0849 122.0000 222.4603
v  -510.0849 122.0000 243.3833
v  -510.0850 -43.3333 214.4603
v  -510.0850 -130.0000 214.4603
v  -510.0850 -122.0000 222.4603
v  -510.0850 43.3333 214.4603
v  -510.0850 -130.0000 251.3834
v  -510.0850 -122.0000 243.3834
v  -510.0849 122.0000 259.3833
v  -510.0849 122.0000 280.3064
v  -510.0850 -122.0000 259.3834
v  -510.0850 -122.0000 280.3064
v  -510.0850 -122.0000 111.6911
v  -510.0850 -51.3333 111.6911
v  -510.0850 -130.0000 140.6141
v  -510.0850 -122.0000 132.6141
v  -510.0850 -43.3333 140.6141
v  -510.0850 -51.3333 132.6141
v  -510.0850 43.3333 140.6141
v  -510.0850 130.0000 140.6141
v  -510.0850 122.0000 132.6141
v  -510.0850 51.3333 132.6141
v  -510.0850 122.0000 111.6911
v  -510.0850 51.3333 111.6911
v  -510.0850 -122.0000 148.6141
v  -510.0850 -51.3333 148.6141
v  -510.0850 -130.0000 177.5372
v  -510.0850 -122.0000 169.5372
v  -510.0850 -43.3333 177.5372
v  -510.0850 -51.3333 169.5372
v  -510.0850 43.3333 177.5372
v  -510.0850 130.0000 177.5372
v  -510.0850 122.0000 169.5372
v  -510.0850 51.3333 169.5372
v  -510.0850 122.0000 148.6141
v  -510.0850 51.3333 148.6141
v  -510.0850 -122.0000 185.5372
v  -510.0850 -51.3333 185.5372
v  -510.0850 -122.0000 206.4603
v  -510.0850 -51.3333 206.4603
v  -510.0850 122.0000 206.4603
v  -510.0850 51.3333 206.4603
v  -510.0850 122.0000 185.5372
v  -510.0850 51.3333 185.5372
v  -510.0850 -38.3333 108.6911
v  -510.0850 38.3333 108.6911
v  -510.0850 -38.3333 209.4603
v  -510.0850 38.3333 209.4603
v  -512.0850 38.3333 108.6911
v  -512.0850 38.3333 209.4603
v  -512.0850 -38.3333 108.6911
v  -512.0850 -38.3333 209.4603
# 172 vertices

vn 1.0000 -0.0000 -0.0000
vn 0.7809 0.6247 -0.0000
vn 0.7809 -0.0000 -0.6247
vn 0.7809 -0.6247 -0.0000
vn 0.7809 -0.0000 0.6247
vn 0.7809 0.0000 0.6247
vn -0.0000 -1.0000 -0.0000
vn 0.0000 0.0000 1.0000
vn 0.0000 1.0000 -0.0000
vn -0.0000 -0.0000 -1.0000
# 10 vertex normals

vt 0.5385 0.0000 0.0000
vt 0.5385 1.0000 0.0000
vt 0.4615 1.0000 0.0000
vt 0.4615 0.0000 0.0000
vt 1.0000 0.0000 0.0000
vt 1.0000 1.0000 0.0000
vt 0.9231 1.0000 0.0000
vt 0.9231 0.0000 0.0000
vt 0.8462 1.0000 0.0000
vt 0.8462 0.0000 0.0000
vt 0.7692 1.0000 0.0000
vt 0.7692 0.0000 0.0000
vt 0.6923 1.0000 0.0000
vt 0.6923 0.0000 0.0000
vt 0.6154 1.0000 0.0000
vt 0.6154 0.0000 0.0000
vt 0.0000 1.0000 0.0000
vt 0.0000 0.0000 0.0000
vt 0.0769 0.0000 0.0000
vt 0.0769 1.0000 0.0000
vt 0.3077 1.0000 0.0000
vt 0.3077 0.0000 0.0000
vt 0.3846 0.0000 0.0000
vt 0.3846 1.0000 0.0000
vt 0.1538 0.0000 0.0000
vt 0.1538 0.3333 0.0000
vt 0.0769 0.3333 0.0000
vt 0.1538 1.0000 0.0000
vt 0.0769 0.6667 0.0000
vt 0.1538 0.6667 0.0000
vt 0.2308 0.0000 0.0000
vt 0.2308 0.3333 0.0000
vt 0.2308 1.0000 0.0000
vt 0.2308 0.6667 0.0000
vt 0.3077 0.3333 0.0000
vt 0.3077 0.6667 0.0000
# 36 texture coords

g Object001
usemtl wire_008061138
s 1
f 4/4/1 3/3/1 2/2/1 1/1/1 
f 8/8/1 7/7/1 6/6/1 5/5/1 
f 12/10/1 11/9/1 10/7/1 9/8/1 
f 16/12/1 15/11/1 14/9/1 13/10/1 
f 20/14/1 19/13/1 18/11/1 17/12/1 
f 24/16/1 23/15/1 22/13/1 21/14/1 
f 28/1/1 27/2/1 26/15/1 25/16/1 
f 32/20/1 31/19/1 30/18/1 29/17/1 
f 36/24/1 35/23/1 34/22/1 33/21/1 
f 40/3/1 39/4/1 38/23/1 37/24/1 
f 44/27/1 43/26/1 42/25/1 41/19/1 
f 48/30/1 47/29/1 46/20/1 45/28/1 
f 52/26/1 51/32/1 50/31/1 49/25/1 
f 56/34/1 55/30/1 54/28/1 53/33/1 
f 60/32/1 59/35/1 58/22/1 57/31/1 
f 64/36/1 63/34/1 62/33/1 61/21/1 
s off
f 68/4/1 67/1/1 66/1/1 65/4/1 
f 67/1/1 70/2/1 69/2/1 66/1/1 
f 70/2/1 72/3/1 71/3/1 69/2/1 
f 72/3/1 68/4/1 65/4/1 71/3/1 
f 76/8/1 75/5/1 74/5/1 73/8/1 
f 75/5/1 78/6/1 77/6/1 74/5/1 
f 78/6/1 80/7/1 79/7/1 77/6/1 
f 80/7/1 76/8/1 73/8/1 79/7/1 
f 83/10/1 82/8/1 73/8/1 81/10/1 
f 82/8/1 84/7/1 79/7/1 73/8/1 
f 84/7/1 86/9/1 85/9/1 79/7/1 
f 86/9/1 83/10/1 81/10/1 85/9/1 
f 89/12/1 88/10/1 81/10/1 87/12/1 
f 88/10/1 90/9/1 85/9/1 81/10/1 
f 90/9/1 92/11/1 91/11/1 85/9/1 
f 92/11/1 89/12/1 87/12/1 91/11/1 
f 95/14/1 94/12/1 87/12/1 93/14/1 
f 94/12/1 96/11/1 91/11/1 87/12/1 
f 96/11/1 98/13/1 97/13/1 91/11/1 
f 98/13/1 95/14/1 93/14/1 97/13/1 
f 101/16/1 100/14/1 93/14/1 99/16/1 
f 100/14/1 102/13/1 97/13/1 93/14/1 
f 102/13/1 104/15/1 103/15/1 97/13/1 
f 104/15/1 101/16/1 99/16/1 103/15/1 
f 106/1/1 105/16/1 99/16/1 66/1/1 
f 105/16/1 107/15/1 103/15/1 99/16/1 
f 107/15/1 108/2/1 69/2/1 103/15/1 
f 108/2/1 106/1/1 66/1/1 69/2/1 
f 112/20/1 111/17/1 110/17/1 109/20/1 
f 111/17/1 114/18/1 113/18/1 110/17/1 
f 114/18/1 116/19/1 115/19/1 113/18/1 
f 118/27/1 112/20/1 109/20/1 117/29/1 
f 116/19/1 112/20/1 118/27/1 115/19/1 
f 122/24/1 121/21/1 120/21/1 119/24/1 
f 126/36/1 125/22/1 124/22/1 123/35/1 
f 121/21/1 125/22/1 126/36/1 120/21/1 
f 125/22/1 128/23/1 127/23/1 124/22/1 
f 128/23/1 122/24/1 119/24/1 127/23/1 
f 130/3/1 129/24/1 119/24/1 71/3/1 
f 129/24/1 131/23/1 127/23/1 119/24/1 
f 131/23/1 132/4/1 65/4/1 127/23/1 
f 132/4/1 130/3/1 71/3/1 65/4/1 
f 134/27/1 133/19/1 115/19/1 118/27/1 
f 133/19/1 136/25/1 135/25/1 115/19/1 
f 136/25/1 138/26/1 137/26/1 135/25/1 
f 138/26/1 134/27/1 118/27/1 137/26/1 
f 142/30/1 141/28/1 140/28/1 139/30/1 
f 141/28/1 143/20/1 109/20/1 140/28/1 
f 143/20/1 144/29/1 117/29/1 109/20/1 
f 144/29/1 142/30/1 139/30/1 117/29/1 
f 146/26/1 145/25/1 135/25/1 137/26/1 
f 145/25/1 148/31/1 147/31/1 135/25/1 
f 148/31/1 150/32/1 149/32/1 147/31/1 
f 150/32/1 146/26/1 137/26/1 149/32/1 
f 154/34/1 153/33/1 152/33/1 151/34/1 
f 153/33/1 155/28/1 140/28/1 152/33/1 
f 155/28/1 156/30/1 139/30/1 140/28/1 
f 156/30/1 154/34/1 151/34/1 139/30/1 
f 158/32/1 157/31/1 147/31/1 149/32/1 
f 157/31/1 159/22/1 124/22/1 147/31/1 
f 159/22/1 160/35/1 123/35/1 124/22/1 
f 160/35/1 158/32/1 149/32/1 123/35/1 
f 162/36/1 161/21/1 120/21/1 126/36/1 
f 161/21/1 163/33/1 152/33/1 120/21/1 
f 163/33/1 164/34/1 151/34/1 152/33/1 
f 164/34/1 162/36/1 126/36/1 151/34/1 
f 4/4/2 1/1/2 67/1/2 68/4/2 
f 1/1/3 2/2/3 70/2/3 67/1/3 
f 2/2/4 3/3/4 72/3/4 70/2/4 
f 3/3/5 4/4/5 68/4/5 72/3/5 
f 8/8/2 5/5/2 75/5/2 76/8/2 
f 5/5/3 6/6/3 78/6/3 75/5/3 
f 6/6/4 7/7/4 80/7/4 78/6/4 
f 7/7/5 8/8/5 76/8/5 80/7/5 
f 12/10/2 9/8/2 82/8/2 83/10/2 
f 9/8/3 10/7/3 84/7/3 82/8/3 
f 10/7/4 11/9/4 86/9/4 84/7/4 
f 11/9/5 12/10/5 83/10/5 86/9/5 
f 16/12/2 13/10/2 88/10/2 89/12/2 
f 13/10/3 14/9/3 90/9/3 88/10/3 
f 14/9/4 15/11/4 92/11/4 90/9/4 
f 15/11/5 16/12/5 89/12/5 92/11/5 
f 20/14/2 17/12/2 94/12/2 95/14/2 
f 17/12/3 18/11/3 96/11/3 94/12/3 
f 18/11/4 19/13/4 98/13/4 96/11/4 
f 19/13/5 20/14/5 95/14/5 98/13/5 
f 24/16/2 21/14/2 100/14/2 101/16/2 
f 21/14/3 22/13/3 102/13/3 100/14/3 
f 22/13/4 23/15/4 104/15/4 102/13/4 
f 23/15/5 24/16/5 101/16/5 104/15/5 
f 28/1/2 25/16/2 105/16/2 106/1/2 
f 25/16/3 26/15/3 107/15/3 105/16/3 
f 26/15/4 27/2/4 108/2/4 107/15/4 
f 27/2/5 28/1/5 106/1/5 108/2/5 
f 32/20/4 29/17/4 111/17/4 112/20/4 
f 29/17/5 30/18/5 114/18/5 111/17/5 
f 30/18/2 31/19/2 116/19/2 114/18/2 
f 31/19/3 32/20/3 112/20/3 116/19/3 
f 36/24/4 33/21/4 121/21/4 122/24/4 
f 33/21/5 34/22/5 125/22/5 121/21/5 
f 34/22/2 35/23/2 128/23/2 125/22/2 
f 35/23/3 36/24/3 122/24/3 128/23/3 
f 40/3/4 37/24/4 129/24/4 130/3/4 
f 37/24/5 38/23/5 131/23/5 129/24/5 
f 38/23/2 39/4/2 132/4/2 131/23/2 
f 39/4/3 40/3/3 130/3/3 132/4/3 
f 44/27/5 41/19/5 133/19/5 134/27/5 
f 41/19/2 42/25/2 136/25/2 133/19/2 
f 42/25/3 43/26/3 138/26/3 136/25/3 
f 43/26/4 44/27/4 134/27/4 138/26/4 
f 48/30/3 45/28/3 141/28/3 142/30/3 
f 45/28/4 46/20/4 143/20/4 141/28/4 
f 46/20/5 47/29/5 144/29/5 143/20/5 
f 47/29/2 48/30/2 142/30/2 144/29/2 
f 52/26/6 49/25/6 145/25/6 146/26/6 
f 49/25/2 50/31/2 148/31/2 145/25/2 
f 50/31/3 51/32/3 150/32/3 148/31/3 
f 51/32/4 52/26/4 146/26/4 150/32/4 
f 56/34/3 53/33/3 153/33/3 154/34/3 
f 53/33/4 54/28/4 155/28/4 153/33/4 
f 54/28/5 55/30/5 156/30/5 155/28/5 
f 55/30/2 56/34/2 154/34/2 156/30/2 
f 60/32/5 57/31/5 157/31/5 158/32/5 
f 57/31/2 58/22/2 159/22/2 157/31/2 
f 58/22/3 59/35/3 160/35/3 159/22/3 
f 59/35/4 60/32/4 158/32/4 160/35/4 
f 64/36/3 61/21/3 161/21/3 162/36/3 
f 61/21/4 62/33/4 163/33/4 161/21/4 
f 62/33/5 63/34/5 164/34/5 163/33/5 
f 63/34/2 64/36/2 162/36/2 164/34/2 
f 166/29/1 165/27/1 118/27/1 117/29/1 
f 137/26/1 167/35/1 123/35/1 149/32/1 
f 165/27/1 167/35/1 137/26/1 118/27/1 
f 167/35/1 168/36/1 126/36/1 123/35/1 
f 151/34/1 166/29/1 117/29/1 139/30/1 
f 126/36/1 168/36/1 166/29/1 151/34/1 
f 170/36/7 169/29/7 166/29/7 168/36/7 
f 169/29/8 171/27/8 165/27/8 166/29/8 
f 171/27/9 172/35/9 167/35/9 165/27/9 
f 172/35/10 170/36/10 168/36/10 167/35/10 
# 156 polygons

