# 3ds Max Wavefront OBJ Exporter v0.97b - (c)2007 guruware
# File Created: 15.10.2015 14:14:46

mtllib HeartMonitor.mtl

#
# object Box003
#

v  33.7233 17.2204 -24.5892
v  53.4275 17.2204 -24.5892
v  14.0190 17.2204 -20.8149
v  14.0190 17.2204 -24.5892
v  73.1318 17.2204 -24.5892
v  73.1318 17.2204 -20.8149
v  79.5700 17.2204 -24.5892
v  79.5700 17.2204 -20.8149
v  17.3724 19.7481 -28.3635
v  22.0592 19.7481 -28.3635
v  7.5808 17.2204 -24.5892
v  65.0916 19.7481 -28.3635
v  69.7784 19.7481 -28.3635
v  14.0190 67.2204 -20.8149
v  14.0190 67.2204 -24.5892
v  7.5808 67.2204 -24.5892
v  7.5808 67.2204 -20.8149
v  73.1318 67.2204 -20.8149
v  73.1318 67.2204 -24.5892
v  79.5700 67.2204 -20.8149
v  79.5700 67.2204 -24.5892
v  22.0592 56.1467 -28.3635
v  17.3724 56.1467 -28.3635
v  65.0916 56.1467 -28.3635
v  69.7784 56.1467 -28.3635
v  14.0190 28.9244 -20.8149
v  7.5808 28.9244 -20.8149
v  7.5808 17.2204 -20.8149
v  73.1318 28.9244 -20.8149
v  79.5700 28.9244 -20.8149
v  14.0190 62.9526 -20.8149
v  7.5808 62.9526 -20.8149
v  73.1318 28.9244 -21.8717
v  73.1318 62.9526 -21.8717
v  14.0190 62.9526 -21.8717
v  14.0190 28.9244 -21.8717
v  79.5700 62.9526 -20.8149
v  73.1318 62.9526 -20.8149
v  79.5700 28.9244 -24.5892
v  69.7784 24.8286 -28.3635
v  79.5700 62.9526 -24.5892
v  69.7784 49.6002 -28.3635
v  65.0916 24.8286 -28.3635
v  22.0592 24.8286 -28.3635
v  50.7475 19.7481 -28.3635
v  36.4033 19.7481 -28.3635
v  17.3724 24.8286 -28.3635
v  65.0916 49.6002 -28.3635
v  17.3724 49.6002 -28.3635
v  22.0592 49.6002 -28.3635
v  7.5808 28.9244 -24.5892
v  7.5808 62.9526 -24.5892
v  34.3148 33.3408 -28.3635
v  52.8360 33.3408 -28.3635
v  34.3148 41.0881 -28.3635
v  52.8360 41.0881 -28.3635
v  38.3399 34.8164 -30.6780
v  41.8302 34.8164 -30.6780
v  45.3206 34.8164 -30.6780
v  48.8109 34.8164 -30.6780
v  38.3399 39.6124 -30.6780
v  48.8109 39.6124 -30.6780
v  45.3206 39.6124 -30.6780
v  41.8302 39.6124 -30.6780
v  39.9975 -79.8654 -36.3228
v  41.7865 -79.8654 -39.4214
v  41.7865 -86.2328 -39.4214
v  39.9975 -86.2328 -36.3228
v  18.9517 -80.3654 -20.6179
v  17.6627 -80.3654 -22.8505
v  17.6627 -85.7328 -22.8505
v  18.9517 -85.7328 -20.6179
v  45.3644 -79.8654 -33.2242
v  41.7865 -79.8654 -33.2242
v  41.7865 -86.2328 -33.2242
v  45.3644 -86.2328 -33.2242
v  69.4881 -80.3654 -22.8504
v  68.1992 -80.3654 -20.6179
v  68.1992 -85.7328 -20.6179
v  69.4881 -85.7328 -22.8504
v  45.3644 -79.8654 -39.4214
v  47.1534 -79.8654 -36.3228
v  47.1534 -86.2328 -36.3228
v  45.3644 -86.2328 -39.4214
v  42.2865 -80.3654 -65.5000
v  44.8644 -80.3654 -65.5000
v  44.8644 -85.7328 -65.5000
v  42.2865 -85.7328 -65.5000
v  39.9974 105.9921 -36.3228
v  41.7864 105.9921 -33.2242
v  45.3643 105.9921 -33.2242
v  45.3643 105.9921 -39.4214
v  47.1533 105.9921 -36.3228
v  41.7864 105.9921 -39.4214
v  41.7864 35.5297 -39.4214
v  39.9975 35.5297 -36.3228
v  41.7864 35.5297 -33.2242
v  45.3644 35.5297 -33.2242
v  47.1533 35.5297 -36.3228
v  45.3644 35.5297 -39.4214
v  21.3892 -86.2328 -25.5793
v  21.3892 -79.8654 -25.5793
v  23.1782 -86.2328 -22.4807
v  23.1782 -79.8654 -22.4807
v  64.0134 -86.2328 -22.4572
v  64.0134 -79.8654 -22.4572
v  65.8024 -86.2328 -25.5558
v  65.8024 -79.8654 -25.5558
v  45.3644 -86.2328 -60.5608
v  45.3644 -79.8654 -60.5608
v  41.7865 -86.2328 -60.5608
v  41.7865 -79.8654 -60.5608
v  18.2788 -86.2328 -23.7835
v  18.2788 -79.8654 -23.7835
v  20.0677 -86.2328 -20.6849
v  20.0677 -79.8654 -20.6849
v  67.0831 -86.2328 -20.6849
v  67.0831 -79.8654 -20.6849
v  68.8721 -86.2328 -23.7835
v  68.8721 -79.8654 -23.7835
v  45.3644 -86.2328 -64.5000
v  45.3644 -79.8654 -64.5000
v  41.7865 -86.2328 -64.5000
v  41.7865 -79.8654 -64.5000
v  18.4154 -91.6742 -23.7469
v  21.3527 -91.6742 -25.4427
v  23.0416 -91.6742 -22.5173
v  20.1043 -91.6742 -20.8215
v  67.0465 -91.6742 -20.8215
v  64.1500 -91.6742 -22.4938
v  65.8390 -91.6742 -25.4192
v  68.7355 -91.6742 -23.7469
v  45.2644 -91.6742 -64.4000
v  45.2644 -91.6742 -60.6608
v  41.8865 -91.6742 -60.6608
v  41.8865 -91.6742 -64.4000
v  40.5363 39.1738 -41.5863
v  40.5366 35.5297 -41.5865
v  37.4975 35.5297 -36.3228
v  37.4975 39.1738 -36.3228
v  38.1374 35.5297 -31.9742
v  38.1373 39.1738 -31.9742
v  49.0134 39.1738 -31.9742
v  49.0134 35.5297 -31.9742
v  49.6533 35.5297 -36.3229
v  49.6533 39.1738 -36.3228
v  46.6144 35.5297 -41.5864
v  46.6144 39.1738 -41.5864
v  41.7864 39.1738 -39.4214
v  45.3644 39.1738 -39.4214
v  39.9975 39.1738 -36.3228
v  41.7864 39.1738 -33.2242
v  45.3644 39.1738 -33.2242
v  47.1533 39.1738 -36.3228
# 154 vertices

vn 0.0000 -1.0000 -0.0000
vn 0.0000 -0.9993 -0.0366
vn 0.0000 -0.9990 -0.0457
vn 0.0000 -0.9949 -0.1006
vn 0.0000 1.0000 -0.0000
vn 0.0000 0.9783 -0.2070
vn 0.0000 0.9819 -0.1895
vn 0.0000 0.9143 -0.4050
vn 0.0000 0.0000 1.0000
vn 0.9918 0.0000 -0.1282
vn 0.9912 0.0000 -0.1324
vn 1.0000 0.0000 -0.0000
vn 0.9649 0.0000 -0.2625
vn 0.9936 0.0000 -0.1129
vn 0.0000 0.0000 -1.0000
vn -0.9918 0.0000 -0.1282
vn -0.9912 0.0000 -0.1324
vn -0.9649 0.0000 -0.2625
vn -1.0000 0.0000 -0.0000
vn -0.9936 0.0000 -0.1129
vn 0.0000 -0.9954 -0.0958
vn -0.9838 0.0000 -0.1794
vn 0.0000 0.9954 -0.0958
vn 0.9838 0.0000 -0.1794
vn -0.9998 0.0000 -0.0202
vn -0.8720 0.0000 -0.4896
vn -0.9982 0.0000 -0.0604
vn -0.9982 0.0000 0.0604
vn 0.4360 0.0000 0.9000
vn -0.4360 0.0000 0.9000
vn 0.9982 0.0000 0.0604
vn 0.8720 0.0000 -0.4896
vn 0.9998 0.0000 -0.0202
vn 0.9982 0.0000 -0.0604
vn -0.6854 0.0000 -0.7282
vn -0.6854 0.0000 0.7282
vn 0.6854 0.0000 0.7282
vn 0.6854 0.0000 -0.7282
vn -0.9839 0.0000 -0.1787
vn 0.9839 0.0000 0.1787
vn -0.9839 0.0000 0.1787
vn 0.9839 0.0000 -0.1787
vn -0.9976 0.0000 -0.0691
vn -0.5288 -0.8482 0.0320
vn 0.4968 0.0000 0.8679
vn -0.5288 0.8482 0.0320
vn -0.4968 0.0000 0.8679
vn 0.5288 -0.8482 0.0320
vn 0.9976 0.0000 -0.0691
vn 0.5288 0.8482 0.0320
vn 0.9986 0.0000 -0.0524
vn 0.0000 -0.9972 -0.0753
vn -0.9986 0.0000 -0.0524
vn 0.0000 0.9972 -0.0753
vn -0.9981 -0.0147 0.0604
vn -0.9836 -0.0251 -0.1786
vn 0.9981 -0.0147 -0.0604
vn 0.9836 -0.0251 0.1786
vn 0.9981 -0.0147 0.0604
vn -0.9836 -0.0251 0.1786
vn -0.9981 -0.0147 -0.0604
vn 0.9836 -0.0251 -0.1786
vn 0.0000 -0.1208 -0.9927
vn 0.9999 -0.0128 -0.0000
vn 0.0000 -0.1208 0.9927
vn -0.9999 -0.0128 -0.0000
vn -0.9997 0.0000 -0.0225
vn -0.9999 0.0000 0.0154
vn 0.9999 0.0000 0.0154
vn 0.9997 0.0000 -0.0225
vn -0.6854 0.0000 0.7281
vn 0.0001 0.0000 -1.0000
vn 0.0000 0.0002 -1.0000
vn -0.0002 0.0003 -1.0000
vn 0.0000 0.0001 -1.0000
vn -0.9999 0.0000 0.0164
vn 0.0000 0.9997 -0.0260
vn -0.0824 0.9959 -0.0376
vn -0.1563 0.9865 -0.0478
vn -0.0157 0.9995 -0.0282
vn 0.0155 0.9988 -0.0464
vn 0.0000 0.9987 -0.0510
vn 0.0760 0.9967 -0.0282
vn 0.0841 0.9961 -0.0258
vn 0.9999 0.0000 0.0164
vn 0.0000 -0.9991 -0.0423
vn 0.1331 -0.9892 -0.0607
vn 0.2487 -0.9656 -0.0761
vn 0.0254 -0.9986 -0.0458
vn -0.0252 -0.9968 -0.0753
vn 0.0000 -0.9966 -0.0828
vn -0.1229 -0.9914 -0.0456
vn -0.1360 -0.9898 -0.0416
# 93 vertex normals

vt 0.6881 0.8351 0.0000
vt 0.6166 0.8351 0.0000
vt 0.7597 0.8214 0.0000
vt 0.7597 0.8351 0.0000
vt 0.5450 0.8351 0.0000
vt 0.5450 0.8214 0.0000
vt 0.5217 0.8351 0.0000
vt 0.5217 0.8214 0.0000
vt 0.5701 0.1924 0.0000
vt 0.5871 0.1924 0.0000
vt 0.5579 0.2015 0.0000
vt 0.5345 0.2015 0.0000
vt 0.7725 0.2015 0.0000
vt 0.7434 0.1924 0.0000
vt 0.7604 0.1924 0.0000
vt 0.7959 0.2015 0.0000
vt 0.7725 0.6848 0.0000
vt 0.7725 0.6711 0.0000
vt 0.7959 0.6711 0.0000
vt 0.7959 0.6848 0.0000
vt 0.5579 0.6848 0.0000
vt 0.5579 0.6711 0.0000
vt 0.5345 0.6848 0.0000
vt 0.5345 0.6711 0.0000
vt 0.5579 0.0200 0.0000
vt 0.5871 0.0602 0.0000
vt 0.5701 0.0602 0.0000
vt 0.5345 0.0200 0.0000
vt 0.7725 0.0200 0.0000
vt 0.7434 0.0602 0.0000
vt 0.7959 0.0200 0.0000
vt 0.7604 0.0602 0.0000
vt 0.2580 0.9307 0.0000
vt 0.2580 0.8882 0.0000
vt 0.2814 0.8882 0.0000
vt 0.2814 0.9307 0.0000
vt 0.0434 0.9307 0.0000
vt 0.0434 0.8882 0.0000
vt 0.0200 0.9307 0.0000
vt 0.0200 0.8882 0.0000
vt 0.2580 0.7647 0.0000
vt 0.2814 0.7647 0.0000
vt 0.5345 0.3797 0.0000
vt 0.5345 0.2562 0.0000
vt 0.7492 0.2562 0.0000
vt 0.7492 0.3797 0.0000
vt 0.0200 0.7647 0.0000
vt 0.0434 0.7647 0.0000
vt 0.2580 0.7492 0.0000
vt 0.2814 0.7492 0.0000
vt 0.0434 0.7492 0.0000
vt 0.0200 0.7492 0.0000
vt 0.5217 0.9410 0.0000
vt 0.5642 0.9410 0.0000
vt 0.5642 0.9547 0.0000
vt 0.5217 0.9547 0.0000
vt 0.7604 0.1739 0.0000
vt 0.7959 0.1590 0.0000
vt 0.6877 0.9410 0.0000
vt 0.6877 0.9547 0.0000
vt 0.7604 0.0840 0.0000
vt 0.7959 0.0355 0.0000
vt 0.7032 0.9410 0.0000
vt 0.7032 0.9547 0.0000
vt 0.7434 0.1739 0.0000
vt 0.5871 0.1739 0.0000
vt 0.6913 0.1924 0.0000
vt 0.6392 0.1924 0.0000
vt 0.5701 0.1739 0.0000
vt 0.7434 0.0840 0.0000
vt 0.5701 0.0840 0.0000
vt 0.5871 0.0840 0.0000
vt 0.5345 0.1590 0.0000
vt 0.5217 0.8746 0.0000
vt 0.5642 0.8746 0.0000
vt 0.5642 0.8883 0.0000
vt 0.5217 0.8883 0.0000
vt 0.5345 0.0355 0.0000
vt 0.6877 0.8746 0.0000
vt 0.6877 0.8883 0.0000
vt 0.7032 0.8746 0.0000
vt 0.7032 0.8883 0.0000
vt 0.0200 0.9741 0.0000
vt 0.0200 0.9703 0.0000
vt 0.2346 0.9703 0.0000
vt 0.2346 0.9741 0.0000
vt 0.9590 0.6711 0.0000
vt 0.9590 0.6750 0.0000
vt 0.8354 0.6750 0.0000
vt 0.8354 0.6711 0.0000
vt 0.9705 0.8746 0.0000
vt 0.9705 0.8784 0.0000
vt 0.7559 0.8784 0.0000
vt 0.7559 0.8746 0.0000
vt 0.8170 0.7530 0.0000
vt 0.8170 0.7492 0.0000
vt 0.9405 0.7492 0.0000
vt 0.9405 0.7530 0.0000
vt 0.6316 0.1430 0.0000
vt 0.6989 0.1430 0.0000
vt 0.6316 0.1149 0.0000
vt 0.6989 0.1149 0.0000
vt 0.6462 0.1377 0.0000
vt 0.6589 0.1377 0.0000
vt 0.6716 0.1377 0.0000
vt 0.6842 0.1377 0.0000
vt 0.6462 0.1202 0.0000
vt 0.6842 0.1202 0.0000
vt 0.6716 0.1202 0.0000
vt 0.6589 0.1202 0.0000
vt 0.0629 0.4373 0.0000
vt 0.0629 0.4486 0.0000
vt 0.0398 0.4486 0.0000
vt 0.0398 0.4373 0.0000
vt 0.0611 0.1988 0.0000
vt 0.0611 0.2035 0.0000
vt 0.0416 0.2035 0.0000
vt 0.0416 0.1988 0.0000
vt 0.0629 0.1029 0.0000
vt 0.0629 0.1159 0.0000
vt 0.0398 0.1159 0.0000
vt 0.0398 0.1029 0.0000
vt 0.8100 0.3339 0.0000
vt 0.8100 0.3420 0.0000
vt 0.7905 0.3420 0.0000
vt 0.7905 0.3339 0.0000
vt 0.0629 0.3509 0.0000
vt 0.0629 0.3621 0.0000
vt 0.0398 0.3621 0.0000
vt 0.0398 0.3509 0.0000
vt 0.9270 0.9410 0.0000
vt 0.9270 0.9503 0.0000
vt 0.9075 0.9503 0.0000
vt 0.9075 0.9410 0.0000
vt 0.3886 0.7995 0.0000
vt 0.3951 0.7883 0.0000
vt 0.4081 0.7883 0.0000
vt 0.4081 0.8108 0.0000
vt 0.4146 0.7995 0.0000
vt 0.3951 0.8108 0.0000
vt 0.9798 0.0313 0.0000
vt 0.9733 0.0425 0.0000
vt 0.9603 0.0425 0.0000
vt 0.9603 0.0200 0.0000
vt 0.9538 0.0313 0.0000
vt 0.9733 0.0200 0.0000
vt 0.4819 0.4486 0.0000
vt 0.4819 0.4373 0.0000
vt 0.0629 0.4261 0.0000
vt 0.4819 0.4261 0.0000
vt 0.4819 0.1159 0.0000
vt 0.4819 0.1029 0.0000
vt 0.4819 0.3734 0.0000
vt 0.0629 0.3734 0.0000
vt 0.4819 0.3621 0.0000
vt 0.4819 0.3509 0.0000
vt 0.4819 0.6965 0.0000
vt 0.0629 0.6965 0.0000
vt 0.0629 0.6835 0.0000
vt 0.4819 0.6835 0.0000
vt 0.0398 0.6095 0.0000
vt 0.0629 0.6095 0.0000
vt 0.0629 0.6770 0.0000
vt 0.0398 0.6770 0.0000
vt 0.4757 0.7493 0.0000
vt 0.4822 0.7605 0.0000
vt 0.0629 0.1835 0.0000
vt 0.0398 0.1835 0.0000
vt 0.9078 0.4262 0.0000
vt 0.9080 0.4392 0.0000
vt 0.8300 0.4402 0.0000
vt 0.8298 0.4272 0.0000
vt 0.0398 0.0352 0.0000
vt 0.0629 0.0352 0.0000
vt 0.3209 0.7604 0.0000
vt 0.3274 0.7492 0.0000
vt 0.9032 0.0200 0.0000
vt 0.9032 0.0431 0.0000
vt 0.8354 0.0431 0.0000
vt 0.8354 0.0200 0.0000
vt 0.8668 0.2565 0.0000
vt 0.8672 0.2695 0.0000
vt 0.7890 0.2714 0.0000
vt 0.7887 0.2584 0.0000
vt 0.0398 0.2741 0.0000
vt 0.0629 0.2741 0.0000
vt 0.4081 0.8875 0.0000
vt 0.3951 0.8875 0.0000
vt 0.0629 0.5253 0.0000
vt 0.0398 0.5253 0.0000
vt 0.9066 0.5959 0.0000
vt 0.9066 0.6089 0.0000
vt 0.8298 0.6089 0.0000
vt 0.8298 0.5959 0.0000
vt 0.0398 0.5982 0.0000
vt 0.0416 0.5959 0.0000
vt 0.0611 0.5959 0.0000
vt 0.0629 0.5982 0.0000
vt 0.8738 0.8214 0.0000
vt 0.8720 0.8250 0.0000
vt 0.8627 0.8253 0.0000
vt 0.8608 0.8217 0.0000
vt 0.0629 0.1948 0.0000
vt 0.0398 0.1948 0.0000
vt 0.9209 0.4261 0.0000
vt 0.9245 0.4278 0.0000
vt 0.9247 0.4372 0.0000
vt 0.9210 0.4390 0.0000
vt 0.0398 0.0241 0.0000
vt 0.0416 0.0200 0.0000
vt 0.0611 0.0200 0.0000
vt 0.0629 0.0241 0.0000
vt 0.9800 0.1024 0.0000
vt 0.9782 0.1060 0.0000
vt 0.9689 0.1062 0.0000
vt 0.9670 0.1026 0.0000
vt 0.8118 0.3306 0.0000
vt 0.7887 0.3306 0.0000
vt 0.8797 0.2562 0.0000
vt 0.8834 0.2579 0.0000
vt 0.8836 0.2673 0.0000
vt 0.8800 0.2692 0.0000
vt 0.0398 0.2598 0.0000
vt 0.0416 0.2562 0.0000
vt 0.0611 0.2562 0.0000
vt 0.0629 0.2598 0.0000
vt 0.9263 0.8214 0.0000
vt 0.9245 0.8250 0.0000
vt 0.9151 0.8250 0.0000
vt 0.9133 0.8214 0.0000
vt 0.0629 0.5396 0.0000
vt 0.0611 0.5432 0.0000
vt 0.0416 0.5432 0.0000
vt 0.0398 0.5396 0.0000
vt 0.9209 0.5959 0.0000
vt 0.9245 0.5977 0.0000
vt 0.9245 0.6071 0.0000
vt 0.9209 0.6089 0.0000
vt 0.9269 0.1153 0.0000
vt 0.9146 0.1146 0.0000
vt 0.9152 0.1024 0.0000
vt 0.9275 0.1030 0.0000
vt 0.9079 0.1714 0.0000
vt 0.9087 0.1593 0.0000
vt 0.9209 0.1601 0.0000
vt 0.9201 0.1722 0.0000
vt 0.7887 0.3241 0.0000
vt 0.8118 0.3241 0.0000
vt 0.9369 0.3241 0.0000
vt 0.9505 0.3241 0.0000
vt 0.9505 0.3364 0.0000
vt 0.9369 0.3364 0.0000
vt 0.9332 0.5125 0.0000
vt 0.9135 0.5124 0.0000
vt 0.9135 0.5017 0.0000
vt 0.9332 0.5012 0.0000
vt 0.0200 0.6093 0.0000
vt 0.0200 0.5987 0.0000
vt 0.8552 0.1706 0.0000
vt 0.8354 0.1704 0.0000
vt 0.8354 0.1598 0.0000
vt 0.8552 0.1593 0.0000
vt 0.0200 0.1946 0.0000
vt 0.0200 0.1840 0.0000
vt 0.8548 0.9522 0.0000
vt 0.8350 0.9517 0.0000
vt 0.8350 0.9411 0.0000
vt 0.8548 0.9410 0.0000
vt 0.0200 0.0347 0.0000
vt 0.0200 0.0242 0.0000
vt 0.8843 0.3354 0.0000
vt 0.8645 0.3349 0.0000
vt 0.8645 0.3243 0.0000
vt 0.8843 0.3241 0.0000
vt 0.9143 0.0431 0.0000
vt 0.9138 0.0629 0.0000
vt 0.9033 0.0629 0.0000
vt 0.4243 0.9401 0.0000
vt 0.4045 0.9397 0.0000
vt 0.4045 0.9274 0.0000
vt 0.4243 0.9271 0.0000
vt 0.0200 0.2737 0.0000
vt 0.0200 0.2602 0.0000
vt 0.9561 0.2692 0.0000
vt 0.9363 0.2688 0.0000
vt 0.9363 0.2565 0.0000
vt 0.9561 0.2562 0.0000
vt 0.0200 0.5392 0.0000
vt 0.0200 0.5257 0.0000
vt 0.7955 0.9426 0.0000
vt 0.7955 0.9558 0.0000
vt 0.7764 0.9558 0.0000
vt 0.7764 0.9426 0.0000
vt 0.7606 0.9558 0.0000
vt 0.7606 0.9426 0.0000
vt 0.8703 0.1040 0.0000
vt 0.8703 0.1172 0.0000
vt 0.8546 0.1172 0.0000
vt 0.8546 0.1040 0.0000
vt 0.8354 0.1172 0.0000
vt 0.8354 0.1040 0.0000
vt 0.5345 0.5012 0.0000
vt 0.7771 0.5012 0.0000
vt 0.7771 0.5142 0.0000
vt 0.5345 0.5142 0.0000
vt 0.7771 0.4486 0.0000
vt 0.5345 0.4486 0.0000
vt 0.5345 0.4373 0.0000
vt 0.7771 0.4373 0.0000
vt 0.5345 0.4261 0.0000
vt 0.7643 0.7622 0.0000
vt 0.5217 0.7622 0.0000
vt 0.5217 0.7492 0.0000
vt 0.7643 0.7492 0.0000
vt 0.7771 0.6184 0.0000
vt 0.5345 0.6184 0.0000
vt 0.5345 0.6072 0.0000
vt 0.7771 0.6072 0.0000
vt 0.5345 0.5959 0.0000
vt 0.8213 0.8346 0.0000
vt 0.7992 0.8346 0.0000
vt 0.7992 0.8214 0.0000
vt 0.8213 0.8214 0.0000
vt 0.8649 0.5204 0.0000
vt 0.8740 0.5204 0.0000
vt 0.8716 0.5361 0.0000
vt 0.8584 0.5316 0.0000
vt 0.8584 0.5091 0.0000
vt 0.8629 0.5012 0.0000
vt 0.8454 0.5091 0.0000
vt 0.8409 0.5012 0.0000
vt 0.8389 0.5204 0.0000
vt 0.8298 0.5204 0.0000
vt 0.8454 0.5316 0.0000
vt 0.8322 0.5361 0.0000
vt 0.3300 0.9476 0.0000
vt 0.3209 0.9476 0.0000
vt 0.3232 0.9318 0.0000
vt 0.3365 0.9363 0.0000
vt 0.3365 0.9588 0.0000
vt 0.3319 0.9667 0.0000
vt 0.3495 0.9588 0.0000
vt 0.3540 0.9667 0.0000
vt 0.3560 0.9476 0.0000
vt 0.3650 0.9476 0.0000
vt 0.3495 0.9363 0.0000
vt 0.3627 0.9318 0.0000
vt 0.7559 0.9410 0.0000
vt 0.7559 0.9584 0.0000
vt 0.8582 0.5408 0.0000
vt 0.8709 0.5408 0.0000
vt 0.8456 0.5408 0.0000
vt 0.8329 0.5408 0.0000
vt 0.8750 0.1024 0.0000
vt 0.8750 0.1198 0.0000
vt 0.3366 0.9271 0.0000
vt 0.3240 0.9271 0.0000
vt 0.3493 0.9271 0.0000
vt 0.3620 0.9271 0.0000
# 359 texture coords

g Box003
usemtl _HeartMonitor01___Default
s 2
f 1/1/1 2/2/1 3/3/1 4/4/1 
f 2/2/1 5/5/2 6/6/1 3/3/1 
f 5/5/2 7/7/3 8/8/1 6/6/1 
f 9/9/4 10/10/4 4/11/4 11/12/4 
f 5/13/2 12/14/4 13/15/4 7/16/3 
s 4
f 14/17/5 15/18/6 16/19/7 17/20/5 
f 18/21/5 19/22/6 15/18/6 14/17/5 
f 20/23/5 21/24/7 19/22/6 18/21/5 
f 15/25/6 22/26/8 23/27/8 16/28/7 
f 19/29/6 24/30/8 22/26/8 15/25/6 
f 19/29/6 21/31/7 25/32/8 24/30/8 
s 8
f 3/33/9 26/34/9 27/35/9 28/36/9 
f 6/37/9 29/38/9 26/34/9 3/33/9 
f 8/39/9 30/40/9 29/38/9 6/37/9 
f 26/34/9 31/41/9 32/42/9 27/35/9 
f 33/43/9 34/44/9 35/45/9 36/46/9 
f 30/40/9 37/47/9 38/48/9 29/38/9 
f 31/41/9 14/49/9 17/50/9 32/42/9 
f 38/48/9 18/51/9 14/49/9 31/41/9 
f 37/47/9 20/52/9 18/51/9 38/48/9 
s 16
f 7/53/10 39/54/11 30/55/12 8/56/12 
f 7/16/10 13/15/13 40/57/13 39/58/11 
f 39/54/11 41/59/11 37/60/12 30/55/12 
f 39/58/11 40/57/13 42/61/13 41/62/11 
f 41/59/11 21/63/14 20/64/12 37/60/12 
f 41/62/11 42/61/13 25/32/13 21/31/14 
s 32
f 12/14/15 43/65/15 40/57/15 13/15/15 
f 44/66/15 45/67/15 46/68/15 10/10/15 
f 45/67/15 44/66/15 43/65/15 12/14/15 
f 9/9/15 47/69/15 44/66/15 10/10/15 
f 43/65/15 48/70/15 42/61/15 40/57/15 
f 47/69/15 49/71/15 50/72/15 44/66/15 
f 48/70/15 24/30/15 25/32/15 42/61/15 
f 50/72/15 22/26/15 24/30/15 48/70/15 
f 49/71/15 23/27/15 22/26/15 50/72/15 
s 64
f 11/12/16 51/73/17 47/69/18 9/9/18 
f 28/74/19 27/75/19 51/76/17 11/77/16 
f 51/73/17 52/78/17 49/71/18 47/69/18 
f 27/75/19 32/79/19 52/80/17 51/76/17 
f 52/78/17 16/28/20 23/27/18 49/71/18 
f 32/79/19 17/81/19 16/82/20 52/80/17 
s off
f 29/83/5 33/84/5 36/85/5 26/86/5 
f 38/87/19 34/88/19 33/89/19 29/90/19 
f 31/91/1 35/92/1 34/93/1 38/94/1 
f 26/95/12 36/96/12 35/97/12 31/98/12 
s 1
f 4/11/4 10/10/4 12/14/4 5/13/4 
s off
f 44/66/15 53/99/15 54/100/15 43/65/15 
f 50/72/15 55/101/15 53/99/15 44/66/15 
f 48/70/15 56/102/15 55/101/15 50/72/15 
f 43/65/15 54/100/15 56/102/15 48/70/15 
f 53/99/21 57/103/21 58/104/21 54/100/21 
f 59/105/21 60/106/21 54/100/21 58/104/21 
f 55/101/22 61/107/22 57/103/22 53/99/22 
f 56/102/23 62/108/23 63/109/23 55/101/23 
f 64/110/23 61/107/23 55/101/23 63/109/23 
f 54/100/24 60/106/24 62/108/24 56/102/24 
s 8
f 65/111/25 66/112/26 67/113/27 68/114/27 
f 69/115/28 70/116/28 71/117/28 72/118/28 
f 73/119/29 74/120/30 75/121/9 76/122/9 
f 77/123/31 78/124/31 79/125/31 80/126/31 
f 81/127/32 82/128/33 83/129/34 84/130/34 
f 85/131/15 86/132/15 87/133/15 88/134/15 
s 1
f 83/135/1 76/136/1 75/137/1 67/138/1 
f 75/137/1 68/139/1 67/138/1 
f 84/140/1 83/135/1 67/138/1 
f 89/141/5 90/142/5 91/143/5 92/144/5 
f 91/143/5 93/145/5 92/144/5 
f 94/146/5 89/141/5 92/144/5 
s 8
f 95/147/35 66/112/26 65/111/25 96/148/19 
f 96/148/19 65/111/25 74/149/30 97/150/36 
f 97/151/36 74/120/30 73/119/29 98/152/37 
f 98/153/37 73/154/29 82/128/33 99/155/12 
f 99/155/12 82/128/33 81/127/32 100/156/38 
f 100/157/38 81/158/32 66/159/26 95/160/35 
s off
f 101/161/39 102/162/39 65/163/39 68/164/39 
f 103/165/1 101/166/1 68/139/1 75/137/1 
f 104/167/40 103/168/40 75/121/40 74/120/40 
f 102/169/5 104/170/5 74/171/5 65/172/5 
f 105/173/41 106/174/41 73/119/41 76/122/41 
f 107/175/1 105/176/1 76/136/1 83/135/1 
f 108/177/42 107/178/42 83/179/42 82/180/42 
f 106/181/5 108/182/5 82/183/5 73/184/5 
f 109/185/12 110/186/12 81/127/12 84/130/12 
f 111/187/1 109/188/1 84/140/1 67/138/1 
f 112/189/19 111/190/19 67/113/19 66/112/19 
f 110/191/5 112/192/5 66/193/5 81/194/5 
f 113/195/43 71/196/43 70/197/43 114/198/43 
f 115/199/44 72/200/44 71/201/44 113/202/44 
f 116/203/45 69/115/45 72/118/45 115/204/45 
f 114/205/46 70/206/46 69/207/46 116/208/46 
f 117/209/47 79/210/47 78/211/47 118/212/47 
f 119/213/48 80/214/48 79/215/48 117/216/48 
f 120/217/49 77/123/49 80/126/49 119/218/49 
f 118/219/50 78/220/50 77/221/50 120/222/50 
f 121/223/51 87/224/51 86/225/51 122/226/51 
f 123/227/52 88/228/52 87/229/52 121/230/52 
f 124/231/53 85/232/53 88/233/53 123/234/53 
f 122/235/54 86/236/54 85/237/54 124/238/54 
f 114/198/39 102/162/39 101/161/39 113/195/39 
f 125/239/1 126/240/1 127/241/1 128/242/1 
f 115/204/40 103/168/40 104/167/40 116/203/40 
f 116/208/5 104/170/5 102/169/5 114/205/5 
f 118/212/41 106/174/41 105/173/41 117/209/41 
f 129/243/1 130/244/1 131/245/1 132/246/1 
f 119/218/42 107/247/42 108/248/42 120/217/42 
f 120/222/5 108/182/5 106/181/5 118/219/5 
f 122/226/12 110/186/12 109/185/12 121/223/12 
f 133/249/1 134/250/1 135/251/1 136/252/1 
f 123/234/19 111/190/19 112/189/19 124/231/19 
f 124/238/5 112/192/5 110/191/5 122/235/5 
f 113/253/55 125/254/55 128/255/55 115/256/55 
f 101/161/56 126/257/56 125/258/56 113/195/56 
f 103/259/57 127/260/57 126/261/57 101/262/57 
f 115/204/58 128/263/58 127/264/58 103/168/58 
f 117/265/59 129/266/59 132/267/59 119/268/59 
f 105/173/60 130/269/60 129/270/60 117/209/60 
f 107/271/61 131/272/61 130/273/61 105/274/61 
f 119/275/62 132/276/62 131/277/62 107/178/62 
f 121/278/63 133/279/63 136/280/63 123/281/63 
f 109/185/64 134/282/64 133/283/64 121/223/64 
f 111/284/65 135/285/65 134/286/65 109/287/65 
f 123/234/66 136/288/66 135/289/66 111/190/66 
s 8
f 137/290/27 138/291/27 139/292/67 140/293/67 
f 140/293/67 139/292/67 141/294/68 142/295/68 
f 143/296/69 144/297/69 145/298/70 146/299/70 
f 146/299/70 145/298/70 147/300/34 148/301/34 
s 2
f 149/302/15 94/303/15 92/304/15 150/305/15 
s 8
f 94/306/27 149/307/27 151/308/19 89/309/19 
f 89/309/19 151/308/19 152/310/71 90/311/36 
f 90/311/36 152/312/71 153/313/37 91/314/37 
f 91/315/37 153/316/37 154/317/12 93/318/12 
f 93/318/12 154/317/12 150/319/34 92/304/34 
s 1
f 147/320/72 138/321/73 137/322/74 148/323/75 
s off
f 151/324/5 140/325/5 142/326/5 152/327/5 
f 149/328/5 137/329/5 140/325/5 151/324/5 
f 150/330/5 148/331/5 137/329/5 149/328/5 
f 154/332/5 146/333/5 148/331/5 150/330/5 
f 154/332/5 153/334/5 143/335/5 146/333/5 
f 99/336/1 145/337/1 144/338/1 98/339/1 
f 100/340/1 147/341/1 145/337/1 99/336/1 
f 95/342/1 138/343/1 147/341/1 100/340/1 
f 96/344/1 139/345/1 138/343/1 95/342/1 
f 96/344/1 97/346/1 141/347/1 139/345/1 
s 1
f 61/348/76 142/295/76 141/294/76 57/349/76 
s 2
f 64/350/77 152/327/78 142/326/79 61/351/80 
s 1
f 63/352/77 153/334/77 152/327/77 64/350/77 
s 2
f 63/352/81 62/353/82 143/335/83 153/334/84 
s 1
f 62/354/85 60/355/85 144/297/85 143/296/85 
s 2
f 59/356/86 98/339/87 144/338/88 60/357/89 
s 1
f 58/358/86 97/346/86 98/339/86 59/356/86 
s 2
f 58/358/90 57/359/91 141/347/92 97/346/93 
# 147 polygons - 4 triangles

