# 3ds Max Wavefront OBJ Exporter v0.97b - (c)2007 guruware
# File Created: 14.10.2015 11:54:37

mtllib Syringe.mtl

#
# object Cylinder001
#

v  20.0000 -50.5883 -0.0000
v  14.1421 -50.5883 -14.1421
v  14.1421 31.5880 -14.1421
v  20.0000 31.5880 -0.0000
v  -0.0000 -50.5883 -20.0000
v  -0.0000 31.5880 -20.0000
v  -14.1421 -50.5883 -14.1421
v  -14.1421 31.5880 -14.1421
v  -20.0000 -50.5883 0.0000
v  -20.0000 31.5880 0.0000
v  -14.1421 -50.5883 14.1421
v  -14.1421 31.5880 14.1421
v  0.0000 -50.5883 20.0000
v  0.0000 31.5880 20.0000
v  14.1421 -50.5883 14.1421
v  14.1421 31.5880 14.1421
v  0.0000 -96.4745 19.0945
v  -13.5018 -96.4745 13.5018
v  -19.0945 -96.4745 -0.0000
v  19.0945 -96.4745 -0.0000
v  -13.5018 -96.4745 -13.5018
v  -0.0000 -96.4745 -19.0945
v  13.5018 -96.4745 -13.5018
v  13.5018 -96.4745 13.5018
v  1.2438 96.4745 -1.2438
v  -0.0000 96.4745 -1.7589
v  -1.2438 96.4745 -1.2438
v  1.2438 96.4745 1.2438
v  -1.7589 96.4745 -0.0000
v  -1.2438 96.4745 1.2438
v  0.0000 96.4745 1.7589
v  1.7589 96.4745 -0.0000
v  12.8053 31.5880 -12.8053
v  18.1094 31.5880 -0.0000
v  -0.0000 31.5880 -18.1094
v  -12.8053 31.5880 -12.8053
v  -18.1094 31.5880 0.0000
v  -12.8053 31.5880 12.8053
v  0.0000 31.5880 18.1094
v  12.8053 31.5880 12.8053
v  9.9810 33.5823 -9.9810
v  14.1153 33.5823 -0.0000
v  -0.0000 33.5823 -14.1153
v  -9.9810 33.5823 -9.9810
v  -14.1153 33.5823 0.0000
v  -9.9810 33.5823 9.9810
v  0.0000 33.5823 14.1153
v  9.9810 33.5823 9.9810
v  1.2438 34.9336 -1.2438
v  1.7589 34.9336 -0.0000
v  -0.0000 34.9336 -1.7589
v  -1.2438 34.9336 -1.2438
v  -1.7589 34.9336 -0.0000
v  -1.2438 34.9336 1.2438
v  0.0000 34.9336 1.7589
v  1.2438 34.9336 1.2438
v  2.9902 -50.5883 -0.0000
v  2.1144 -50.5883 -2.1144
v  2.1144 -50.5883 2.1144
v  0.0000 -50.5883 2.9902
v  -2.1144 -50.5883 2.1144
v  -2.9902 -50.5883 -0.0000
v  -2.1144 -50.5883 -2.1144
v  -0.0000 -50.5883 -2.9902
v  2.9902 -89.1958 -0.0000
v  2.1144 -89.1958 -2.1144
v  2.1144 -89.1958 2.1144
v  0.0000 -89.1958 2.9902
v  -2.1144 -89.1958 2.1144
v  -2.9902 -89.1958 -0.0000
v  -2.1144 -89.1958 -2.1144
v  -0.0000 -89.1958 -2.9902
v  19.0945 -93.6030 -0.0000
v  13.5018 -93.6030 -13.5018
v  13.5018 -93.6030 13.5018
v  0.0000 -93.6030 19.0945
v  -13.5018 -93.6030 13.5018
v  -19.0945 -93.6030 -0.0000
v  -13.5018 -93.6030 -13.5018
v  -0.0000 -93.6030 -19.0945
# 80 vertices

vn 1.0000 0.0000 0.0000
vn 0.7071 0.0000 -0.7071
vn -0.0000 0.0000 -1.0000
vn -0.7071 0.0000 -0.7071
vn -1.0000 0.0000 0.0000
vn -0.7071 0.0000 0.7071
vn 0.0000 0.0000 1.0000
vn 0.7071 0.0000 0.7071
vn 0.0000 -1.0000 -0.0000
vn 0.0000 1.0000 -0.0000
vn 0.4393 0.8797 -0.1820
vn 0.1820 0.8797 -0.4393
vn -0.1820 0.8797 -0.4393
vn -0.4393 0.8797 -0.1820
vn -0.4393 0.8797 0.1820
vn -0.1820 0.8797 0.4393
vn 0.1820 0.8797 0.4393
vn 0.4393 0.8797 0.1820
vn 0.1086 0.9931 -0.0450
vn 0.0450 0.9931 -0.1086
vn -0.0450 0.9931 -0.1086
vn -0.1086 0.9931 -0.0450
vn -0.1086 0.9931 0.0450
vn -0.0450 0.9931 0.1086
vn 0.0450 0.9931 0.1086
vn 0.1086 0.9931 0.0450
vn 0.9239 0.0000 -0.3827
vn 0.3827 0.0000 -0.9239
vn -0.3827 0.0000 -0.9239
vn -0.9239 0.0000 -0.3827
vn -0.9239 0.0000 0.3827
vn -0.3827 0.0000 0.9239
vn 0.3827 0.0000 0.9239
vn 0.9239 0.0000 0.3827
vn 0.2624 0.9588 -0.1087
vn 0.2624 0.9588 0.1087
vn 0.1087 0.9588 0.2624
vn -0.1087 0.9588 0.2624
vn -0.2624 0.9588 0.1087
vn -0.2624 0.9588 -0.1087
vn -0.1087 0.9588 -0.2624
vn 0.1087 0.9588 -0.2624
# 42 vertex normals

vt 0.7500 0.0000 1.0000
vt 0.8750 0.0000 1.0000
vt 0.8750 1.0000 1.0000
vt 0.7500 1.0000 1.0000
vt 1.0000 0.0000 1.0000
vt 1.0000 1.0000 1.0000
vt 0.0000 0.0000 1.0000
vt 0.1250 0.0000 1.0000
vt 0.1250 1.0000 1.0000
vt 0.0000 1.0000 1.0000
vt 0.2500 0.0000 1.0000
vt 0.2500 1.0000 1.0000
vt 0.3750 0.0000 1.0000
vt 0.3750 1.0000 1.0000
vt 0.5000 0.0000 1.0000
vt 0.5000 1.0000 1.0000
vt 0.6250 0.0000 1.0000
vt 0.6250 1.0000 1.0000
vt 1.0000 0.5000 -0.2500
vt 0.8536 0.1464 -0.2500
vt 0.5000 0.0000 -0.2500
vt 0.5000 1.0000 -0.2500
vt 0.1464 0.1464 -0.2500
vt 0.0000 0.5000 -0.2500
vt 0.1464 0.8536 -0.2500
vt 0.8536 0.8536 -0.2500
vt 0.1464 0.8536 0.2500
vt 0.0000 0.5000 0.2500
vt 0.1464 0.1464 0.2500
vt 0.8536 0.8536 0.2500
vt 0.5000 0.0000 0.2500
vt 0.8536 0.1464 0.2500
vt 1.0000 0.5000 0.2500
vt 0.5000 1.0000 0.2500
# 34 texture coords

g Cylinder001
usemtl wire_113135006
s 8
f 1/1/1 2/2/2 3/3/2 4/4/1 
f 2/2/2 5/5/3 6/6/3 3/3/2 
f 5/7/3 7/8/4 8/9/4 6/10/3 
f 7/8/4 9/11/5 10/12/5 8/9/4 
f 9/11/5 11/13/6 12/14/6 10/12/5 
f 11/13/6 13/15/7 14/16/7 12/14/6 
f 13/15/7 15/17/8 16/18/8 14/16/7 
f 15/17/8 1/1/1 4/4/1 16/18/8 
s 1
f 17/19/9 18/20/9 19/21/9 20/22/9 
f 19/21/9 21/23/9 22/24/9 20/22/9 
f 22/24/9 23/25/9 20/22/9 
f 24/26/9 17/19/9 20/22/9 
f 25/27/10 26/28/10 27/29/10 28/30/10 
f 27/29/10 29/31/10 30/32/10 28/30/10 
f 30/32/10 31/33/10 28/30/10 
f 32/34/10 25/27/10 28/30/10 
s off
f 4/34/10 3/27/10 33/27/10 34/34/10 
f 3/27/10 6/28/10 35/28/10 33/27/10 
f 6/28/10 8/29/10 36/29/10 35/28/10 
f 8/29/10 10/31/10 37/31/10 36/29/10 
f 10/31/10 12/32/10 38/32/10 37/31/10 
f 12/32/10 14/33/10 39/33/10 38/32/10 
f 14/33/10 16/30/10 40/30/10 39/33/10 
f 16/30/10 4/34/10 34/34/10 40/30/10 
f 34/34/11 33/27/11 41/27/11 42/34/11 
f 33/27/12 35/28/12 43/28/12 41/27/12 
f 35/28/13 36/29/13 44/29/13 43/28/13 
f 36/29/14 37/31/14 45/31/14 44/29/14 
f 37/31/15 38/32/15 46/32/15 45/31/15 
f 38/32/16 39/33/16 47/33/16 46/32/16 
f 39/33/17 40/30/17 48/30/17 47/33/17 
f 40/30/18 34/34/18 42/34/18 48/30/18 
f 42/34/19 41/27/19 49/27/19 50/34/19 
f 41/27/20 43/28/20 51/28/20 49/27/20 
f 43/28/21 44/29/21 52/29/21 51/28/21 
f 44/29/22 45/31/22 53/31/22 52/29/22 
f 45/31/23 46/32/23 54/32/23 53/31/23 
f 46/32/24 47/33/24 55/33/24 54/32/24 
f 47/33/25 48/30/25 56/30/25 55/33/25 
f 48/30/26 42/34/26 50/34/26 56/30/26 
f 50/34/27 49/27/27 25/27/27 32/34/27 
f 49/27/28 51/28/28 26/28/28 25/27/28 
f 51/28/29 52/29/29 27/29/29 26/28/29 
f 52/29/30 53/31/30 29/31/30 27/29/30 
f 53/31/31 54/32/31 30/32/31 29/31/31 
f 54/32/32 55/33/32 31/33/32 30/32/32 
f 55/33/33 56/30/33 28/30/33 31/33/33 
f 56/30/34 50/34/34 32/34/34 28/30/34 
f 2/25/9 1/22/9 57/22/9 58/25/9 
f 1/22/9 15/26/9 59/26/9 57/22/9 
f 15/26/9 13/19/9 60/19/9 59/26/9 
f 13/19/9 11/20/9 61/20/9 60/19/9 
f 11/20/9 9/21/9 62/21/9 61/20/9 
f 9/21/9 7/23/9 63/23/9 62/21/9 
f 7/23/9 5/24/9 64/24/9 63/23/9 
f 5/24/9 2/25/9 58/25/9 64/24/9 
f 58/25/27 57/22/27 65/22/27 66/25/27 
f 57/22/34 59/26/34 67/26/34 65/22/34 
f 59/26/33 60/19/33 68/19/33 67/26/33 
f 60/19/32 61/20/32 69/20/32 68/19/32 
f 61/20/31 62/21/31 70/21/31 69/20/31 
f 62/21/30 63/23/30 71/23/30 70/21/30 
f 63/23/29 64/24/29 72/24/29 71/23/29 
f 64/24/28 58/25/28 66/25/28 72/24/28 
f 66/25/35 65/22/35 73/22/35 74/25/35 
f 65/22/36 67/26/36 75/26/36 73/22/36 
f 67/26/37 68/19/37 76/19/37 75/26/37 
f 68/19/38 69/20/38 77/20/38 76/19/38 
f 69/20/39 70/21/39 78/21/39 77/20/39 
f 70/21/40 71/23/40 79/23/40 78/21/40 
f 71/23/41 72/24/41 80/24/41 79/23/41 
f 72/24/42 66/25/42 74/25/42 80/24/42 
f 74/25/27 73/22/27 20/22/27 23/25/27 
f 73/22/34 75/26/34 24/26/34 20/22/34 
f 75/26/33 76/19/33 17/19/33 24/26/33 
f 76/19/32 77/20/32 18/20/32 17/19/32 
f 77/20/31 78/21/31 19/21/31 18/20/31 
f 78/21/30 79/23/30 21/23/30 19/21/30 
f 79/23/29 80/24/29 22/24/29 21/23/29 
f 80/24/28 74/25/28 23/25/28 22/24/28 
# 76 polygons - 4 triangles

