# 3ds Max Wavefront OBJ Exporter v0.97b - (c)2007 guruware
# File Created: 14.10.2015 10:48:21

mtllib Torso Start.mtl

#
# object Body
#

v  -3.5053 84.5465 -4.7087
v  -2.7795 82.8175 0.4419
v  -2.3585 86.2806 1.9469
v  -2.7104 89.5090 -3.4474
v  0.0000 82.4510 1.1153
v  0.0000 85.8585 2.6521
v  0.0000 84.6320 -5.3821
v  0.0000 79.4296 -8.6251
v  -3.8055 79.4296 -8.8256
v  0.0000 73.5222 -9.0799
v  -5.2597 74.3970 -9.8174
v  -9.6328 74.6090 0.0968
v  -10.2031 73.9045 -8.0966
v  -9.2594 71.1441 -7.3608
v  -8.5374 71.5743 0.1521
v  0.5702 69.0899 -7.8926
v  -3.4098 69.0899 -8.3515
v  -6.7526 63.8252 4.7894
v  -7.6931 63.6621 -3.3122
v  -7.4758 60.0925 -2.5911
v  -6.5605 59.6599 4.9021
v  -0.0000 64.8869 -6.2382
v  -0.0000 60.2255 -4.7549
v  -2.4568 60.2255 -4.7549
v  -2.6642 64.8869 -6.2382
v  -8.9595 53.9146 -4.9405
v  -8.0441 52.8059 2.6617
v  0.0000 54.0132 -7.7656
v  -3.2553 54.0132 -7.7656
v  -9.1269 53.4597 -4.9398
v  -8.2113 52.3469 1.7320
v  0.0000 50.1632 -8.3194
v  -3.2553 50.1632 -8.3194
v  -2.3398 49.0338 4.4014
v  -0.8353 46.4658 -4.4282
v  -0.6004 46.4285 1.6127
v  0.0000 46.4658 -4.4282
v  -9.5977 82.1189 -5.0654
v  -8.7674 80.6684 0.6255
v  -10.3125 79.2037 -8.2622
v  -2.3398 52.8839 4.7746
v  -2.3398 58.0749 6.4703
v  -2.4968 65.3373 6.4703
v  -3.5971 69.5403 6.3131
v  -5.8478 73.9726 6.1517
v  -6.1172 78.5805 4.5923
v  -10.0206 78.2565 1.4651
v  0.0000 89.9311 -4.1526
v  0.0000 78.5805 4.2852
v  -0.0000 73.9726 5.5606
v  0.0000 70.4224 6.0214
v  -0.0000 65.3373 6.4703
v  0.0000 58.0749 6.4703
v  0.0000 52.8839 4.7746
v  0.0000 49.0338 4.4014
v  0.0000 46.4285 1.6127
v  -34.6491 71.3247 -4.7930
v  -34.5977 70.8866 -1.7153
v  -35.6342 72.3772 -0.8868
v  -35.5703 72.9358 -5.3392
v  -12.0141 77.7234 1.1976
v  -11.7649 74.2527 -0.3365
v  -11.0423 80.9086 0.8639
v  -11.3610 82.0681 -4.8735
v  -12.6418 79.3336 -7.3897
v  -12.0287 74.3525 -7.5360
v  -35.9913 74.2607 -1.2163
v  -35.9435 74.6363 -4.3653
v  -13.8307 76.9990 1.2895
v  -13.8558 74.1270 -0.4228
v  -12.9251 80.2196 0.6450
v  -12.6730 81.4635 -4.3116
v  -14.2527 78.6961 -6.9146
v  -13.8893 74.6997 -6.8140
v  -14.9128 75.0086 -6.9234
v  -15.2950 74.2934 -0.0377
v  -18.6869 73.0647 -0.3943
v  -18.6325 73.7284 -6.0627
v  -15.8786 76.5623 1.2484
v  -19.9811 75.4031 1.1302
v  -16.6893 78.8459 0.1644
v  -20.2311 78.4781 0.1603
v  -16.8643 79.7740 -5.4131
v  -20.0973 79.1063 -5.1102
v  -16.1222 79.1556 -7.3322
v  -19.9007 77.4087 -6.5592
v  -21.3542 72.8175 -0.6908
v  -21.3186 73.4308 -5.7265
v  -22.6044 74.8636 0.6390
v  -22.8095 77.4610 -0.0376
v  -22.6828 78.0527 -5.0241
v  -22.4379 75.9580 -6.4782
v  -22.4904 72.7826 -0.9413
v  -23.7296 72.3866 -0.8421
v  -23.7088 72.9947 -5.6338
v  -22.4642 73.3446 -5.4669
v  -23.6383 74.6756 0.2625
v  -24.9722 74.4547 0.4348
v  -23.8378 77.0682 -0.2697
v  -25.1956 77.0498 -0.1215
v  -23.7203 77.6151 -4.8887
v  -25.0711 77.6284 -5.0138
v  -23.4685 75.4673 -6.6987
v  -24.7930 75.2954 -6.4849
v  -27.4848 72.2580 -5.7291
v  -27.4868 71.6036 -0.8591
v  -28.8250 73.8824 0.4450
v  -29.0859 76.6911 -0.1006
v  -28.9590 77.2777 -5.0775
v  -28.6445 74.7436 -6.5932
# 110 vertices

vn -0.9847 0.0977 0.1442
vn -0.9863 0.0519 0.1564
vn -0.9854 0.0852 0.1476
vn -0.9829 0.1225 0.1374
vn -0.2878 -0.3691 0.8837
vn -0.3271 -0.3885 0.8614
vn -0.3012 -0.3758 0.8764
vn -0.2642 -0.3572 0.8959
vn -0.0593 0.5808 -0.8119
vn 0.1133 0.1154 -0.9868
vn -0.9427 -0.3180 0.1005
vn 0.1026 -0.2376 -0.9659
vn -0.9923 -0.0399 0.1174
vn 0.0000 -0.3032 -0.9529
vn -0.9753 0.1741 0.1361
vn 0.0000 0.4361 -0.8999
vn -0.9681 0.1970 0.1548
vn 0.0000 0.1424 -0.9898
vn -0.8359 -0.5486 0.0171
vn 0.0000 -0.7249 -0.6888
vn -0.3408 0.8878 0.3093
vn -0.1542 0.6758 -0.7208
vn -0.2008 0.1040 -0.9741
vn -0.2752 -0.3406 -0.8990
vn -0.4091 -0.2557 -0.8759
vn -0.3893 0.4252 -0.8171
vn -0.4399 0.1313 -0.8884
vn -0.4923 -0.8688 -0.0540
vn -0.4281 -0.2463 0.8695
vn -0.3697 -0.2471 0.8957
vn -0.3579 -0.0017 0.9338
vn -0.6366 0.1498 0.7565
vn -0.7667 -0.0462 0.6404
vn -0.3583 0.7059 0.6110
vn -0.2169 0.2534 -0.9427
vn -0.1880 0.2701 -0.9443
vn -0.2458 0.2363 -0.9401
vn -0.2773 0.2171 -0.9359
vn -0.0029 0.6708 0.7416
vn 0.0715 0.2952 0.9528
vn 0.0832 0.1008 0.9914
vn -0.0000 -0.0000 1.0000
vn -0.0000 -0.3105 0.9506
vn -0.0000 -0.0965 0.9953
vn -0.0000 -0.7307 0.6827
vn -0.8464 -0.5277 -0.0713
vn -0.0741 -0.3822 0.9211
vn -0.0213 0.2132 0.9768
vn 0.0687 0.9741 0.2155
vn -0.1590 0.7292 -0.6656
vn -0.3290 -0.0249 -0.9440
vn -0.9805 -0.1929 -0.0381
vn 0.0993 -0.4506 0.8872
vn -0.1021 0.1793 0.9785
vn -0.3479 0.9143 0.2076
vn -0.4830 0.7178 -0.5016
vn -0.3236 -0.0304 -0.9457
vn 0.3255 -0.9411 -0.0920
vn 0.1005 -0.4880 0.8671
vn -0.0833 0.3422 0.9359
vn -0.1435 0.9795 0.1411
vn -0.3418 0.7272 -0.5953
vn -0.1481 -0.1598 -0.9760
vn 0.0997 -0.9881 -0.1170
vn -0.0396 -0.5612 0.8267
vn -0.2023 0.2580 0.9447
vn -0.3722 0.9227 0.1003
vn -0.2981 0.5581 -0.7744
vn -0.0109 -0.2011 -0.9795
vn 0.2886 -0.9502 -0.1179
vn 0.1965 -0.4325 0.8800
vn 0.0960 0.2200 0.9708
vn -0.0009 0.9931 0.1175
vn -0.0615 0.5849 -0.8088
vn 0.0646 -0.4000 -0.9142
vn 0.1130 -0.9842 -0.1360
vn -0.0519 -0.5164 0.8548
vn -0.2156 0.1515 0.9646
vn -0.3438 0.9334 0.1031
vn -0.2659 0.4561 -0.8493
vn -0.0749 -0.3584 -0.9306
vn 0.0522 -0.9912 -0.1215
vn -0.1639 -0.6023 0.7813
vn -0.3282 0.1972 0.9238
vn -0.3751 0.9216 0.0997
vn -0.2267 0.5771 -0.7846
vn 0.0789 -0.3605 -0.9294
vn 0.1980 -0.9720 -0.1265
vn 0.0832 -0.4718 0.8778
vn -0.0199 0.1981 0.9800
vn -0.0909 0.9893 0.1145
vn -0.0415 0.5189 -0.8538
vn 0.0768 -0.3043 -0.9495
vn 0.0163 -0.9971 -0.0742
vn 0.0635 -0.9940 -0.0894
vn -0.1463 -0.9890 -0.0203
vn -0.1860 -0.9825 -0.0068
vn 0.1006 -0.9949 0.0019
vn 0.1687 -0.9855 -0.0198
vn -0.1546 -0.9846 0.0816
vn -0.2087 -0.9730 0.0982
vn 0.1945 -0.0325 -0.9804
vn 0.1016 -0.0158 -0.9947
vn 0.1253 -0.0200 -0.9919
vn 0.2096 -0.0352 -0.9772
vn -0.2589 -0.9595 -0.1112
vn -0.1376 -0.9866 -0.0877
vn -0.1546 -0.9838 -0.0911
vn -0.2758 -0.9544 -0.1144
vn 0.1415 -0.4776 0.8671
vn 0.0917 -0.5105 0.8550
vn 0.1145 -0.4956 0.8609
vn 0.1821 -0.4490 0.8748
vn -0.1685 0.3093 0.9359
vn -0.2114 0.2486 0.9452
vn -0.1685 0.3094 0.9359
vn -0.1028 0.3965 0.9122
vn -0.3808 0.9068 0.1809
vn -0.4114 0.8888 0.2021
vn -0.3881 0.9027 0.1860
vn -0.3566 0.9197 0.1642
vn 0.0044 0.7922 -0.6103
vn 0.3087 0.5522 -0.7744
vn -0.0148 0.8026 -0.5963
vn -0.2563 0.8867 -0.3848
vn -0.9820 -0.1531 0.1104
vn 0.0629 -0.4071 -0.9112
vn -0.3281 -0.4906 -0.8073
vn -0.7982 -0.3433 0.4951
vn 0.0376 0.0695 0.9969
# 130 vertex normals

vt 0.0000 0.0000 0.0000
vt 1.0000 0.0000 0.0000
vt 1.0000 1.0000 0.0000
vt 0.0000 1.0000 0.0000
vt 0.5000 0.0000 0.0000
vt 0.5000 1.0000 0.0000
vt 0.3764 0.0000 0.0000
vt 0.3087 0.0000 0.0000
vt 0.4375 0.0000 0.0000
vt 0.5629 0.0000 0.0000
vt 0.5699 0.0000 0.0000
# 11 texture coords

g Body
usemtl 03___Default
s 16
f 1/1/1 2/2/2 3/3/3 4/4/4 
s 32
f 5/5/5 6/6/6 3/4/7 2/1/8 
s off
f 1/2/9 7/5/9 8/7/9 9/2/9 
f 9/2/10 8/7/10 10/8/10 11/2/10 
f 12/2/11 13/1/11 14/1/11 15/2/11 
f 10/8/12 16/9/12 17/2/12 11/2/12 
f 18/2/13 19/1/13 20/1/13 21/2/13 
f 22/10/14 23/11/14 24/2/14 25/2/14 
f 21/2/15 20/1/15 26/1/15 27/2/15 
f 24/2/16 23/11/16 28/5/16 29/2/16 
f 27/2/17 26/1/17 30/1/17 31/2/17 
f 28/5/18 32/5/18 33/2/18 29/2/18 
f 34/2/19 33/1/19 35/1/19 36/2/19 
f 32/5/20 37/5/20 35/2/20 33/2/20 
f 2/2/21 1/1/21 38/1/21 39/2/21 
f 1/1/22 9/1/22 40/1/22 38/1/22 
f 9/1/23 11/1/23 13/1/23 40/1/23 
f 11/1/24 17/1/24 14/1/24 13/1/24 
f 25/1/25 24/1/25 20/1/25 19/1/25 
f 24/1/26 29/1/26 26/1/26 20/1/26 
f 29/1/27 33/1/27 30/1/27 26/1/27 
f 33/1/28 34/2/28 31/2/28 30/1/28 
f 34/2/29 41/2/29 27/2/29 31/2/29 
f 41/2/30 42/2/30 21/2/30 27/2/30 
f 42/2/31 43/2/31 18/2/31 21/2/31 
f 44/2/32 15/2/32 18/2/32 43/2/32 
f 45/2/33 46/2/33 47/2/33 12/2/33 
f 46/2/34 2/2/34 39/2/34 47/2/34 
s 8
f 7/5/35 1/2/36 4/3/37 48/6/38 
s off
f 5/5/39 2/1/39 46/1/39 49/5/39 
f 49/5/40 46/1/40 45/1/40 50/5/40 
f 50/5/41 45/1/41 44/1/41 51/5/41 
f 52/5/42 43/1/42 42/1/42 53/5/42 
f 42/1/43 41/1/43 54/5/43 53/5/43 
f 41/1/44 34/1/44 55/5/44 54/5/44 
f 55/5/45 34/1/45 36/1/45 56/5/45 
f 57/1/46 58/2/46 59/2/46 60/1/46 
f 12/2/47 47/2/47 61/2/47 62/2/47 
f 47/2/48 39/2/48 63/2/48 61/2/48 
f 39/2/49 38/1/49 64/1/49 63/2/49 
f 38/1/50 40/1/50 65/1/50 64/1/50 
f 40/1/51 13/1/51 66/1/51 65/1/51 
f 60/1/52 59/2/52 67/2/52 68/1/52 
f 62/2/53 61/2/53 69/2/53 70/2/53 
f 61/2/54 63/2/54 71/2/54 69/2/54 
f 63/2/55 64/1/55 72/1/55 71/2/55 
f 64/1/56 65/1/56 73/1/56 72/1/56 
f 65/1/57 66/1/57 74/1/57 73/1/57 
f 75/1/58 76/2/58 77/2/58 78/1/58 
f 76/2/59 79/2/59 80/2/59 77/2/59 
f 79/2/60 81/2/60 82/2/60 80/2/60 
f 81/2/61 83/1/61 84/1/61 82/2/61 
f 83/1/62 85/1/62 86/1/62 84/1/62 
f 85/1/63 75/1/63 78/1/63 86/1/63 
f 77/2/64 87/2/64 88/1/64 78/1/64 
f 80/2/65 89/2/65 87/2/65 77/2/65 
f 80/2/66 82/2/66 90/2/66 89/2/66 
f 82/2/67 84/1/67 91/1/67 90/2/67 
f 86/1/68 92/1/68 91/1/68 84/1/68 
f 86/1/69 78/1/69 88/1/69 92/1/69 
f 93/2/70 94/2/70 95/1/70 96/1/70 
f 97/2/71 98/2/71 94/2/71 93/2/71 
f 97/2/72 99/2/72 100/2/72 98/2/72 
f 99/2/73 101/1/73 102/1/73 100/2/73 
f 103/1/74 104/1/74 102/1/74 101/1/74 
f 103/1/75 96/1/75 95/1/75 104/1/75 
f 105/1/76 106/2/76 58/2/76 57/1/76 
f 106/2/77 107/2/77 59/2/77 58/2/77 
f 107/2/78 108/2/78 67/2/78 59/2/78 
f 108/2/79 109/1/79 68/1/79 67/2/79 
f 109/1/80 110/1/80 60/1/80 68/1/80 
f 110/1/81 105/1/81 57/1/81 60/1/81 
f 87/2/82 93/2/82 96/1/82 88/1/82 
f 89/2/83 97/2/83 93/2/83 87/2/83 
f 99/2/84 97/2/84 89/2/84 90/2/84 
f 101/1/85 99/2/85 90/2/85 91/1/85 
f 92/1/86 103/1/86 101/1/86 91/1/86 
f 96/1/87 103/1/87 92/1/87 88/1/87 
f 94/2/88 106/2/88 105/1/88 95/1/88 
f 98/2/89 107/2/89 106/2/89 94/2/89 
f 108/2/90 107/2/90 98/2/90 100/2/90 
f 109/1/91 108/2/91 100/2/91 102/1/91 
f 104/1/92 110/1/92 109/1/92 102/1/92 
f 105/1/93 110/1/93 104/1/93 95/1/93 
s 1
f 62/5/94 70/8/95 74/5/96 66/5/97 
s 2
f 12/2/98 62/5/99 66/5/100 13/1/101 
f 73/1/102 74/1/103 75/1/104 85/1/105 
s 4
f 74/5/106 70/8/107 76/2/108 75/1/109 
s 2
f 70/2/110 69/2/111 79/2/112 76/2/113 
s 4
f 69/2/114 71/2/115 81/2/116 79/2/117 
s 2
f 71/2/118 72/1/119 83/1/120 81/2/121 
s 4
f 72/1/122 73/1/123 85/1/124 83/1/125 
s off
f 19/1/126 18/2/126 15/2/126 14/1/126 
f 16/9/127 22/10/127 25/2/127 17/2/127 
f 25/1/128 19/1/128 14/1/128 17/1/128 
f 45/2/129 12/2/129 15/2/129 44/2/129 
f 43/1/130 52/5/130 51/5/130 44/1/130 
# 97 polygons

#
# object Body001
#

v  3.5053 84.5465 -4.7087
v  2.7795 82.8175 0.4419
v  2.3585 86.2806 1.9469
v  2.7104 89.5090 -3.4474
v  -0.0000 82.4510 1.1153
v  0.0000 85.8585 2.6521
v  -0.0000 84.6320 -5.3821
v  0.0000 79.4296 -8.6251
v  3.8055 79.4296 -8.8256
v  0.0000 73.5222 -9.0799
v  5.2597 74.3970 -9.8174
v  9.6328 74.6090 0.0968
v  10.2031 73.9045 -8.0966
v  9.2594 71.1441 -7.3608
v  8.5374 71.5743 0.1521
v  -0.5702 69.0899 -7.8926
v  3.4098 69.0899 -8.3515
v  6.7526 63.8252 4.7894
v  7.6931 63.6621 -3.3122
v  7.4758 60.0925 -2.5911
v  6.5605 59.6599 4.9021
v  0.0000 64.8869 -6.2382
v  0.0000 60.2255 -4.7549
v  2.4568 60.2255 -4.7549
v  2.6642 64.8869 -6.2382
v  8.9595 53.9146 -4.9405
v  8.0441 52.8059 2.6617
v  -0.0000 54.0132 -7.7656
v  3.2553 54.0132 -7.7656
v  9.1269 53.4597 -4.9398
v  8.2113 52.3469 1.7320
v  -0.0000 50.1632 -8.3194
v  3.2553 50.1632 -8.3194
v  2.3398 49.0338 4.4014
v  0.8353 46.4658 -4.4282
v  0.6004 46.4285 1.6127
v  -0.0000 46.4658 -4.4282
v  9.5977 82.1189 -5.0654
v  8.7674 80.6684 0.6255
v  10.3125 79.2037 -8.2622
v  2.3398 52.8839 4.7746
v  2.3398 58.0749 6.4703
v  2.4968 65.3373 6.4703
v  3.5971 69.5403 6.3131
v  5.8478 73.9726 6.1517
v  6.1172 78.5805 4.5923
v  10.0206 78.2565 1.4651
v  0.0000 89.9311 -4.1526
v  -0.0000 78.5805 4.2852
v  0.0000 73.9726 5.5606
v  0.0000 70.4224 6.0214
v  0.0000 65.3373 6.4703
v  0.0000 58.0749 6.4703
v  0.0000 52.8839 4.7746
v  0.0000 49.0338 4.4014
v  0.0000 46.4285 1.6127
v  34.6491 71.3247 -4.7930
v  34.5977 70.8866 -1.7153
v  35.6342 72.3772 -0.8868
v  35.5703 72.9358 -5.3392
v  12.0141 77.7234 1.1976
v  11.7649 74.2527 -0.3365
v  11.0423 80.9086 0.8639
v  11.3610 82.0681 -4.8735
v  12.6418 79.3336 -7.3897
v  12.0287 74.3525 -7.5360
v  35.9913 74.2607 -1.2163
v  35.9435 74.6363 -4.3653
v  13.8307 76.9990 1.2895
v  13.8558 74.1270 -0.4228
v  12.9251 80.2196 0.6450
v  12.6730 81.4635 -4.3116
v  14.2527 78.6961 -6.9146
v  13.8893 74.6997 -6.8140
v  14.9128 75.0086 -6.9234
v  15.2950 74.2934 -0.0377
v  18.6869 73.0647 -0.3943
v  18.6325 73.7284 -6.0627
v  15.8786 76.5623 1.2484
v  19.9811 75.4031 1.1302
v  16.6893 78.8459 0.1644
v  20.2311 78.4781 0.1603
v  16.8643 79.7740 -5.4131
v  20.0973 79.1063 -5.1102
v  16.1222 79.1556 -7.3322
v  19.9007 77.4087 -6.5592
v  21.3542 72.8175 -0.6908
v  21.3186 73.4308 -5.7265
v  22.6044 74.8636 0.6390
v  22.8095 77.4610 -0.0376
v  22.6828 78.0527 -5.0241
v  22.4379 75.9580 -6.4782
v  22.4904 72.7826 -0.9413
v  23.7296 72.3866 -0.8421
v  23.7088 72.9947 -5.6338
v  22.4642 73.3446 -5.4669
v  23.6383 74.6756 0.2625
v  24.9722 74.4547 0.4348
v  23.8378 77.0682 -0.2697
v  25.1956 77.0498 -0.1215
v  23.7203 77.6151 -4.8887
v  25.0711 77.6284 -5.0138
v  23.4685 75.4673 -6.6987
v  24.7930 75.2954 -6.4849
v  27.4848 72.2580 -5.7291
v  27.4868 71.6036 -0.8591
v  28.8250 73.8824 0.4450
v  29.0859 76.6911 -0.1006
v  28.9590 77.2777 -5.0775
v  28.6445 74.7436 -6.5932
# 110 vertices

vn 0.9847 0.0977 0.1442
vn 0.9863 0.0519 0.1564
vn 0.9854 0.0852 0.1476
vn 0.9829 0.1225 0.1374
vn 0.2878 -0.3691 0.8837
vn 0.3271 -0.3885 0.8614
vn 0.3012 -0.3758 0.8764
vn 0.2642 -0.3572 0.8959
vn 0.0593 0.5808 -0.8119
vn -0.1133 0.1154 -0.9868
vn 0.9427 -0.3180 0.1005
vn -0.1026 -0.2376 -0.9659
vn 0.9923 -0.0399 0.1174
vn -0.0000 -0.3032 -0.9529
vn 0.9753 0.1741 0.1361
vn 0.0000 0.4361 -0.8999
vn 0.9681 0.1970 0.1548
vn -0.0000 0.1424 -0.9898
vn 0.8359 -0.5486 0.0171
vn -0.0000 -0.7249 -0.6888
vn 0.3408 0.8878 0.3093
vn 0.1542 0.6758 -0.7208
vn 0.2008 0.1040 -0.9741
vn 0.2752 -0.3406 -0.8990
vn 0.4091 -0.2557 -0.8759
vn 0.3893 0.4252 -0.8171
vn 0.4399 0.1313 -0.8884
vn 0.4923 -0.8688 -0.0540
vn 0.4281 -0.2463 0.8695
vn 0.3697 -0.2471 0.8957
vn 0.3579 -0.0017 0.9338
vn 0.6366 0.1498 0.7565
vn 0.7667 -0.0462 0.6404
vn 0.3583 0.7059 0.6110
vn 0.2169 0.2534 -0.9427
vn 0.1880 0.2701 -0.9443
vn 0.2458 0.2363 -0.9401
vn 0.2773 0.2171 -0.9359
vn 0.0029 0.6708 0.7416
vn -0.0715 0.2952 0.9528
vn -0.0832 0.1008 0.9914
vn 0.0000 -0.0000 1.0000
vn 0.0000 -0.3105 0.9506
vn 0.0000 -0.0965 0.9953
vn 0.0000 -0.7307 0.6827
vn 0.8464 -0.5277 -0.0713
vn 0.0741 -0.3822 0.9211
vn 0.0213 0.2132 0.9768
vn -0.0687 0.9741 0.2155
vn 0.1590 0.7292 -0.6656
vn 0.3290 -0.0249 -0.9440
vn 0.9805 -0.1929 -0.0381
vn -0.0993 -0.4506 0.8872
vn 0.1021 0.1793 0.9785
vn 0.3479 0.9143 0.2076
vn 0.4830 0.7178 -0.5016
vn 0.3236 -0.0304 -0.9457
vn -0.3255 -0.9411 -0.0920
vn -0.1005 -0.4880 0.8671
vn 0.0833 0.3422 0.9359
vn 0.1435 0.9795 0.1411
vn 0.3418 0.7272 -0.5953
vn 0.1481 -0.1598 -0.9760
vn -0.0997 -0.9881 -0.1170
vn 0.0396 -0.5612 0.8267
vn 0.2023 0.2580 0.9447
vn 0.3722 0.9227 0.1003
vn 0.2981 0.5581 -0.7744
vn 0.0109 -0.2011 -0.9795
vn -0.2886 -0.9502 -0.1179
vn -0.1965 -0.4325 0.8800
vn -0.0960 0.2200 0.9708
vn 0.0009 0.9931 0.1175
vn 0.0615 0.5849 -0.8088
vn -0.0646 -0.4000 -0.9142
vn -0.1130 -0.9842 -0.1360
vn 0.0519 -0.5164 0.8548
vn 0.2156 0.1515 0.9646
vn 0.3438 0.9334 0.1031
vn 0.2659 0.4561 -0.8493
vn 0.0749 -0.3584 -0.9306
vn -0.0522 -0.9912 -0.1215
vn 0.1639 -0.6023 0.7813
vn 0.3282 0.1972 0.9238
vn 0.3751 0.9216 0.0997
vn 0.2267 0.5771 -0.7846
vn -0.0789 -0.3605 -0.9294
vn -0.1980 -0.9720 -0.1265
vn -0.0832 -0.4718 0.8778
vn 0.0199 0.1981 0.9800
vn 0.0909 0.9893 0.1145
vn 0.0415 0.5189 -0.8538
vn -0.0768 -0.3043 -0.9495
vn -0.0163 -0.9971 -0.0742
vn -0.0635 -0.9940 -0.0894
vn 0.1463 -0.9890 -0.0203
vn 0.1860 -0.9825 -0.0068
vn -0.1006 -0.9949 0.0019
vn -0.1687 -0.9855 -0.0198
vn 0.1546 -0.9846 0.0816
vn 0.2087 -0.9730 0.0982
vn -0.1945 -0.0325 -0.9804
vn -0.1016 -0.0158 -0.9947
vn -0.1253 -0.0200 -0.9919
vn -0.2096 -0.0352 -0.9772
vn 0.2589 -0.9595 -0.1112
vn 0.1376 -0.9866 -0.0877
vn 0.1546 -0.9838 -0.0911
vn 0.2758 -0.9544 -0.1144
vn -0.1415 -0.4776 0.8671
vn -0.0917 -0.5105 0.8550
vn -0.1145 -0.4956 0.8609
vn -0.1821 -0.4490 0.8748
vn 0.1685 0.3093 0.9359
vn 0.2114 0.2486 0.9452
vn 0.1685 0.3094 0.9359
vn 0.1028 0.3965 0.9122
vn 0.3808 0.9068 0.1809
vn 0.4114 0.8888 0.2021
vn 0.3881 0.9027 0.1860
vn 0.3566 0.9197 0.1642
vn -0.0044 0.7922 -0.6103
vn -0.3087 0.5522 -0.7744
vn 0.0148 0.8026 -0.5963
vn 0.2563 0.8867 -0.3848
vn 0.9820 -0.1531 0.1104
vn -0.0629 -0.4071 -0.9112
vn 0.3281 -0.4906 -0.8073
vn 0.7982 -0.3433 0.4951
vn -0.0376 0.0695 0.9969
# 130 vertex normals

vt 0.0000 0.0000 0.0000
vt 1.0000 0.0000 0.0000
vt 1.0000 1.0000 0.0000
vt 0.0000 1.0000 0.0000
vt 0.5000 0.0000 0.0000
vt 0.5000 1.0000 0.0000
vt 0.3764 0.0000 0.0000
vt 0.3087 0.0000 0.0000
vt 0.4375 0.0000 0.0000
vt 0.5629 0.0000 0.0000
vt 0.5699 0.0000 0.0000
# 11 texture coords

g Body001
usemtl 03___Default
s 16
f 114/15/134 113/14/133 112/13/132 111/12/131 
s 32
f 112/12/138 113/15/137 116/17/136 115/16/135 
s off
f 119/13/139 118/18/139 117/16/139 111/13/139 
f 121/13/140 120/19/140 118/18/140 119/13/140 
f 125/13/141 124/12/141 123/12/141 122/13/141 
f 121/13/142 127/13/142 126/20/142 120/19/142 
f 131/13/143 130/12/143 129/12/143 128/13/143 
f 135/13/144 134/13/144 133/22/144 132/21/144 
f 137/13/145 136/12/145 130/12/145 131/13/145 
f 139/13/146 138/16/146 133/22/146 134/13/146 
f 141/13/147 140/12/147 136/12/147 137/13/147 
f 139/13/148 143/13/148 142/16/148 138/16/148 
f 146/13/149 145/12/149 143/12/149 144/13/149 
f 143/13/150 145/13/150 147/16/150 142/16/150 
f 149/13/151 148/12/151 111/12/151 112/13/151 
f 148/12/152 150/12/152 119/12/152 111/12/152 
f 150/12/153 123/12/153 121/12/153 119/12/153 
f 123/12/154 124/12/154 127/12/154 121/12/154 
f 129/12/155 130/12/155 134/12/155 135/12/155 
f 130/12/156 136/12/156 139/12/156 134/12/156 
f 136/12/157 140/12/157 143/12/157 139/12/157 
f 140/12/158 141/13/158 144/13/158 143/12/158 
f 141/13/159 137/13/159 151/13/159 144/13/159 
f 137/13/160 131/13/160 152/13/160 151/13/160 
f 131/13/161 128/13/161 153/13/161 152/13/161 
f 153/13/162 128/13/162 125/13/162 154/13/162 
f 122/13/163 157/13/163 156/13/163 155/13/163 
f 157/13/164 149/13/164 112/13/164 156/13/164 
s 8
f 158/17/168 114/14/167 111/13/166 117/16/165 
s off
f 159/16/169 156/12/169 112/12/169 115/16/169 
f 160/16/170 155/12/170 156/12/170 159/16/170 
f 161/16/171 154/12/171 155/12/171 160/16/171 
f 163/16/172 152/12/172 153/12/172 162/16/172 
f 163/16/173 164/16/173 151/12/173 152/12/173 
f 164/16/174 165/16/174 144/12/174 151/12/174 
f 166/16/175 146/12/175 144/12/175 165/16/175 
f 170/12/176 169/13/176 168/13/176 167/12/176 
f 172/13/177 171/13/177 157/13/177 122/13/177 
f 171/13/178 173/13/178 149/13/178 157/13/178 
f 173/13/179 174/12/179 148/12/179 149/13/179 
f 174/12/180 175/12/180 150/12/180 148/12/180 
f 175/12/181 176/12/181 123/12/181 150/12/181 
f 178/12/182 177/13/182 169/13/182 170/12/182 
f 180/13/183 179/13/183 171/13/183 172/13/183 
f 179/13/184 181/13/184 173/13/184 171/13/184 
f 181/13/185 182/12/185 174/12/185 173/13/185 
f 182/12/186 183/12/186 175/12/186 174/12/186 
f 183/12/187 184/12/187 176/12/187 175/12/187 
f 188/12/188 187/13/188 186/13/188 185/12/188 
f 187/13/189 190/13/189 189/13/189 186/13/189 
f 190/13/190 192/13/190 191/13/190 189/13/190 
f 192/13/191 194/12/191 193/12/191 191/13/191 
f 194/12/192 196/12/192 195/12/192 193/12/192 
f 196/12/193 188/12/193 185/12/193 195/12/193 
f 188/12/194 198/12/194 197/13/194 187/13/194 
f 187/13/195 197/13/195 199/13/195 190/13/195 
f 199/13/196 200/13/196 192/13/196 190/13/196 
f 200/13/197 201/12/197 194/12/197 192/13/197 
f 194/12/198 201/12/198 202/12/198 196/12/198 
f 202/12/199 198/12/199 188/12/199 196/12/199 
f 206/12/200 205/12/200 204/13/200 203/13/200 
f 203/13/201 204/13/201 208/13/201 207/13/201 
f 208/13/202 210/13/202 209/13/202 207/13/202 
f 210/13/203 212/12/203 211/12/203 209/13/203 
f 211/12/204 212/12/204 214/12/204 213/12/204 
f 214/12/205 205/12/205 206/12/205 213/12/205 
f 167/12/206 168/13/206 216/13/206 215/12/206 
f 168/13/207 169/13/207 217/13/207 216/13/207 
f 169/13/208 177/13/208 218/13/208 217/13/208 
f 177/13/209 178/12/209 219/12/209 218/13/209 
f 178/12/210 170/12/210 220/12/210 219/12/210 
f 170/12/211 167/12/211 215/12/211 220/12/211 
f 198/12/212 206/12/212 203/13/212 197/13/212 
f 197/13/213 203/13/213 207/13/213 199/13/213 
f 200/13/214 199/13/214 207/13/214 209/13/214 
f 201/12/215 200/13/215 209/13/215 211/12/215 
f 201/12/216 211/12/216 213/12/216 202/12/216 
f 198/12/217 202/12/217 213/12/217 206/12/217 
f 205/12/218 215/12/218 216/13/218 204/13/218 
f 204/13/219 216/13/219 217/13/219 208/13/219 
f 210/13/220 208/13/220 217/13/220 218/13/220 
f 212/12/221 210/13/221 218/13/221 219/12/221 
f 212/12/222 219/12/222 220/12/222 214/12/222 
f 205/12/223 214/12/223 220/12/223 215/12/223 
s 1
f 176/16/227 184/16/226 180/19/225 172/16/224 
s 2
f 123/12/231 176/16/230 172/16/229 122/13/228 
f 195/12/235 185/12/234 184/12/233 183/12/232 
s 4
f 185/12/239 186/13/238 180/19/237 184/16/236 
s 2
f 186/13/243 189/13/242 179/13/241 180/13/240 
s 4
f 189/13/247 191/13/246 181/13/245 179/13/244 
s 2
f 191/13/251 193/12/250 182/12/249 181/13/248 
s 4
f 193/12/255 195/12/254 183/12/253 182/12/252 
s off
f 124/12/256 125/13/256 128/13/256 129/12/256 
f 127/13/257 135/13/257 132/21/257 126/20/257 
f 127/12/258 124/12/258 129/12/258 135/12/258 
f 154/13/259 125/13/259 122/13/259 155/13/259 
f 154/12/260 161/16/260 162/16/260 153/12/260 
# 97 polygons

