# 3ds Max Wavefront OBJ Exporter v0.97b - (c)2007 guruware
# File Created: 08.10.2015 12:13:52

mtllib Sink.mtl

#
# object Cylinder001
#

v  3.7548 104.0077 -37.2735
v  2.6494 104.0077 -39.9423
v  2.6494 107.2817 -39.9423
v  3.7548 107.2817 -37.2735
v  -0.0194 104.0077 -41.0478
v  -0.0194 107.2817 -41.0478
v  -2.6883 104.0077 -39.9423
v  -2.6883 107.2817 -39.9423
v  -3.7937 104.0077 -37.2735
v  -3.7937 107.2817 -37.2735
v  -2.6883 104.0077 -34.6047
v  -2.6883 107.2817 -34.6047
v  -0.0194 104.0077 -33.4992
v  -0.0194 107.2817 -33.4992
v  2.6494 104.0077 -34.6047
v  2.6494 107.2817 -34.6047
v  2.6494 110.5482 -39.9423
v  3.7548 110.5482 -37.2735
v  -0.0194 110.5482 -41.0478
v  -2.6883 110.5482 -39.9423
v  -3.7937 110.5482 -37.2735
v  -22.7519 107.2817 -18.3154
v  -21.6464 107.2817 -15.6465
v  -21.6464 110.5481 -15.6465
v  -22.7519 110.5481 -18.3154
v  -18.9776 107.2817 -14.5411
v  -18.9776 110.5481 -14.5411
v  2.6494 110.5482 -34.6047
v  -0.0194 110.5482 -33.4992
v  2.6494 113.8146 -39.9423
v  3.7548 113.8146 -37.2735
v  -0.0194 113.8146 -41.0478
v  -2.6883 113.8146 -39.9423
v  -3.7937 113.8146 -37.2735
v  -22.0825 110.5481 -18.9847
v  -20.9770 110.5481 -16.3159
v  -20.9770 113.8146 -16.3159
v  -22.0825 113.8146 -18.9847
v  -18.3082 110.5481 -15.2104
v  -18.3082 113.8146 -15.2104
v  2.6494 113.8146 -34.6047
v  -0.0194 113.8146 -33.4992
v  0.7767 121.9089 -38.0696
v  -0.0194 121.9089 -38.3994
v  -0.8156 121.9089 -38.0696
v  0.7767 121.9089 -36.4774
v  -1.1453 121.9089 -37.2735
v  -0.8156 121.9089 -36.4774
v  -0.0194 121.9089 -36.1476
v  1.1065 121.9089 -37.2735
v  -98.9725 -48.9687 -48.9725
v  -92.7515 -48.9687 -48.9725
v  -92.7520 -48.9687 48.9725
v  -98.9725 -48.9687 48.9725
v  8.1383 100.0000 -24.7581
v  -8.1383 100.0000 -24.7581
v  -8.1383 100.0000 38.3318
v  8.1383 100.0000 38.3318
v  8.1383 59.0157 50.0000
v  -8.1383 59.0157 50.0000
v  -8.1383 11.3603 50.0000
v  8.1383 11.3603 50.0000
v  100.0000 100.0000 38.3318
v  100.0000 100.0000 50.0000
v  100.0000 59.0157 50.0000
v  100.0000 11.3603 50.0000
v  100.0000 100.0000 -24.7581
v  100.0000 0.0000 50.0000
v  100.0000 0.0000 -50.0000
v  100.0000 100.0000 -50.0000
v  -91.7240 0.0000 -50.0000
v  -100.0000 0.0000 -50.0000
v  -100.0000 100.0000 -50.0000
v  91.7240 0.0000 -50.0000
v  -8.1383 100.0000 -50.0000
v  8.1383 100.0000 -50.0000
v  91.7245 100.0000 -50.0000
v  -100.0000 59.0157 50.0000
v  -100.0000 100.0000 50.0000
v  -100.0000 100.0000 38.3318
v  -100.0000 100.0000 -24.7581
v  -100.0000 11.3603 50.0000
v  -100.0000 0.0000 50.0000
v  91.7245 100.0000 -24.7581
v  91.7245 100.0000 38.3318
v  86.5868 71.6735 -19.6205
v  13.2760 71.6735 -19.6205
v  13.2760 71.6735 33.1941
v  86.5868 71.6735 33.1941
v  91.7245 59.0157 50.0000
v  91.7245 11.3603 50.0000
v  91.7245 59.0157 -23.7700
v  8.1383 59.0157 -23.7700
v  8.1383 11.3603 -23.7700
v  91.7245 11.3603 -23.7700
v  -91.7245 11.3603 50.0000
v  -91.7245 59.0157 50.0000
v  -91.7245 11.3603 -23.7700
v  -8.1383 11.3603 -23.7700
v  -8.1383 59.0157 -23.7700
v  -91.7245 59.0157 -23.7700
v  -8.1383 100.0000 50.0000
v  8.1383 100.0000 50.0000
v  -8.1383 0.0000 50.0000
v  8.1383 0.0000 50.0000
v  91.7245 100.0000 50.0000
v  -91.7245 100.0000 50.0000
v  -91.7245 100.0000 38.3318
v  91.7245 0.0000 50.0000
v  -91.7245 0.0000 50.0000
v  -91.7245 100.0000 -24.7581
v  -5.2264 100.0000 -42.7169
v  5.2264 100.0000 -42.7169
v  -5.2264 100.0000 -32.0413
v  5.2264 100.0000 -32.0413
v  -5.2264 102.0000 -42.7169
v  5.2264 102.0000 -42.7169
v  -5.2264 102.0000 -32.0413
v  5.2264 102.0000 -32.0413
v  -4.2264 104.0075 -41.7169
v  0.0000 104.0075 -41.7169
v  4.2264 104.0075 -41.7169
v  -4.2264 104.0075 -33.0413
v  -4.2264 104.0075 -37.3791
v  4.2264 104.0075 -33.0413
v  0.0000 104.0075 -33.0413
v  4.2264 104.0075 -37.3791
v  -20.9770 107.2817 -16.3159
v  -22.0825 107.2817 -18.9847
v  -18.3082 107.2817 -15.2104
v  0.6499 107.2817 -32.8299
v  0.6499 110.5482 -32.8299
v  -17.6389 110.5481 -14.5411
v  -17.6389 107.2817 -14.5411
v  -2.6883 113.8146 -34.6047
v  -4.4631 110.5482 -37.9429
v  -4.4631 107.2817 -37.9429
v  -22.7519 107.2817 -19.6541
v  -22.7519 110.5481 -19.6541
v  2.4528 115.0990 -39.7457
v  3.4768 115.0990 -37.2735
v  -0.0194 115.0990 -40.7697
v  -2.4916 115.0990 -39.7457
v  -3.5157 115.0990 -37.2735
v  -2.4916 115.0990 -34.8013
v  -0.0194 115.0990 -33.7773
v  2.4528 115.0990 -34.8013
v  1.3665 115.0990 -38.6595
v  1.9406 115.0990 -37.2735
v  -0.0194 115.0990 -39.2336
v  -1.4054 115.0990 -38.6595
v  -1.9795 115.0990 -37.2735
v  -1.4054 115.0990 -35.8875
v  -0.0194 115.0990 -35.3134
v  1.3665 115.0990 -35.8875
v  1.3665 116.5594 -38.6595
v  1.9406 116.5594 -37.2735
v  -0.0194 116.5594 -39.2336
v  -1.4054 116.5594 -38.6595
v  -1.9795 116.5594 -37.2735
v  -1.4054 116.5594 -35.8875
v  -0.0194 116.5594 -35.3134
v  1.3665 116.5594 -35.8875
v  2.3496 117.8438 -39.6425
v  3.3309 117.8438 -37.2735
v  -0.0194 117.8438 -40.6238
v  -2.3885 117.8438 -39.6425
v  -3.3697 117.8438 -37.2735
v  -2.3885 117.8438 -34.9045
v  -0.0194 117.8438 -33.9232
v  2.3496 117.8438 -34.9045
v  2.3496 120.4126 -39.6425
v  3.3309 120.4126 -37.2735
v  3.5292 117.8438 -42.4905
v  1.1602 117.8438 -43.4717
v  1.1602 120.4126 -43.4717
v  3.5292 120.4126 -42.4905
v  -2.3885 120.4126 -39.6425
v  -0.0194 120.4126 -40.6238
v  -5.2364 117.8438 -40.8222
v  -6.2177 117.8438 -38.4532
v  -6.2177 120.4126 -38.4532
v  -5.2364 120.4126 -40.8222
v  -2.3885 120.4126 -34.9045
v  -3.3697 120.4126 -37.2735
v  -3.5681 117.8438 -32.0565
v  -1.1991 117.8438 -31.0753
v  -1.1991 120.4126 -31.0753
v  -3.5681 120.4126 -32.0565
v  2.3496 120.4126 -34.9045
v  -0.0194 120.4126 -33.9232
v  5.1975 117.8438 -33.7248
v  6.1788 117.8438 -36.0938
v  6.1788 120.4126 -36.0938
v  5.1975 120.4126 -33.7248
v  1.3665 121.6970 -38.6595
v  1.9406 121.6970 -37.2735
v  -0.0194 121.6970 -39.2336
v  -1.4054 121.6970 -38.6595
v  -1.9795 121.6970 -37.2735
v  -1.4054 121.6970 -35.8875
v  -0.0194 121.6970 -35.3134
v  1.3665 121.6970 -35.8875
v  98.9725 -48.9687 -48.9725
v  98.9725 -48.9687 48.9725
v  92.7520 -48.9687 48.9725
v  92.7515 -48.9687 -48.9725
v  -100.0000 -47.6843 -50.0000
v  -100.0000 -47.6843 50.0000
v  -91.7240 -47.6843 -50.0000
v  -91.7245 -47.6843 50.0000
v  100.0000 -47.6843 50.0000
v  100.0000 -47.6843 -50.0000
v  91.7245 -47.6843 50.0000
v  91.7240 -47.6843 -50.0000
v  -86.5868 71.6735 33.1941
v  -13.2760 71.6735 33.1941
v  -13.2760 71.6735 -19.6205
v  -86.5868 71.6735 -19.6205
v  91.7245 74.3117 -24.7581
v  91.7245 74.3117 38.3318
v  8.1383 74.3117 -24.7581
v  8.1383 74.3117 38.3318
v  -8.1383 74.3117 -24.7581
v  -8.1383 74.3117 38.3318
v  -91.7245 74.3117 -24.7581
v  -91.7245 74.3117 38.3318
# 227 vertices

vn 1.0000 0.0000 -0.0000
vn 0.7071 -0.0000 -0.7071
vn 0.7071 0.0000 -0.7071
vn 1.0000 0.0000 0.0000
vn -0.0000 -0.0000 -1.0000
vn 0.0000 -0.0000 -1.0000
vn -0.7071 -0.0000 -0.7071
vn -1.0000 0.0000 0.0000
vn -0.9906 -0.0000 -0.1368
vn -0.7071 0.0000 0.7071
vn 0.0000 0.0000 1.0000
vn 0.1368 0.0000 0.9906
vn 0.7071 0.0000 0.7071
vn 0.7071 -0.0000 0.7071
vn 1.0000 -0.0000 -0.0000
vn 0.0000 0.0000 -1.0000
vn -0.7071 0.0000 -0.7071
vn -0.9239 0.0000 -0.3827
vn -0.9239 0.0000 0.3827
vn -0.3827 0.0000 0.9239
vn 0.3827 -0.0000 0.9239
vn 0.3827 0.0000 0.9239
vn 0.0000 1.0000 -0.0000
vn 0.0000 -1.0000 -0.0000
vn -1.0000 0.0000 -0.0000
vn 0.0000 0.4459 -0.8951
vn -0.8951 0.4459 -0.0000
vn 0.0000 0.4459 0.8951
vn 0.8951 0.4459 -0.0000
vn 0.0001 1.0000 0.0003
vn 0.0000 1.0000 0.0001
vn 0.0000 1.0000 0.0002
vn 0.0002 1.0000 0.0004
vn -0.0001 1.0000 0.0003
vn -0.0002 1.0000 0.0004
vn -0.0000 1.0000 0.0002
vn -0.0002 1.0000 0.0000
vn -0.0002 1.0000 -0.0000
vn -0.0000 1.0000 -0.0002
vn 0.0000 1.0000 -0.0001
vn 0.0002 1.0000 -0.0000
vn 0.0002 1.0000 0.0000
vn -0.0000 1.0000 0.0000
vn 0.9059 0.1961 -0.3753
vn 0.3753 0.1961 -0.9059
vn -0.3753 0.1961 -0.9059
vn -0.9059 0.1961 -0.3753
vn -0.9059 0.1961 0.3753
vn -0.3753 0.1961 0.9059
vn 0.3753 0.1961 0.9059
vn 0.9059 0.1961 0.3753
vn 0.9239 0.0000 -0.3827
vn 0.3827 0.0000 -0.9239
vn -0.3827 0.0000 -0.9239
vn 0.9239 0.0000 0.3827
vn 0.6533 -0.7071 -0.2706
vn 0.2706 -0.7071 -0.6533
vn -0.2706 -0.7071 -0.6533
vn -0.6533 -0.7071 -0.2706
vn -0.6533 -0.7071 0.2706
vn -0.2706 -0.7071 0.6533
vn 0.2706 -0.7071 0.6533
vn 0.6533 -0.7071 0.2706
vn 0.6533 0.7071 -0.2706
vn 0.2706 0.7071 -0.6533
vn -0.2706 0.7071 -0.6533
vn -0.6533 0.7071 -0.2706
vn -0.6533 0.7071 0.2706
vn -0.2706 0.7071 0.6533
vn 0.2706 0.7071 0.6533
vn 0.6533 0.7071 0.2706
vn 0.2449 0.9642 -0.1014
vn 0.1014 0.9642 -0.2449
vn -0.1014 0.9642 -0.2449
vn -0.2449 0.9642 -0.1014
vn -0.2449 0.9642 0.1014
vn -0.1014 0.9642 0.2449
vn 0.1014 0.9642 0.2449
vn 0.2449 0.9642 0.1014
vn 1.0000 -0.0000 0.0000
vn -1.0000 -0.0000 0.0000
vn -0.7809 -0.6247 -0.0000
vn 0.0000 -0.6247 -0.7809
vn 0.7809 -0.6247 0.0000
vn 0.0000 -0.6247 0.7809
vn 0.7809 -0.6247 -0.0000
vn -0.7809 -0.6247 0.0000
vn -0.4568 0.8896 -0.0000
vn 0.0000 0.8896 0.4568
vn 0.4568 0.8896 -0.0000
vn 0.0000 0.8896 -0.4568
# 91 vertex normals

vt 0.7500 0.0000 1.0000
vt 0.8750 0.0000 1.0000
vt 0.8750 0.3333 1.0000
vt 0.7500 0.3333 1.0000
vt 1.0000 0.0000 1.0000
vt 1.0000 0.3333 1.0000
vt 0.0000 0.0000 1.0000
vt 0.1250 0.0000 1.0000
vt 0.1250 0.3333 1.0000
vt 0.0000 0.3333 1.0000
vt 0.2500 0.0000 1.0000
vt 0.2500 0.3333 1.0000
vt 0.3750 0.0000 1.0000
vt 0.3750 0.3333 1.0000
vt 0.5000 0.0000 1.0000
vt 0.5000 0.3333 1.0000
vt 0.6250 0.0000 1.0000
vt 0.6250 0.3333 1.0000
vt 0.8750 0.6667 1.0000
vt 0.7500 0.6667 1.0000
vt 1.0000 0.6667 1.0000
vt 0.1250 0.6667 1.0000
vt 0.0000 0.6667 1.0000
vt 0.2500 0.6667 1.0000
vt 0.3750 0.6667 1.0000
vt 0.5000 0.6667 1.0000
vt 0.6250 0.6667 1.0000
vt 0.8750 1.0000 1.0000
vt 0.7500 1.0000 1.0000
vt 1.0000 1.0000 1.0000
vt 0.1250 1.0000 1.0000
vt 0.0000 1.0000 1.0000
vt 0.2500 1.0000 1.0000
vt 0.3750 1.0000 1.0000
vt 0.5000 1.0000 1.0000
vt 0.6250 1.0000 1.0000
vt 0.1464 0.8536 0.2500
vt 0.0000 0.5000 0.2500
vt 0.1464 0.1464 0.2500
vt 0.8536 0.8536 0.2500
vt 0.5000 0.0000 0.2500
vt 0.8536 0.1464 0.2500
vt 1.0000 0.5000 0.2500
vt 0.5000 1.0000 0.2500
vt 1.0000 1.0000 0.0000
vt 0.9588 1.0000 0.0000
vt 0.8000 0.0000 0.0000
vt 1.0000 0.0000 0.0000
vt 0.6000 0.6667 0.0000
vt 0.4000 0.6667 0.0000
vt 0.4000 0.3333 0.0000
vt 0.6000 0.3333 0.0000
vt 0.3333 1.0000 0.0000
vt 0.0000 1.0000 0.0000
vt 0.0000 0.6667 0.0000
vt 0.0000 0.3333 0.0000
vt 0.6667 1.0000 0.0000
vt 0.0000 0.0000 0.0000
vt 0.9588 0.0000 0.0000
vt 0.0598 0.0000 0.0000
vt 0.6000 1.0000 0.0000
vt 0.4000 1.0000 0.0000
vt 0.2000 1.0000 0.0000
vt 1.0000 0.6667 0.0000
vt 1.0000 0.3333 0.0000
vt 0.8000 0.6667 0.0000
vt 0.8000 0.3333 0.0000
vt 0.2000 0.3333 0.0000
vt 0.2000 0.6667 0.0000
vt 0.4000 0.0000 0.0000
vt 0.6000 0.0000 0.0000
vt 0.8000 1.0000 0.0000
vt 0.2000 0.0000 0.0000
vt 0.5000 1.0000 0.0000
vt 0.4000 0.8333 0.0000
vt 0.5000 0.6667 0.0000
vt 0.6000 0.8333 0.0000
vt 0.0598 1.0000 0.0000
# 78 texture coords

g Cylinder001
usemtl 01___Default
s 8
f 1/1/1 2/2/2 3/3/3 4/4/4 
f 2/2/2 5/5/5 6/6/6 3/3/3 
f 5/7/5 7/8/7 8/9/7 6/10/6 
f 7/8/7 9/11/8 10/12/9 8/9/7 
f 9/11/8 11/13/10 12/14/10 10/12/9 
f 11/13/10 13/15/11 14/16/12 12/14/10 
f 13/15/11 15/17/13 16/18/14 14/16/12 
f 15/17/13 1/1/1 4/4/4 16/18/14 
f 4/4/4 3/3/3 17/19/2 18/20/15 
f 3/3/3 6/6/6 19/21/16 17/19/2 
f 6/10/6 8/9/7 20/22/17 19/23/16 
f 8/9/7 10/12/9 21/24/18 20/22/17 
f 22/12/19 23/14/10 24/25/10 25/24/19 
f 23/14/10 26/16/20 27/26/20 24/25/10 
f 14/16/12 16/18/14 28/27/14 29/26/21 
f 16/18/14 4/4/4 18/20/15 28/27/14 
f 18/20/15 17/19/2 30/28/3 31/29/1 
f 17/19/2 19/21/16 32/30/16 30/28/3 
f 19/23/16 20/22/17 33/31/17 32/32/16 
f 20/22/17 21/24/18 34/33/18 33/31/17 
f 35/24/19 36/25/10 37/34/10 38/33/19 
f 36/25/10 39/26/20 40/35/20 37/34/10 
f 29/26/21 28/27/14 41/36/13 42/35/22 
f 28/27/14 18/20/15 31/29/1 41/36/13 
s 1
f 43/37/23 44/38/23 45/39/23 46/40/23 
f 45/39/23 47/41/23 48/42/23 46/40/23 
f 48/42/23 49/43/23 46/40/23 
f 50/44/23 43/37/23 46/40/23 
s 2
f 51/45/24 52/46/24 53/47/24 54/48/24 
s 4
f 55/49/23 56/50/23 57/51/23 58/52/23 
s 8
f 59/49/11 60/50/11 61/51/11 62/52/11 
s 16
f 63/53/1 64/54/1 65/55/1 66/56/1 
f 67/57/1 63/53/1 66/56/1 68/58/1 
f 67/57/1 68/58/1 69/48/1 70/45/1 
s 32
f 71/59/16 72/48/16 73/45/16 74/60/16 
f 69/58/16 74/60/16 73/45/16 75/61/16 
f 69/58/16 75/61/16 76/62/16 77/63/16 
f 69/58/16 77/63/16 70/54/16 
s 64
f 78/64/25 79/45/25 80/57/25 81/53/25 
f 82/65/25 78/64/25 81/53/25 73/54/25 
f 82/65/25 73/54/25 72/58/25 83/48/25 
s 4
f 67/64/23 84/66/23 85/67/23 63/65/23 
f 86/66/23 87/49/23 88/52/23 89/67/23 
s 8
f 65/64/11 90/66/11 91/67/11 66/65/11 
f 92/66/11 93/49/11 94/52/11 95/67/11 
f 82/56/11 96/68/11 97/69/11 78/55/11 
f 98/68/11 99/51/11 100/50/11 101/69/11 
s 4
f 102/70/23 103/71/23 58/52/23 57/51/23 
s 8
f 103/61/11 102/62/11 60/50/11 59/49/11 
f 104/70/11 105/71/11 62/52/11 61/51/11 
s 4
f 70/45/23 77/72/23 84/66/23 67/64/23 
f 106/47/23 64/48/23 63/65/23 85/67/23 
f 77/72/23 76/61/23 55/49/23 84/66/23 
f 103/71/23 106/47/23 85/67/23 58/52/23 
f 79/58/23 107/73/23 108/68/23 80/56/23 
f 107/73/23 102/70/23 57/51/23 108/68/23 
s 8
f 64/45/11 106/72/11 90/66/11 65/64/11 
f 109/47/11 68/48/11 66/65/11 91/67/11 
f 106/72/11 103/61/11 59/49/11 90/66/11 
f 105/71/11 109/47/11 91/67/11 62/52/11 
f 83/58/11 110/73/11 96/68/11 82/56/11 
f 107/63/11 79/54/11 78/55/11 97/69/11 
f 110/73/11 104/70/11 61/51/11 96/68/11 
f 102/62/11 107/63/11 97/69/11 60/50/11 
s off
f 91/67/25 90/66/25 92/66/25 95/67/25 
f 90/66/24 59/49/24 93/49/24 92/66/24 
f 59/49/1 62/52/1 94/52/1 93/49/1 
f 62/52/23 91/67/23 95/67/23 94/52/23 
f 97/69/1 96/68/1 98/68/1 101/69/1 
f 96/68/23 61/51/23 99/51/23 98/68/23 
f 61/51/25 60/50/25 100/50/25 99/51/25 
f 60/50/24 97/69/24 101/69/24 100/50/24 
s 4
f 111/69/23 81/55/23 80/56/23 108/68/23 
s 1
f 75/45/23 73/45/23 81/54/23 56/71/23 
s off
f 76/61/23 75/62/23 112/62/23 113/61/23 
f 75/62/23 56/50/23 114/50/23 112/62/23 
f 56/50/23 55/49/23 115/49/23 114/50/23 
f 55/49/23 76/61/23 113/61/23 115/49/23 
f 113/61/16 112/62/16 116/62/16 117/61/16 
f 112/62/25 114/50/25 118/50/25 116/62/25 
f 114/50/11 115/49/11 119/49/11 118/50/11 
f 115/49/1 113/61/1 117/61/1 119/49/1 
f 117/61/26 116/62/26 120/62/26 121/74/26 
f 117/61/26 121/74/26 122/61/26 
f 116/62/27 118/50/27 123/50/27 124/75/27 
f 116/62/27 124/75/27 120/62/27 
f 118/50/28 119/49/28 125/49/28 126/76/28 
f 118/50/28 126/76/28 123/50/28 
f 119/49/29 117/61/29 122/61/29 127/77/29 
f 119/49/29 127/77/29 125/49/29 
s 1
f 126/65/30 125/56/31 15/17/32 13/15/33 
s 2
f 126/65/34 13/15/35 11/13/36 123/55/31 
s off
f 11/13/37 9/11/37 124/75/37 123/50/37 
f 7/8/38 120/62/38 124/75/38 9/11/38 
f 7/8/39 5/7/39 121/74/39 120/62/39 
f 2/2/40 122/61/40 121/74/40 5/7/40 
f 2/2/41 1/1/41 127/77/41 122/61/41 
f 15/17/42 125/56/42 127/77/42 1/1/42 
f 10/12/24 12/14/24 128/14/24 129/12/24 
f 12/14/24 14/16/24 130/16/24 128/14/24 
f 131/16/13 132/26/13 133/26/13 134/16/13 
f 29/26/13 42/35/13 40/35/13 39/26/13 
f 42/35/43 135/34/43 37/34/43 40/35/43 
f 135/34/43 34/33/43 38/33/43 37/34/43 
f 34/33/17 21/24/17 35/24/17 38/33/17 
f 136/24/17 137/12/17 138/12/17 139/24/17 
f 36/25/23 35/24/23 25/24/23 24/25/23 
f 139/24/25 138/12/25 22/12/25 25/24/25 
f 129/12/24 128/14/24 23/14/24 22/12/24 
f 128/14/24 130/16/24 26/16/24 23/14/24 
f 134/16/11 133/26/11 27/26/11 26/16/11 
f 39/26/23 36/25/23 24/25/23 27/26/23 
f 14/16/3 29/26/3 132/26/3 131/16/3 
f 29/26/43 39/26/43 133/26/43 132/26/43 
f 39/26/23 27/26/23 133/26/23 
f 26/16/24 130/16/24 134/16/24 
f 130/16/24 14/16/24 131/16/24 134/16/24 
f 21/24/3 10/12/3 137/12/3 136/24/3 
f 10/12/24 129/12/24 138/12/24 137/12/24 
f 129/12/24 22/12/24 138/12/24 
f 25/24/23 35/24/23 139/24/23 
f 35/24/43 21/24/43 136/24/43 139/24/43 
f 31/44/44 30/37/44 140/37/44 141/44/44 
f 30/37/45 32/38/45 142/38/45 140/37/45 
f 32/38/46 33/39/46 143/39/46 142/38/46 
f 33/39/47 34/41/47 144/41/47 143/39/47 
f 34/41/48 135/42/48 145/42/48 144/41/48 
f 135/42/49 42/43/49 146/43/49 145/42/49 
f 42/43/50 41/40/50 147/40/50 146/43/50 
f 41/40/51 31/44/51 141/44/51 147/40/51 
f 141/44/23 140/37/23 148/37/23 149/44/23 
f 140/37/23 142/38/23 150/38/23 148/37/23 
f 142/38/23 143/39/23 151/39/23 150/38/23 
f 143/39/23 144/41/23 152/41/23 151/39/23 
f 144/41/23 145/42/23 153/42/23 152/41/23 
f 145/42/23 146/43/23 154/43/23 153/42/23 
f 146/43/23 147/40/23 155/40/23 154/43/23 
f 147/40/23 141/44/23 149/44/23 155/40/23 
f 149/44/52 148/37/52 156/37/52 157/44/52 
f 148/37/53 150/38/53 158/38/53 156/37/53 
f 150/38/54 151/39/54 159/39/54 158/38/54 
f 151/39/18 152/41/18 160/41/18 159/39/18 
f 152/41/19 153/42/19 161/42/19 160/41/19 
f 153/42/20 154/43/20 162/43/20 161/42/20 
f 154/43/22 155/40/22 163/40/22 162/43/22 
f 155/40/55 149/44/55 157/44/55 163/40/55 
f 157/44/56 156/37/56 164/37/56 165/44/56 
f 156/37/57 158/38/57 166/38/57 164/37/57 
f 158/38/58 159/39/58 167/39/58 166/38/58 
f 159/39/59 160/41/59 168/41/59 167/39/59 
f 160/41/60 161/42/60 169/42/60 168/41/60 
f 161/42/61 162/43/61 170/43/61 169/42/61 
f 162/43/62 163/40/62 171/40/62 170/43/62 
f 163/40/63 157/44/63 165/44/63 171/40/63 
f 165/44/52 164/37/52 172/37/52 173/44/52 
f 174/37/53 175/38/53 176/38/53 177/37/53 
f 166/38/54 167/39/54 178/39/54 179/38/54 
f 180/39/18 181/41/18 182/41/18 183/39/18 
f 168/41/19 169/42/19 184/42/19 185/41/19 
f 186/42/20 187/43/20 188/43/20 189/42/20 
f 170/43/22 171/40/22 190/40/22 191/43/22 
f 192/40/55 193/44/55 194/44/55 195/40/55 
f 173/44/64 172/37/64 196/37/64 197/44/64 
f 172/37/65 179/38/65 198/38/65 196/37/65 
f 179/38/66 178/39/66 199/39/66 198/38/66 
f 178/39/67 185/41/67 200/41/67 199/39/67 
f 185/41/68 184/42/68 201/42/68 200/41/68 
f 184/42/69 191/43/69 202/43/69 201/42/69 
f 191/43/70 190/40/70 203/40/70 202/43/70 
f 190/40/71 173/44/71 197/44/71 203/40/71 
f 197/44/72 196/37/72 43/37/72 50/44/72 
f 196/37/73 198/38/73 44/38/73 43/37/73 
f 198/38/74 199/39/74 45/39/74 44/38/74 
f 199/39/75 200/41/75 47/41/75 45/39/75 
f 200/41/76 201/42/76 48/42/76 47/41/76 
f 201/42/77 202/43/77 49/43/77 48/42/77 
f 202/43/78 203/40/78 46/40/78 49/43/78 
f 203/40/79 197/44/79 50/44/79 46/40/79 
f 164/37/24 166/38/24 175/38/24 174/37/24 
f 166/38/18 179/38/18 176/38/18 175/38/18 
f 179/38/23 172/37/23 177/37/23 176/38/23 
f 172/37/55 164/37/55 174/37/55 177/37/55 
f 167/39/24 168/41/24 181/41/24 180/39/24 
f 168/41/20 185/41/20 182/41/20 181/41/20 
f 185/41/23 178/39/23 183/39/23 182/41/23 
f 178/39/53 167/39/53 180/39/53 183/39/53 
f 169/42/24 170/43/24 187/43/24 186/42/24 
f 170/43/55 191/43/55 188/43/55 187/43/55 
f 191/43/23 184/42/23 189/42/23 188/43/23 
f 184/42/18 169/42/18 186/42/18 189/42/18 
f 171/40/24 165/44/24 193/44/24 192/40/24 
f 165/44/53 173/44/53 194/44/53 193/44/53 
f 173/44/23 190/40/23 195/40/23 194/44/23 
f 190/40/20 171/40/20 192/40/20 195/40/20 
s 2
f 71/46/24 74/78/24 109/73/24 105/70/24 
f 71/46/24 105/70/24 104/71/24 110/47/24 
f 204/54/24 205/58/24 206/73/24 207/78/24 
s off
f 83/48/25 72/45/25 208/45/25 209/48/25 
f 72/45/16 71/46/16 210/46/16 208/45/16 
f 71/46/80 110/47/80 211/47/80 210/46/80 
f 110/47/11 83/48/11 209/48/11 211/47/11 
f 69/54/1 68/58/1 212/58/1 213/54/1 
f 68/58/11 109/73/11 214/73/11 212/58/11 
f 109/73/81 74/78/81 215/78/81 214/73/81 
f 74/78/16 69/54/16 213/54/16 215/78/16 
f 209/48/82 208/45/82 51/45/82 54/48/82 
f 208/45/83 210/46/83 52/46/83 51/45/83 
f 210/46/84 211/47/84 53/47/84 52/46/84 
f 211/47/85 209/48/85 54/48/85 53/47/85 
f 213/54/86 212/58/86 205/58/86 204/54/86 
f 212/58/85 214/73/85 206/73/85 205/58/85 
f 214/73/87 215/78/87 207/78/87 206/73/87 
f 215/78/83 213/54/83 204/54/83 207/78/83 
s 2
f 216/48/23 217/45/23 218/54/23 219/58/23 
s off
f 85/67/25 84/66/25 220/66/25 221/67/25 
f 84/66/11 55/49/11 222/49/11 220/66/11 
f 55/49/1 58/52/1 223/52/1 222/49/1 
f 58/52/16 85/67/16 221/67/16 223/52/16 
f 57/45/25 56/54/25 224/54/25 225/45/25 
f 56/54/11 111/58/11 226/58/11 224/54/11 
f 111/58/1 108/48/1 227/48/1 226/58/1 
f 108/48/16 57/45/16 225/45/16 227/48/16 
f 221/67/88 220/66/88 86/66/88 89/67/88 
f 220/66/89 222/49/89 87/49/89 86/66/89 
f 222/49/90 223/52/90 88/52/90 87/49/90 
f 223/52/91 221/67/91 89/67/91 88/52/91 
f 225/45/88 224/54/88 218/54/88 217/45/88 
f 224/54/89 226/58/89 219/58/89 218/54/89 
f 226/58/90 227/48/90 216/48/90 219/58/90 
f 227/48/91 225/45/91 217/45/91 216/48/91 
# 219 polygons - 11 triangles

